<mxfile host="Electron" agent="Mozilla/5.0 (Windows NT 10.0; Win64; x64) AppleWebKit/537.36 (KHTML, like Gecko) draw.io/25.0.1 Chrome/128.0.6613.186 Electron/32.2.6 Safari/537.36" version="25.0.1">
  <diagram name="Page-1" id="QhFm4iNSq-PD1AImo5J1">
    <mxGraphModel dx="1036" dy="702" grid="1" gridSize="10" guides="1" tooltips="1" connect="1" arrows="1" fold="1" page="1" pageScale="1" pageWidth="850" pageHeight="1100" math="0" shadow="0">
      <root>
        <mxCell id="0" />
        <mxCell id="1" parent="0" />
        <mxCell id="n9dQfp6F3I3MkhqRtmCc-1" value="" style="shape=image;imageAspect=0;aspect=fixed;verticalLabelPosition=bottom;verticalAlign=top;image=data:image/png,iVBORw0KGgoAAAANSUhEUgAAAaYAAADFCAYAAAAfZlZDAAAAAXNSR0IArs4c6QAAAARnQU1BAACxjwv8YQUAAAAJcEhZcwAAEnQAABJ0Ad5mH3gAABE0SURBVHhe7d15kNT1ncbxp6fn6J7pYYCZ4R5ADkU5PWC4xM3WekbNJhsVFAc1SWVXa+MtCbqum+xmj9pYlopivEM2W3HVTZXilehyOyAKCCVBgeGS4RiumYGeu/ePSX7oh77soXu+je9X1fefp2TkA4OP/Or7649PPl9EWcEnX06ODU/o6FBEWTIKgNOaTz6J/16lzCfxqwMAcEecSgcAIPMoJgCAUygmAIBTKCYAgFMoJgCAUygmAIBTKCYAgFMoJgCAUygmAIBTKCYAgFMoJgCAUygmAIBTMvohrkWFhRo5/Awbe3bu/lyHDh+xMaDcvEL5/Pk2Trv21mPqaG+1cdp9/eYtks+fZ+O067Z584vky+mGeVuOqaMj8/N+VRktpqmVE7X0zd/Z2HPz392uhb992caASgdNUmGPQTZOu4O7V+t4/W4bp13poEoV9hho47Sr271K4frPbZx2pRWTVVg8wMZpV7erWuGGPTZOu7KKKQoW97dx2tXtel/hhlobOyejj/J8Psnv98c8Pp/P/hDgBJ8v86e7+L5e8/rUTfN218hfs9/fryqjxQQAQCIUEwDAKRQTAMApFBMAwCkUEwDAKaf8unjVrGtUecH5NpYkHQ+HVbN9h409Awf0V8+SEhtLkrbWbNfDjy+wMU4TufnFKi4dYWNPaMZMFQwdb+MuO6OwTbMHH7ex54X//l+t2/BHG0uSWpsb1Hhoi42TkldQrFDv2PMWX3S98oeMtXGXDStq0w0Vsed9/jevav3GzTaWJLU216vx0FYbJyXhvH9xg/IHj7Fxl40oatOsOPM+9+tX9PEnn9pY6vK8PRTqPdzGnuJv3Kj8inNs3GUjQ22aOSj2vM8sfFkbN31mY0lSa/NRNR7aZuNuccqL6YUFj2rOrGttLElaUb1a0y+92saeFxc8pqpZ19hYkrT8/dW68LLYPxbZraCoXH2GzrCxJ3DNncodO83GXTa5d4ueO++wjT23/sOzev3dj2wsSWo6tl8Hti+zcVICRX1UPvRCG3sC192t3NFTbNxlU3u36Jk48/5w3tN6c/E6G0uSmhr36cCO5TZOSiDUV+VDptvYE5h5r3LPqbRxl11Y2qynzo390v4PfvJLvb1kvY0lSU2Ne3VgxwobJyUQ6qfyIbG/XwPXz1XuqIk27rKLypr15ITY837vvgX6/fINNpYkhRtqVbdzpY27BY/yAABOoZgAAE6hmAAATqGYAABOoZgAAE455bfyfnr/XF11+cU2liR9trVGP//PR2zs+cGc2Zo6OfpNlXUfb9TNt95hY2SReKscCkr6q3TMFTb2FFwyW/4RE2wsSSr0RzS4sN3GSRnXo1UPnV1vY8/P5/9OS1dvsrEk6fDBWq394B0bJ6Wg5wCVjr7cxp6CS6vkHz7OxpKkIn9EFSnOO6GkVQ+Oij3vPz/2qpaviX5d/FDd51q35g82Tkqg50D1Hn2ZjT0Fl82Rf1j06/FFuRFVBFOb97ySFj0wqsHGnp8++opWfhj9uniX5u01SL3PudTGnoLLb5b/jNE2liSFciMalOK85/ds0f1nxZ73oUdeVvXa6NfFDx7YrfUfvmtjTyZXZpzyYsrJyYn5KeFTJl2gxYtetbHnltvu1H+99IqNJUmRSEQdHR02RhaJt7rCP2yMgnP+0cYnxPl05Mpe8a9Ax+OTlBP9y0qSOjoiisT4I7JizWbNvv0xGyfFP3ysglUP2viEOPNO6d2iX56b+XmXrtqkOXfNt3FS/CPGK3jjAzY+Ic6800pbtGBC5uddUv2Jbrr7CRsnxX/muQreMM/GJ8SZd0ZZs+aPj33lO56uzPveio363n2x3xXN5MqMU/4or6OjQ+3t7VFPJNJx0qqLLx5FIif9mD8fSuk0YT+G/4snJyf2ifGHWOr80+hP8cT7QyxJOTk++XNyop4c+/P/SifKjEnO69PJcyR7ujTvn39eKZ0oMzJvVM7Om0GnvJgAAOgKigkA4BSKCQDgFIoJAOAUigkA4JSMFtPWmh269a65MU/1muif4gwA+PrIaDHt3bdfTz77Yszz6ZbUdp8AAE4fGS0mAAASoZgAAE6hmAAATqGYAABOoZgAAE7xnepPFwdiKek7RoFQXxtLknIrRin03btt7PH17CNfsMjGkqSxCVZXxFOUYGXGrtqDqm84bmNJ0kcbtujef3nGxknJHXy2Qn9zl409vl595AtEn3d8gtUV8SScd89B1TdGn/eD9Z/px//6rI2TkjdktIq+E3ttTbx5zy1p1QMpzhtKsDJj5546NTSGbSxJWr1us37yb8/bOCl5Q8eq6Ns/srHH16uvfIFCG0uSzu/ZqnlnZX7e6o/+qPv/4wUbe47Urlfz8TobpwXFhAyL/inFgVC5yofOsLEncM0dyh0zzcaeVP/qX9m7Rc/GWZlx24PPadF70d+va2rcr301y2yclECoj8qHXmhjT+Dau5Q7eoqNPanOO7U0/sqMv73/Gb21ZJ2NJUnhhn3av325jZMSCPVV+dDpNvYEZt6j3LMrbexJdd7pZc1aMCH2Cokfzntaby9db2NJUrhhr/ZvX2HjpASL+6lsSOzv18Cs+5Q7KvruOXVh3hllzXoizrzfn/uU/rBig40lSeH6Wu3fsdLGX5C5qkh1fiBFkagnEolIcY/9Ol/WkeJJ8GX/tAcsxomcPEfS56T5zEnAzpH0SfCl480b6cq8CWe2P5MvO2mOJE+iX8qONM2b8Ps5ATtHsifRV473+5v4+zlzKCYAgFMoJgCAUygmAIBTKCYAgFMoJgCAU7guDif484IKhvrb2NPjgqsVGHi2jSVJOWUDlDflSht7vjswrNHFrTaWJDXuq9XWd9+0sefNd97Sli2f2ViS1N4WVrih1sZJSTRvycRvqWDAKBtLknLKBypv8jdt7LlmYFjnxJi3Ye8ebXvvLRt73nj7DW3dGv1T/tvbjivcsNfGSUk476Rvq6D/mTaWJOWUVyhv8uU29lw3KKxRoRjz1u7Wtv97x8aeRW8t0rZt22wsSWprPa6mxlTnLVQw1M/GnpLK76ig30gbS5Jy+gxWXuVlNvbMHBTWWTHmrd+zWzWLY8/7+puvq6amxsZSF+c91SgmZIXSQZNUWFJhY0mSf9gYBW96yMaeX4w9qsv7NtlYkrRizWbN+tGjNvYc3LVKx+t32zjtSisqVdhjkI0lSf7h4xSc86CNPY+MO6JL+jTbWJK0dPUmzb7jcRt76nZVK1z/uY3TrqxisoI9BtpYkuQfOUHBGx+wsefRcUf0VzHmXVz9iarumm9jT92u9xWu32PjtCsbPEXB4gE2liT5zzxPwdnzbOx5fPwR/WV59HnfW7lRN93zpI09dTtXpvw/U5nEozwAgFMoJgCAUygmAIBTKCYAgFMoJgCAU7iVh6yQeGVG7BUSd45o1LTeLTaWJK3dGH91xdF9G9TUuN/Gadez71gVhPrYWPJWZtxpY8/dIxo1Jca8az6Ov7ri6N4NajrWDfP2G6uCoujzdq7MuN3GnntHNqqyV/R5V6/brHn/Hnt1xZG9H6v52AEbp13PfuNUUFRuY0lS3hljVfTXf29jz9yRjZoYY95VaxOsrti7Xs3HMrO6oisoJmS9QFGfuCszfNE3bUh/Wl2xf/tSGzstEOqr8iGxV2bEn3ef9m9PbVVHdwmE+ql8SOyVGfHmDTfs1YEdqa3q6C7B4v4qGxx7ZUb8eWt1YEdqqzpcwqM8ZL3ISR/P/+UTicQ5Wfn/ZSfPmPS8SaxccM/JMyY7b+c/k1269P2cfeNGRTEBAJxCMQEAnEIxAQCcQjEBAJxCMQEAnOLUdfGbZpVo8gUBGyfl+d8c1aoPo3+CdHcZOSxfd9/Wy8Zp9+nWFj38xGEbn7b8uUEFi2OvGIinva0pKz5t+Ys6V0ikNm9bW1hNKa6u6C5dmrc17Mwqh2R1rsyI/s5eItk4bzROFdOL8/ur6roeNk5K1a21WvhSvY271YwpQS15bbCN027xiuP6xrd22RgAsgKP8gAATqGYAABOoZgAAE6hmAAATqGYAABOOW2KaUhFns4bF4h6zhyeb/9xAICjTpvr4vE+VXdZdVgXXbXTxmnHdXEA+OpOm78x+XzxDwAgO5w2xQQAOD1QTAAAp1BMAACnUEwAAKdQTAAAp5w218XjWVYd1owrU7suPmJYvu5JcXVF/1CHrj6r1cZpt6chR699mmfjpHzdVmYAcA/FlMCFk4Na+nqK7yIdCkurUvv3dknvQqmywqZJ4R0oAN2NR3kAAKdQTAAAp1BMAACnUEwAAKdQTAAApzh1K++fflymb15cZOMuW7ehWd+/Y6+Nk5LOW3nHjheopSXXxkkpKmxWfn6bjTtxKw9AFnOqmFyUzmJavWa4du4qtXFSJl2wVYMrDtq4E8UEIIvxKA8A4BSKCQDgFIoJAOAUigkA4BSKCQDgFIoJAOAUigkA4BSKCQDgFIoJAOAUigkA4BSKCQDgFIoJAOAUigkA4BSKqRsVFTarV89jKZ2YKy8AIMux9iKBdK69SBvWXgDIYvyNCQDgFIoJAOAUigkA4BSKCQDgFIoJAOAUigkA4BSnrovfcn2JJk8M2rjTsRap5pBNPc8tkaq32LTr+vXJ1VWXFtk4KSMH5ejeawtsnHabd3foFy812zgpe/a1a9E7jTYGgIxxqphenN9fVdf1sHGnw2GpOvY7QVULpIUrbNq9ZkwJaslrKb4D1QW8iwQgm/EoDwDgFIoJAOAUigkA4BSKCQDgFIoJAOCUjBZTqChHE88NxDxlwQ7paFP0U9cubesZ+zTm238dACALZfS6+LRJQS1/I8716Y9rpc/rbdrp097Sz6bZ1FOltVqo3TbuVlwXB4CvLqN/YwIAIBGKCQDgFIoJAOAUigkA4BSKCQDgFIoJAOAUrounUb++ubrqktRWZnQFqysAZDOKCQDgFB7lAQCcQjEBAJxCMQEAnEIxAQCcQjEBAJyS0Vt540cX6OlH+tnYM6zlqErbm2zcaVtIevRsm3qq9m/Wwsb9NgYAZJmMFlMiL87vr6rreti40+GwVL3Tpp6qBdLCFTYFAGQbHuUBAJxCMQEAnEIxAQCcQjEBAJxCMQEAnEIxAQCc4tR18YumFmrksDwbd2pulw7EXuWweJO0ZZ9NAQDZxqliAgCAR3kAAKdQTAAAp1BMAACnUEwAAKdQTAAAp1BMAACnUEwAAKdQTAAAp1BMAACnUEwAAKdQTAAAp1BMAACnUEwAAKdQTAAAp1BMAACnUEwAAKdQTAAAp1BMAACnUEwAAKdQTAAAp/gkRWyYLsWhHJ1zVr6NPVu3t6ruYLuNkzJ8aJ7KSv02liQ1NHbok80tNgYAOCijxTRtUlDL3xhsY8+c22r1q9/W2zgpv3qiv268toeNJUnLqsOaceVOGwMAHMSjPACAUygmAIBTKCYAgFMoJgCAUygmAIBTKCYAgFNO+XXxW24o0dRJQRtLkhoaOrRxU7ONPUtWhrWlJvr7RiOH5Wvu7b1t7NmyrUUH6qK/A7V3f5sW/f6YjQEADjrlxfTC4/01Z2b094lWrA5r+hWpvU80vTKoZYtivwNVdWutFr6U2jtQAAB38CgPAOAUigkA4BSKCQDgFIoJAOAUigkA4JRTfivvwXtKdcXFIRtLkmp2tOiRpw7b2BNv7cX40QV66uF+Nvb8+n+O6oO1TTaWWHsBAFnllBdTPKy9AAAkwqM8AIBTKCYAgFMoJgCAUygmAIBTKCYAgFMoJgCAUzJ6XbxPuV9XxnjHSZKWvn9cW2pabZyUGVMKNeKMPBtLkvYeaNMbrL0AgKyQ0WICACARHuUBAJxCMQEAnEIxAQCcQjEBAJxCMQEAnEIxAQCcQjEBAJxCMQEAnPL/pThcC3wewjoAAAAASUVORK5CYII=;base64,iVBORw0KGgoAAAANSUhEUgAAAaUAAADDCAYAAAAiCA5dAAAAAXNSR0IArs4c6QAAAARnQU1BAACxjwv8YQUAAAAJcEhZcwAAEnQAABJ0Ad5mH3gAABjrSURBVHhe7d15lFTlmQbw59at6lp6A7obmm5oNmVTAUFWBcwcojHLiYIICm5jHE6MyRgcNe7JZHEmZ85oEhF3zKYxRo0mxigu7OuoKMoOytIL0k03Xd1V3bXOHw0XfOveW0XX9oHP75zvn0e7zn2rquuxy3vvpwGIg4iISAEOGRAREeULS4mIiJTBUiIiImWwlIiISBksJSIiUgZLiYiIlMFSIiIiZbCUiIhIGSwlIiJSBkuJiIiUoeXqNkNerxc1/apkbKhv+Bytfr+MiaA7PdB0l4yzLhoOIh6LyDjrdKcXmu6UcdblbV6XF5qD82ZbvuY9WTkrpfMnTcA/X3pOxoYbbl6IP7/0ioyJ0Kt6PHwl1v9Bky1NBzYi6K+TcdaV9ZsAb3FfGWdd04ENCPrrZZx1Zf0mwltcKeOsa9y/Hh1tDTLOurL+E+Etyse869DRdlDGysnZ13e6w4GiwkLL5XLq8keIAACawwHN4cz5gqbJQ8kJTfuSzZun11fL17yanngsOVj5en1PVs5KiYiIKBmWEhERKYOlREREymApERGRMlhKRESkjIyeEj7vipkYO2a0jAEAoc4QDjU2ytjQs2dP+HxeGQMA9nz6GRY9sUTGdJpwFhShqNdgGRuKp86Fu+ZsGadtoC+KK/oFZWz4/fMvY/OW7TIGAEQ6/Whr/lTGKXG6i1HUc5CMDcXTroK7/0gZp21QYRSzq63n/d2fXsLHW3fIGAAQ7vSjvZvzutzFKLSZt2T6PBT0GyHjtA0ujOJym3mfefYv2LJ9l4wBAOHOVrQ3fybjlLjcJSjsOVDGhpILr0ZB9TAZp+2MoghmVnXI2LDkjy9g647dMgYAhDta0d7SvXkzLaOl9PvHF2H+nFkyBgCsWLMO0y+5VMaGPzyxCPOuMP/Z5avX4sKvXyZjOk14CnujYuBUGRs8c26F86zJMk7blF4hPDm2WcaGBXc9gdeXbZIxAKCj7SAO7V0l45R4ivqgYsAFMjZ45t4G58iJMk7b1LJOPHZui4wNN975ON5Y/qGMAQAdbQ04tHe1jFPiKapExYDzZWzwXHUHnMPHyzht08s7sXiM9bw33P4olq7aLGMAQNBfj8Z9a2ScEm9xX5TXTJGxwTPvR3AOO0/GaftKRScWjbae97r/WIx31nwsYwBA0F+Hxn1rZZwX/PqOiIiUwVIiIiJlsJSIiEgZLCUiIlIGS4mIiJSR0bPvfvmf9+Jbl1wsYwDAlm3bcfdPH5Cx4Yc3LcC0883PsNr4/iZcs+BmGdMpRHd64bDYjsFdWoWyEebvGwBwX3I99DPHyBgA4NXjqPREZZySsaVh/HRkq4wN9z/4AlZs2CpjAEBLUx0+2fS2jFPiLq1G2YiLZGxwf+NfoQ8xv7QinXnP6xHGT0ZYz3vf//4ZKzdukzEAoLmpDlu6O2+Pfigb/lUZG9zf/A70wefIGADg0+Po0815x/cI48c28979P89jzXvmp/w3N9Ziy4fvyDgl7p79UTZshowN7m/dCH2Q+SUO6cw7sWcI9w233v7nzl8+h3Uf7JQxAODwof3Y+tEyGRsiOdz2IqOl5HYXwGnxwTNpwji88txvZWy4aeEdePGV12QMAIjGYujosD7/ntRXVj0eXovtJ/TB58A7/x4ZGzSnC3CY/1E/sVcIj9icBmvHoQFuh/XbvzMUQTRq/gGxauM23HD7IzJOiT5kNLzz7pKxwW7eKb1C+E0e5l2xYStuvGOxjFOin3kuvFf+SMYGu3kvKAvhV6OyNW8Y0WhMxgCAZes+wYI7H5NxSpxDx8Ez93YZG+zmnVbWiQdHHZFxSnQNKOjmvG+v3oyb7nlCxoZcbnth/sx0U2dnCO2BgOkKh8Io9PksVzQaTfiZY4uFdBqw255Ad0ErcFsuq19gANCP/vXQnWX3gQUA7gInfF636XK7CxLnSHWlMa9Dy8+8njzNq2uJc6S6ks/rSpjTeH0L8jNvOq+vXSEh2bxJXt+uv19yw/rZISIiyjGWEhERKYOlREREymApERGRMlhKRESkjJyV0u7P9mLhnfdZrvc2fSR/hIiIvmRyVkq1dfV48JHHLde2Heb7mhAR0ZdHzkqJiIgoGZYSEREpg6VERETKYCkREZEyWEpERKSMjN4lnMhKj8rR8BT1kTEAwDlgJApn3ypjg1ZSBs3tlTEAYExpGD+z2X7CjlePo6/NNgH1h1rQ3m5+M+ANm3bg1p8+KeOUOAeehcLLF8rYYDfvuCTbT9hJOu/nLWgPmM+77oPtuO1nT8k4Ja7B58A38xYZG+zmHd8zhPtttmOw40uyzUf9581oD3TKGACw5r2tuOMXS2ScEteQ0fBd9gMZG7TScmgFHhkDACYk2X7Cjk+PodJjfhdwAKj7vBkBi3lXbfwEd/6X9S4OzXXvozPQKOOsYClRTmiaA9DM7zTsKeqD8sEXytjgmfUDOEdOlDFw9K7Kye6ObGVyzxAWjbHeFuH79y/BmyvNr58LtDagdvcKGafEU1yJ8kHTZWzwzL4FzuHjZQykOe/5Sba9uPm+p7F01WYZAwDaW+tRt3uljFPiKe6L8kHTZGzwXLEQzmHjZAykOe/UJNtefPeeJ/HOmk9kDABoP1KHuj2rZJwSb0kVygZOlbHBO+dW6EPHyhhIc97pSba9+Lc7n8Dy9VtkDABoO1KL+j2rZWyIx2I5qwp+fUc5EY/HEI9FzVc0AoQ7rVfc+r/+YnGgI6p1a3XGzEvymFA4gmBHyHR1hsKJc6S6ks0by868IeuHBQB02swbyua8WXp9k80bClnPm83XN56teePdfz8ne31zVUhgKRERkUpYSkREpAyWEhERKYOlREREymApERGRMnhKOOWd7vLBV1IlY0PJhJlwVw+XMQDAUV4F1/iLZWy4rCqIYUURGQMAgp/XoWH1WzI2vPraa9i5a6eMAQCRcADB1joZp8Tp8sFrN+/EWXBXDZMxAMBRXg3X+ItkbJhZFcRQq3kP1qJhzdsyNrzy979j127zu/VHQgEE/dmZt3TSbBT0PVPGAABHRX+4zpshY8OsqiDOtJq3oRYNa63n/evfXsXuPXtkDKQ7b0EhvMV9ZWwonXQFCvqeIWMAgKN3f7jGWc87uzqIIYXm8wbq9+PgundlbHjplVfw6WefyhgAEAm1I+ivl3FesJRIeWX9J8JX0k/GAAB9yCh4r71PxoaHRrXgot7mFwyu2LAV8295WMaGxv3rEGytlXHWlfefBG9JtYwBAPqZY+C9+h4ZG349qgUzLOZdtm4Lrlm4SMaGxv1ru1206SivmQxvsXlp6UPHwjv/LhkbHh7dgn+pMJ/3nTUf47r/WCxjQ+O+NXn5IC6vmWJZWs5h58Ez70cyNjwypgUXlpvPu3TVZtxw+6MyNhzatxod/gYZK4df3xERkTJYSkREpAyWEhERKYOlREREymApERGRMnQAP5YhkUrcvnI4dBdi0VDCgq8YroFnIx5oNV1jCppQ1HkEh1vaEta2Xfvx+jvrEh7z2Orw1yMSapeHk3XuwjJoDot5C0vgGnBWwpzH1rkFTSi0mHfLzn3457s287bWIRLOw7y+cst5taJSOAeMTJjzxHl9lvPuxRvvrk94zGMr6K9DNByQh5N1XfM6E47HmLdmRMKcx9bYgiZ4Leb9ZMdevLlsQ8JjHp+3Ni/zniyeEk7Ks9/2ohLlg623gShwxKGb/2jS7Sfi8RgQz/2vh+28SbaBsJs32fYTas5bhfJB1ttA2M57pB51e06teZNte2E/r/12G7ncfiIdLCU6pXmKeqNigPUvsZ2OtoM4tNf6l1hFnqI+qBhwgYxT0tHWgEN7rffMUZGnuBIVNefLOCVBfwMa951a83qL+6K8ZoqMUxL016Nx3xoZn3L4/5SIiEgZLCUiIlIGS4mIiJTBUiIiImWwlIiISBk8+45Oacm2vbCTzvYT+ZJsGwg76WzHkC/JtoGw8+WbV53tJ9LBUiIiImXw6zsiIlIGS4mIiJTBUiIiImWwlIiISBksJSIiUsZpcfZddV8nSkvM+7U9EMfe/WEZZ0aJF/A4ZdolHAWa83Cb+AId6OGT6XGtHUBHlp6PLNFdXjgcLhlnXTQcQCwWkXHWfdnmJTrRaVFKSx6uxJxLS2QMAFi5NoCLZx+QcWbMHgecUy3TLp82AkvycMfeweXAdTZ3Gf7ze8DHtTJVWlm/8fAWWzzPWdR0YENernMp6zcB3uLuXYuUjqYD60+L61zo1Gb+58UppsClwesxXwUFFpuPZILuAFy6+XLm6anVtMRjOXE5svh8ZIvmgObQc76s9rzJNu1LNi/RifL0yUlERJSIpURERMpgKRERkTJYSkREpAyWEhERKeO0OCX8j4/1xVWzzE8JX7Y6gK98e7+MM2NoH6CiSKZdnDpQ7JHpcUMCQK9uXi+0xwc0WVzHEokC/g6ZHrf9INDYJtO8chYUoajXEBkbiqddCfeAs2WctkG+KOb2s76W7Ld/ehkffbJdxgCASMiPtsN7ZJwSl7sYhT0Hy9hQMn0eCmpGyjhtgwujmFNtPe8zz72EzVt2yBgAEOn0o625e/MSnQyWUrYMrgBuvECmx009DAwMyjQ1K3sBn3ll2mX3IeDJVTJVmqewNyoGTpWxwTPnVjjPmizjtE3pFcKTY5tlbFhw1xN4fdkmGQMAOtoO4tDe7j3PnqI+qBhg/d7wzL0NzpETZZy2qWWdeOzcFhkbbrzzcbyx/EMZAwA62hpwaO9qGRNlHL++IyIiZbCUiIhIGSwlIiJSBkuJiIiUwVIiIiJlnBZn3/33/RX4xlcLZQwA2PhBB67/foOMs29oGfBDmzPGhrcDFSGZpmZbIXCoQKZdtjcBD62Vad7Zbcfg7lGFspFfk7HB/bVroZ8xRsYAAJ8eR5UnKuOUnNsjjJ+MaJWx4Se/+gtWbtgmYwBAc1MdNr//loxT4u5RjbKRF8vY4L7keuhDRskYSHPecT3CuN9m3vsffAGr/8/8FPjDTbX4+P23ZWzgtheUKadFKblcGnSLv/licSAUysOIk0uAP42Q6XFrewD7LE7rTmZyC1BjcTr5mlbgyq0yzbuyfhPgLTHfjkEfdA5819wr4+N0HdDMX+BJvUJYPMb6NGc7DsThMn9YAEA4EkUsFpMxAGDlhm24/rZFMk6Jc8hoeOffLePjbOad0iuERXmYd/n6Lbjh9sUyNjTt57YXlBk2b9FTRzgcR0en+cpLIeFo3etx6xXXgGg3l2byeMeWI0/zJqNp0DTdfOlOwOmyXhYf0Dj6BnY74t1adh/QAOBy6nAXuEyXy+VMnCPFBUca82r5mbfA5UqY4wszgdteUGYkeZsSERHlDkuJiIiUwVIiIiJlsJSIiEgZLCUiIlIGS4mIiJTBUiIiImWwlIiISBksJSIiUgZLiYiIlMFSIiIiZbCUiIhIGafFXcKVNKEUePpsmR5nt/1EMnbbXqw/AtzwsUzzrkflKHiK+sgYAOCsGYHC2bfK2KCVlEPz+GQMABhTar/9hB2fHke113obiLqDzfC3m9+NfeOmHbjt50/JOCXOAWeh8PIfytiglZZDc5vPO7ZHGPcP7968hU77bS9qDx5GW3uHjAEA6z/Yjjt+8bSMDS31m9DRfkjGRCeNpZQtQ8qBBRfI9Di77SeSsdv2Ytch4PHVMs07TXNY3knaXdQbFYOny9jgufwWOEdOlDFw9K7ZLq17b+Fk217cfN/TeGPFRzIGAAT8DajfvVLGKfEU90H5oGkyNniuWAjn8PEyBtKc9/yyEB4ebT3vTfc+haUrN8sYABDw16N+9yoZG+LxGD9KKCP49V22JNuawm77iWTL7rFj5h/8+RaPxxCPR00XYlEgErZecfM9fnB0v6zOmNatFU7yXIUjUXSGwqYrHI4kzJHySjavxZ5GSHte+WhflM68LCTKFJYSEREpg6VERETKYCkREZEyWEpERKQMlhIRESlDmVPCr5lTgnGjPTLuEggDe5tlavjdKuC9T2WaA2NrgOoeMu0SjgKt5td8AACqOoCSiExTU+cBWp0y7eLSgRKL5xEA3tsH1FmfFpwPussLb3G1jA2lEy6Du3q4jAEAjvIquCZ8TcaGmVVBDC82f54DB+tQu3KpjA1/+8dr2Llrl4wBANFwAEF/nYxTort88BZXydhQOnEm3FXDZAwAcFRUwzX+YhkbZlUFMcxi3vaGWtStekvGhldf+zt27d4tYwBANNyOoL9exkQZp0wp/eHRvph3eYmMuxwOAOv3y9Qw7xHg2bUyzYG544HR/WTaZc8h4Anr6zqyZkgF8B2b66Oe2wh8dECmSivrPxG+EvPnWR8yCt5r75Ox4aFRLbiod6eMAQArNmzF/FselrGhcf86BFtrZZx15f0nwVtiXtL6mWPgvfoeGRt+PaoFMyzmXbZuC65ZuEjGhsb9axFs7V7REmUKv74jIiJlsJSIiEgZLCUiIlIGS4mIiJTBUiIiImXoAH4sw2wo9Dkw7IwC9K5wmq5vTnNjaJUGhKKJ63AM+DAOtLpN10sfxLH5YJK7TWZD/16AxwW0dyaug35gax5OoS1yAzW9Eo/n2NraADS1y59SmttXBofuQizambDgK4JrwEjE24+YrlF6E3ydLWhq9iesbTv345/vrk14zGOrw1+HSCj3z1WBrwwO3ZlwPF3zFsM1YETCnMfWaGcjvB3m827ZsRdvLFuX8JjGvK31iIRzPy/RiXJ2SvgFk7x468X+Mja4tjbAcdAv4y7begEPTJKpYV7sAzwby8OprA6ta5mJA4jmoSg1DdAtjgkAonEgnpOXPGO6tr0w5y7qY7vthVOLW34dEPQfRP2eFTI2xOPxXP16fIHdvJ7iStttL+zmDfgb0LDHeruNfM1LdCKr92/GOTTA7dYsl0M7el9+0wUg4rBeSbYgyJpYHIjEzFc+CgnoKhx5LCeuU6yQYGx7Yb4Qt98GIhKOIGSxwpFIwuN94bHz9AEtj+MLK8m2F3bzRhSdl+hEOSslIiKiZFhKRESkDJYSEREpg6VERETKYCkREZEycnZK+LTJXiz/W42Mj/uwHqhrlWmXbWXAz6fI1DAP7+NZ5P5uzpR/XdtA9JVxSqLhYLe3n8iX9OYNcPsJUh5LiYiIlMGv74iISBksJSIiUgZLiYiIlMFSIiIiZbCUiIhIGTk7+27caA+W/KZSxob+bS3oEQrKuMuuEuBXI2VqmNe0Fc8GPpcxERGdYnJWSpoGuFzWd/N+5jeVuPKyYhl3ORwE1lqf8j3vsTieXZeTMYiIKIty9vVdPA6EQnHLFYufsD9RwgLgjFkvjYVERHQ6yFkpERERJcNSIiIiZbCUiIhIGSwlIiJSBkuJiIiUkbNTwpP56oWFGHaGS8ZdOiLAwTaZGt7cDOxokCkREZ1qlCklIiIifn1HRETKYCkREZEyWEpERKQMlhIRESmDpURERMpgKRERkTJYSkREpAyWEhERKYOlREREymApERGRMlhKRESkDJYSEREpg6VERETKYCkREZEyWEpERKQMlhIRESmDpURERMpgKRERkTJYSkREpAyWEhERKUMDEJdhNhT6HBgy0CVjw77aMFqOxGSckppqF3qUmvdrWyCGPZ+FZZySwkIHhgzIzjETEVGinJXS1ElevP1yfxkbrv1eA557qVXGKfndI30x97JiGQMAVqwJYsas/TJOyfQpPix9sZ+MDVd/tx7P/9UvYyIi6ibzPy+yQNMAl0uzXI40jkTXrR9bd8p/O3XJj1mTP0JERGlIowqIiIgyi6VERETKYCkREZEyWEpERKQMlhIRESkjo6eEXzu3FOPP9cgYABAIxrB3v/X1QkuXBbBjd0jGAIAzBxfg3xf0lLGhtj6CVn9UxsDRf/bXf7TJ2HDdlaU4b0z3jvnNdwPYucf8mImI6ORltJR+v7gv5s8ukTEAYMXaIKZ/a5+MUzJ9ig/LXrW+xmnegno8+2L3rnH642N9cdUs82NetjqAr3y7e9c4ERHRyePXd0REpAyWEhERKYOlREREymApERGRMlhKRESkjIyefffzu8vxjYuKZAwA2L4zhF882CRjw74DETQfMT+te9xoD576daWMDY8uacHajUEZAwDa2mPYbbN1xQP3VuCSGYUyBgBs2xHCAw9ZH/PeA9y6gogokzJaSroD0CzunH3BRK/tNhDXfK8Bz1mc1q1pgK6bPy4APPNwJeZcar51xfI1QcyYaX1at90xT5vsxRsvWB/z/O/W4/mXuXUFEVGmZPTru2gMiETipisWi8Pp1CyXRS8AAOJx68eNROLQNCQ83rGl6/LRvsj+mK0ft+uYbQ6aiIhOWkZLiYiIKB0sJSIiUgZLiYiIlMFSIiIiZbCUiIhIGRk9JdxOVaUTl37d/BomAHhrufXWFcnMmO7D0CEFMgaObl3xyuvWW1fYSXbMS5dx6woiokzKWSkRERElw6/viIhIGSwlIiJSBkuJiIiUwVIiIiJlsJSIiEgZLCUiIlIGS4mIiJTBUiIiImWwlIiISBn/D2vAybE3eYrlAAAAAElFTkSuQmCC;base64,iVBORw0KGgoAAAANSUhEUgAAAaYAAADGCAYAAACZ8iTtAAAAAXNSR0IArs4c6QAAAARnQU1BAACxjwv8YQUAAAAJcEhZcwAAEnQAABJ0Ad5mH3gAAA9oSURBVHhe7d15cNz1ecfxz2olayWtfEiW5Eu2fFEb3zQ+wMbQtJNACs2EoyFADJlpSpvQYDB0GmqOadODPzotUFoSjGnjDmlobTqTEAwtBNu49RXwQU0MtrGx8W1jJNkrW8f2DyU/hce7v92utNKz8vs18/3ng0fsIwZ9rN98d5+IIpGk3IsoUlRkwy4dHUqqAMYA0O9FFJH4edUtEYnvEADAj5BaBwCg91FMAABXKCYAgCsUEwDAFYoJAOAKxQQAcIViAgC4QjEBAFyhmAAArlBMAABXKCYAgCsUEwDAFT7EFe4Vl5QrEh1g47xrbz2jjvZWG+fdxTdvhSLREhvnXV/Ni8woJrhXPWqOygeOsnHenTy4SWcbD9o476pHzVX5wJE2zrsTBzcq0fiRjfOuun6eyitH2DjvThzYoETTIRvDAR7loTBEIr1/+krk4po3oj6at+9GRgYUEwDAFYoJAOAKxQQAcIViAgC4QjEBAFzptevi48aO0ZK7/9DGge//4AVt3PKWjXERKB5QqcrqCTYOxBfeotKGGTbutrHlbbp99FkbB/7pBy9q646f21iS1HquSc2ndts4KyWllYpXpZ+38qpbNWDMNBt327iKNt1Wn37e555fpW3v7LKxJKn1XKOaT+2xcVYyznv1bRoweqqNu21CRZu+EjLv8n9Zqe0737Ox1M150X29Vkzz583Wm6/8yMaBO+76I33/X//NxrgIlFbUqLZhoY0DsZvvVfG0+TbutnlV57X8so9tHPjGQ8/qx6+l/stSy5ljOr5vnY2zEquoVU3DlTYOxL68RMVTLrdxt11RdV7LQua968Fn9PIbW20sSWppPqrj+9+0cVZi8TrVjFlg40DslgdUfOlcG3fbldXn9N1Zp20c+Pq3v6dX1myzsSSppfmIju9fb2P0Eh7lAQBcoZgAAK5QTAAAVygmAIArFBMAwJVeu5U3c9oUPfePj9s48NB3HtOPV/+njdFPhK1yKB00XNVTv2DjQOnnbld0wkwbS5LKo0mNLm+3cVamD2zVo5MbbRz4y6f+Q2s3vWtjSdLHJw/r7c2v2jgrpYNHqHrKtTYOlH5+kaLjp9tYklQRTao+x3lnDmrVw5PSz/udJ1fpzS2pr4ufOvGRtm75LxtnJTZ4pKqmXGPjQOk1dyg6LvX1+IripOrLcpv3skHntXRSk40Df/bESv33z1JfF880Lysz8qvXiikSiaioKP0vaB0dHUome+WloA+Era6IjpuqsjsesXGXX34adApzh4RfgQ4TkVSU+stKkjo6kkqm+d9j/ZZduv2eJ22clej4aSpb9LCNu4TMe3nVeX1vVu/Pu3bju7rjvqdsnJXohBkq++pSG3cJmXd+9Xk9PbP3512zYafuXPIPNg6wMiO/0jdFD0smk2pvb097KKWLwAVrB37lFBWlP2l+aEmdP32iOZ6wH1qSVFQUUbSoKOUpsq///3VSzJjlvBFdOEe2p1vz/vJ15XRSzFjo8yKveq2YAADIBsUEAHCFYgIAuEIxAQBcoZgAAK5QTAAAVygmAIArFBMAwBWKCQDgCsUEAHCFYgIAuEIxAQBcifTWp4vj4jaobqpi8TobS5KK6ycpftMSGwcig2sVKauwsSRpWobVFWEqMqzMOHD4pBqbztpYkvTWjt164C+W2TgrxaMnK37jfTYORIbUKhJLPe+MDKsrwmSc99BJNTannnfztvf1J3/1rI2zUjJmiipuWGzjQNi8swa1ammO88YzrMz48NAJNTUnbCxJ2rR1l77918/ZOHD6yHadO3PcxughFBN6UepPZY7Fa1TTsNDGgdjNi1U8db6NA7n+2j+36ryeDVmZ8c2Hl+ul19+ysSSppfmYjn6wzsZZicVrVdNwpY0Dsd+9T8VTLrdxINd5r6gOX5nxB3+6TKvXbLWxJCnRdFTH9r1p46zE4nWqaVhg40DslvtVPHmujQO5zrtg6Dk9PfO0jQN3PfiMXlm7zcaSpETTER3bt97Gv4Ifm/mU639zIAfJlCeZTEqhx36dT+vI8WT4skomk+roSHOSF86R9blgPnMysHNkfTJ86bB5O9fSdOPYGT917Cv5tAvmyPJk+lZ2dGte5BPFBABwhWICALhCMQEAXKGYAACuUEwAAFe4Lo4+Fy0pU1l8uI0DAz/zO4qNnGxjSVLR0BEqufw6GwduGpnQlMpWG0uSmo8e1p7XXrZx4OVXV2v37vdtLElqb0so0XTYxlnJNO+g2V9U6YhJNpYkFdWMVMm837Zx4OaRCV2aZt6mI4e09/XVNg785JWfaM+ePTaWJLW3nVWi6YiNs5Jx3jlfUunwS2wsSSqqqVfJvGttHPjyqIQmxdPMe/ig9v70VRsHXlr9kvbu3WtjSVJb61m1NOc2L7qPYoJ71aPmqHxQvY0lSdFxU1V256M2DvzNtE90bV2LjSVJ67fs0le+9YSNAycPbNTZxoM2zrvq+rkqHzjKxpKk6PjpKrvjYRsH/m76aX2u9pyNJUlrN72r2xf/vY0DJw5sUKLxIxvn3dD6eSobONLGkqToxJkq++pSGweemH5av5Vm3jc27NSi+56yceDEgf9RovGQjeEAj/IAAK5QTAAAVygmAIArFBMAwBWKCQDgCrfy4F7mlRnpV0jcO6FZ86vO21iS9PY74asrPjm6Qy3Nx2ycd4Prpqk0XmtjKViZca+NA0smNOvyNPNu2R6+uuKTIzvUcqYP5h02TaUVqeftXJlxj40DD0xs1twhqefdtHWXHnyM1RWFiGJCQYtV1IauzIik3rQh/WJ1xbF9a23sWixep5ox6VdmhM97VMf25baqo6/E4sNUMyb9yoyweRNNR3R8f26rOtC3eJSHgpa8YB3Bp08yGXIK8u9kF86Y9byZ9kC4dOGM2c7b+WdQiCgmAIArFBMAwBWKCQDgCsUEAHCFYgIAuFIQ18UnjC3R/XdX2Tjw3POfaOPPUn+CdF+ZOGSYlsxJv47h7f37dPDUKRtLkqrjcV0xMfUaAElavv2n2nQ49XqCi020uExllcNsnJX2tpacV1f0lc4VErnN29aWUEuOqyv6SrfmbU2wuqJAFUQxLZhbpnUvjbZxYNE3DmvFC4027lML6ydrza2P2DiwcvNGbT/woY0lSQ1Da/S1hVfbOHDbj57U8zvX2xgA+gUe5QEAXKGYAACuUEwAAFcoJgCAKxQTAMCVflFMY+pLdNn0WMpzyfgB9o+7MLi8QsMHD0l5quNx+8cB4KLRL66Lh31o8roNCV11fepr2fmU6bq4Qr7xIZ/kL3FdHEA/1y9+Y4pEwo9XkTQHAC5m/aKYAAD9B8UEAHCFYgIAuEIxAQBcoZgAAK70i+viYdZtSGjhdbldF58wZJjuD1ldEaZUxapOVtq4R3wcOaOEzts4K6zMAOAdxRTiylGTtPa2R22clf0njmv52jds3CNumj1X0+pz+37wHigA3vEoDwDgCsUEAHCFYgIAuEIxAQBcoZgAAK4UxK28mVNLtezxYTbOytYd5/R7i4/YOCtzh03Qqi8usXFgSHmFygakXquR6VZe24CkOopt2inSLpWcS/9xrmG38s63telEc5ONA3e/tlwv7t5sYwBwoyCKqa+MLhuqO0ddZePAjbPnaHr9GBtLWRTTiYZ2nalK/a2PNUdU917UxoGwYtp3/LieW5f+37vqyCa903TAxgDgBo/yAACuUEwAAFcoJgCAKxQTAMAVigkA4ArFBABwheviIWbWNGjZb/y+jQMNNbWqjsdtLGVxXbylMqm20tTf+mhrRGWf5PY+pqaWhN47fNjGgaUbfqjVH26zMQC4QTGFYO0FAPQ+HuUBAFyhmAAArlBMAABXKCYAgCsUEwDAFW7lhZhZ16Bnrkl/XTxM89kW7dp/yMY9YuyIWlUNSn1NPZOla3+oVz7gujgAvyimPFlYP1lrbn3Exj2CK98A+jMe5QEAXKGYAACuUEwAAFcoJgCAKxQTAMAVigkA4EpBXBefUCf98XU27bJ8jbRht037Vqbr4m/t+0AHT520sSSpurJS8yf+mo0DXBcH0J8VRDEtuERa95BNuyx6Wlrh7Od0pmJauXmjth/40MaSpIahNfrawqttHKCYAPRnPMoDALhCMQEAXKGYAACuUEwAAFcoJgCAK25u5Y2tkYZW2rTTjNpiPXNt+jUPi1ad1Ypt523cp2bVNei7n/+6jQOv7/xf7T56xMaSpOGDB+v6Wb9u48BD615gdQWAfstNMf3zXdKiBTb9hfeqpD+fb9PAIr2tFTpoYwBAAeJRHgDAFYoJAOAKxQQAcIViAgC4QjEBAFyhmAAArlBMAABXKCYAgCsUEwDAFYoJAOAKxQQAcIViAgC4QjEBAFxx8+nij94gfWGGTTtVHhuoSS+n+YeSFh3bpRXNx2wMAChAboopzIJLpHUP2bTLoqelFettCgAoRDzKAwC4QjEBAFyhmAAArlBMAABXKCYAgCsUEwDAlYK4Ll43SLp+lk27vPGutPuoTQEAhaggigkAcPHgUR4AwBWKCQDgCsUEAHCFYgIAuEIxAQBcoZgAAK5QTAAAVygmAIArFBMAwBWKCQDgCsUEAHCFYgIAuEIxAQBcoZgAAK5QTAAAVygmAIArFBMAwBWKCQDgCsUEAHCFYgIAuBKRlLRhXlREpUvKbNplf4t0qs2m2RlTKlWV2LRTc7v0fsKm2YlHpYl5es0AgJR6r5hmx6UXL7Vpl8V7pX8/YdPsPD5OunGoTTttapJueNem2ZlTKa2abNMu39ojrTppUwBAN/AoDwDgCsUEAHCFYgIAuEIxAQBcoZgAAK5QTAAAV3r2uvgtNdJn4jbt1Nwu/Tzk/UQbmqR9LTbtNDYmfXO4Tbt80CKdTPN+ouOt0munbdrl1hrpsjy8ZgBATnq2mP52nHRzmvcTbW6WvrTTptmZXSm9GPJ+onv2SitzfA/UE+OlG6pt2qk774ECAOSER3kAAFcoJgCAKxQTAMAVigkA4ArFBABwpWdv5d07UvrsIJt2+vCctOyoTbuErZC4tFx6rMGmXVaelLadsWmnTGsvloyUrk7zmvefk57N8TUDAHLSs8UUhrUXAIAs8CgPAOAKxQQAcIViAgC4QjEBAFyhmAAArlBMAABXeu+6+NAS6TcH27TLxm6skJhXKY2J2bTT8Vbp9ZC1F2FqSqTPhrzmDY2d73UCAPSY3ismAACywKM8AIArFBMAwBWKCQDgCsUEAHCFYgIAuEIxAQBcoZgAAK5QTAAAVygmAIAr/wcNYgA6IGQj+QAAAABJRU5ErkJggg==;base64,iVBORw0KGgoAAAANSUhEUgAAAaYAAADECAYAAADUOoXmAAAAAXNSR0IArs4c6QAAAARnQU1BAACxjwv8YQUAAAAJcEhZcwAAEnQAABJ0Ad5mH3gAAB9YSURBVHhe7d13mFT1vQbw90yfne0FtrBLk6oC0kUR9VofzU0siAq2a7y51xh7wwKWJMY8ucaG3WiaJd6YaEyMooh0sCAiS0dZ2Aa77LJlZnfq/QM55n73nDPzzDA7v4X38zy/f97oOF9mdt9lc+Z8Nc3miIFIEZrNBjhcMv5OOIRYNCJTIiXFfz8HEYtGZXrE0wCwmIiISBk2GRAREWUSi4mIiJTCYiIiIqWwmIiISCksJiIiUgqLiYiIlMJiIiIipbCYiIhIKSwmIiJSCouJiIiUwmIiIiKlsJiIiEgpSd/E1ev1ompAuYx19Q170NbeLmOilNgdHmh2p4zTLhIKIBYNyzjt7A4vNLtDxmmXsXmdXmg2zptumZo3UUkX0wlTJ+Ofb74qY90Pr7sZr7/5loyJUlJYMQlZueY/EKVL8+5PEGivk3HaFQ2YDG9OmYzTrnn3GgTa62WcdkUDpsCbUyrjtGvatRpdHQ0yTruiyinwZmdi3lXo6miUsTKS/lWe3WZDts9nepzO3v8pgA5/ms0Gzebo9QNNk0+lV2jaETZvhl5fLVPzavaez6UXTqZe30QlXUxERETpwGIiIiKlsJiIiEgpLCYiIlIKi4mIiJSS9OXiFeVlmHXev8tYV1BQgKwsr4wBADu+/gYLnn9JxkRwuLKRXThExrqc6RfDXXWMjFM2KCuCiwYEZKz7/et/wfrqzTIGAIS729HR8rWME+Jw5yC7YLCMdTknXQp35WgZp2ywL4KZFebz/u61N/HVxi0yBgCEutvRmeS8TncOfBbz5s6YDdeAUTJO2RBfBBdazPvyK/+L6s3bZAwACHW3obPlGxknxOnOha9gkIx1uSdfBlfFCBmn7KjsMM4v75Kx7qU/voGNW7bLGAAQ6mpDZ2ty8x4qSRdTPL9/bgHmzLpAxgCAJStWYcbZP5AxETy+figZNF3GOs+sW+A4+ngZp2xaYRAvjG+Rse5Hdz2Pdxd/IWMAQFdHI/buXCbjhHiy+6Nk4Iky1nkuvg2O0VNknLLpRd149rhWGeuumfsc3vt4nYwBAF0dDdi7c7mME+LJLkXJwBNkrPNcegccIyfJOGUzirvx9Djzea++/RksXLZexgCAQHs9mmpWyDgh3pwyFFdNk7HOM/tOOEZMlHHKTinpxoKx5vNeeevTWLTiKxkDAALtdWiqWSnjXsVf5RERkVJYTEREpBQWExERKYXFRERESmExERGRUtJ2Vd4vH7gX3zv7TBkDAKo3bcbdDz4kY11dfSNXZhzG7A4vbCarHNx55SgaZfy+AQD32VfBPmycjAEAXnsMpZ6IjBMyPi+EB0e3yVg3/9dvYMmajTIGALQ212HDFx/KOCHuvAoUjTpDxjr3Of8B+9CxMgZSnHdifgj3jzKfd94jf8LSTzbJGADQ0lyH6mTnzR+AopGny1jnPveHsA85VsYAgCx7DP2TnHdSfgj3Wcx7969ex4rPjD8O0NJUi+p1i2ScEHdBJYpGnCZjnft718A+2PjjD6nMO6UgiHkjzb+Hzv3lq1i1dquMAQD79u7Cxi8Xy1gX7oWVGWkrJrfbBYfJN5+pkyfgrVd/K2Pd1T++iSszDmNFFZPgNVldYR9yLLxz7pGxTnM4AZvxX/SnFAbxlMUlslZsGuC2mX8pdAfDiESMv0ks+2QTrr79KRknxD50LLyz75KxzmreaYVBPJGBeZes2Yhr7nhaxgmxDzsO3kvulLHOat4Ti4J4bEy65g0hEonKGACweNUG/GjuszJOiGP4BHguvl3GOqt5Tyrqxq/H7JdxQuwa4Epy3g+Xr8e19zwvY11vrMww/hM5BLq7g+j0+w1PKBiCLyvL9DgcdvlwdDixWm1gd0JzuU2P2RcxANi//VtEMsfqmxYAuF0OZHndhsftdvWcI9GTwrw2LTPzejI0r13rOUeiJ/68zh5z6q+vKzPzpvL6WpUS4s0b5/U98PeZ9DL/UyEiIsoAFhMRESmFxUREREphMRERkVJYTEREpJSMFNP2b3bi5rnzTM+oEcPxyEP3G54fX/Mf8uGIiOgwkpFiqq2rx6+fes70DKqqxE3X/sjwzDzve/LhiIjoMJKRYiIiIjLDYiIiIqWwmIiISCksJiIiUgqLiYiIlJK2u4un4pcPzMO5ZxnfGn/Dps2Y97OHZayrrW9AW5v57d4p8/JLx8KT3V/GAADHwNHwzbxFxjottwia2ytjAMC4vBB+arG6worXHkOZxYqB+r2t6OzskjEAYM0XW3DLgy/IOCGOQUfDd+HNMtZZzTshzuoKK3Hn3dOKTr/xvKvWbsZtP31RxglxDjkWWeffKGOd1byTCoKYb7HKwUpWnBUh9Xta0OnvljEAYMVnG3HHz1+ScUKcQ8ci67zrZazT8oqhuTwyBgBMjrO6wkqWPYpSj/HdwwGgbk8L/CbzLvtkA+b+wnz7Q0vd5+j2N8n4kFKymFwuFxx24zuMT5syyXJlxlXX3oA//eVtGZNCNM0GaMZ3KPZk90fxkJNlrPNccD0co6fIGPj2bszx7qps5viCIBaMM1+p8JP5L+H9pV/KGADgb2tA7fYlMk6IJ6cUxYNnyFjnmXkjHCMnyRhIcd4T4qzMuG7eb7Bw2XoZAwA62+pRt32pjBPiySlD8eCTZKzzXHQzHCMmyBhIcd7pcVZm/Pc9L2DRig0yBgB07q9D3Y5lMk6IN7ccRYOmy1jnnXUL7MPHyxhIcd4ZcVZm/Ofc5/Hx6moZAwA69teifsdyGeti0Wjaa0PJX+UFg0H4AwHDEwqFkJXlNT0Oh/EOKFJHLBZFLBoxPpEwEOo2PzHznwKjMaAroiV1uqPGRXlQMBRGoCtoeLqDoZ5zJHrizRtNz7xB84cFAHRbzBtM57xpen3jzRsMms+bztc3lq55Y8m/n+O9vukuJahaTEREdORiMRERkVJYTEREpBQWExERKYXFRERESlHycnErFeVlmPn9c2Wse/eDj7B56zYZUx9hd2YhK7dcxrrcyefDXTFSxgAAW3E5nJPOlLHuvPIARmSHZQwACOypQ8PyD2Sse/vvf8fWbVtlDAAIh/wItNXJOCEOZxa8VvNOuQDu8hEyBgDYiivgnHSGjHXnlwcw3Gzexlo0rPhQxrq33nkH27Ybfx2Fg34E2tMzb97UmXCVDZMxAMBWUgnnxNNkrLugPIBhZvM21KJhpfm8f/3b29i+Y4eMgVTndfngzSmTsS5v6kVwlR0lYwCArV8lnBPM551ZEcBQn/G8/vpdaFz1kYx1b771Fr7+5msZAwDCwU4E2utl3Kv6XDHRka2ocgqycgfIGABgHzoG3ivmyVj36JhWnNHP+EOFS9ZsxJwbn5SxrmnXKgTaamWcdsWVU+HNrZAxAMA+bBy8l90jY93jY1pxmsm8i1dV4/KbF8hY17RrZdJlm4riquPhzTEuLvvw8fDOuUvGuifHtuLUEuN5F634Clfe+rSMdU01KzLyzbi4apppcTlGTIRn9p0y1j01rhUnFxvPu3DZelx9+zMy1u2tWY6u9gYZK4O/yiMiIqWwmIiISCksJiIiUgqLiYiIlMJiIiIipdgB3CdDIlW5s4phszsRjQR7HGTlwDnoGMT8bYZnnKsZ2d37sa+1o8fZtG0X3l20qsdjHjxd7fUIBzvl00k7t68Ims1kXl8unAOP7jHnwXOcqxk+k3mrt9bgnx9ZzNtWh3AoA/NmFZvOq2XnwTFwdI85/3XeLNN5d+K9j1b3eMyDJ9Beh0jIL59O2h2Y19Hj+ejzVo3qMefBM97VDK/JvBu27MT7i9f0eMzv5q3NyLyJ4uXi1KdYr8woRfEQ8xUSLlsMduN/Ne7qilgsCsR6/0vFct44KySs5o23ukLNectRPNh8hYTlvPvrUbejb80bb2WG9bzWqzp6Y3VFKlhMdNjwZPdDyUDzL2QrXR2N2LvT/AtZRZ7s/igZeKKME9LV0YC9O8137qjIk1OKkqoTZJyQQHsDmmr61rzenDIUV02TcUIC7fVoqlkh4z6D/x8TEREphcVERERKYTEREZFSWExERKQUFhMRESmFV+UdImeedTaGDzdeT6Cqf777D2zdukXGfVa8lRlWUlldkSnxVkhYSWWVQ6bEWyFh5cibN/OrK1LBYjpE5s9/AP922ukyVtp98+/FokXmO4iIiDKBv8ojIiKlsJiIiEgpLCYiIlIKi4mIiJTCYiIiIqUcdlflVZQ5kJdr3Led/hh27grJOCEejwelpeaXbl577XWYerzxDRcjkSi6/cn9d1Nhc9jg8TplrFvw5ONYvXqVjAEAga4AGhsaZJxxdqcXNpv5TOkSCfkRjYZlnHact3eEQ37EMjJvFmw2h4zTLlPzJuqwK6aXnizFrB/kyhgAsHSlH2fO3C3jhIwdOw6/+p9HZaxzOhyw2e0yBgDsb+7El6trZJx2+UVZOHbKQBnrQqEQotGojAEAa9d+jttvu1nGGVc0YBK8ORUyTrvm3Wsy8jmYogGT4c1J7rNKqWjevTojn4MpqpwCb7b5D4Dp0rx7FQLtvf+DWHHlVHiyS2Wcdk27VqKro1HGyjD+q0Uf5nJq8HqMj8tlsrwkAZrNBrfbbXrMSgk4sOYlGon2/ola/8zhdDp7zHHwOJ29/1NrQjQbNJu914/Zzpx00zhvr5wDP6NnQKbmzdDrm6jDrpiIiKhvYzEREZFSWExERKQUFhMRESmFxUREREo57C4X/+OzZbj0AuPLxRcv9+OU7++ScULGHTcejz++QMa6xl2taN/fJWMAQHdXCE31bTLWjYEDpZr5VX1WvoyF0ADjS77dXieKS43/LACgtDIf2XkeGQMAPvvsU9x0409knHYOVzayC4fKWJdz0iVwDzxGxikbnBXBxQP8Mtb99rW/4MsNm2UMAAgH29Gxb4eME+J058BXMETGutwZs+GqGi3jlA3xRTCrwnzel199E+urjVeihLvb0dGS7Ly58BUMlrEu9+Q5cFWOknHKhvoiuMhi3t/88c/YsGmrjAEA4e42dLR8LeOExJ33lMvgGjBSxikb5gvjwoqAjHUv/uENVG/eLmMAQKh7PzpbvpFxr2IxJSheMW38fDf21O6XcULO0zw4Gsl9yO4vsS5sQHIflBs9YQBKyvNkDGSwmDy+figZNF3GOs+sW+A4+ngZp2xaYRAvjG+Rse5Hdz2Pdxd/IWMAQFdHI/buXCbjhHiy+6Nk4Iky1nkuvg2O0VNknLLpRd149rhWGeuumfsc3vt4nYwBAF0dDdi7c7mME+LJLkXJwBNkrPNcegccIyfJOGUzirvx9Djzea++/RksXLZexgCAQHs9mmpWyDgh3pwyFFcZf/AeADyz74RjxEQZp+yUkm4sGGs+75W3Po1FK76SMQAg0F6HppqVMu5V/FUeEREphcVERERKYTEREZFSWExERKQUFhMRESnlsLsq7+H5JTjndJ+MAQCfrO3CVT9J7g7CqVyV54SGfIubRE7qimBAyPhlcHldyC8rkrHug7Y2bO/uljEAIIgY9lu8vJm6Ks9qtYE7vxxFo8+Ssc591hWwHzVOxgCALHsM5Z6IjBNyXH4I948yv6T//sf+F0vXbJIxAKCluQ7rP/9Axglx51egaPSZMta5z74K9qFjZAykOO+E/BDmW8w7/9dvYPmnxpfH72uuxVeffyjjhLgLBqBo1Bky1rnPuRr2wcYfB/DZYyhLct6JBUHMG9kuY929//MnrPzc+PL45qbd2LB2kYwT4imsROHI02Wsc5/zQ9gHHy1jIMV5JxcGcc8I83nv/tVrWL12m4wBAM17d2HDFx/JWNcbKzMOu2JyOjXYTf4eGI0BwWBy46ZSTFWw41LNK2PdW5+uQXWt8TqOQeOH4bInfixjXeTtjYht2itjAMBORPBqzPyzDJkqpqIBk+HNNV7lYB98LLIuv1fG37HbAc34BZ5aGLS8JNiKDTE4jR8WABAKR0xXhCxdswlX3Wb+3rDiGDoW3jl3y/g7FvNOKwxiQQbm/Xh1Na6+/WkZJ8Rx1HHwzp4r4+9YzDu9qBuPjzX+GosnlXk/WrEB18x9RsYJcQyfAO8ld8j4OxbznlTcjcfG9P68Hyxbj/+6+zkZ65pq0r8yw+Kp902hUAxd3cYn2VJKlQbAYXGi0SjCkYjhiSAKOGymx27TejzewZPcR3Z7gaZB0+zGx+4AHE7zY/JFjG/fzG5bLKlj9UUMAE6HHW6X0/A4nY6ecyR4YEthXi0z87qczh5zJHqQyuuboXlTeX21VF5fRd/PvbEiJM7TJyIi6l0sJiIiUgqLiYiIlMJiIiIipbCYiIhIKSwmxTXX7ME/fvWG6anflNzd0omIVMViUlxbYytWv7bY9DTX7JH/ChFRn8ZiIiIipbCYiIhIKSwmIiJSCouJiIiUwmIiIiKlqHl38TIXkJvkLUjrg0BbcreKt5LK3cXLYcf3NLeMdavWr0dNY3J365167DGo6l8qYwBALSJ4J2a8EgMZvLt4fukYeLL7yxgA4KgaBd/MW2Ss03KLoXmyZAwAGJdnvbrCSpY9hgqv+fumrrEF7Z3Gd2r/5IstuO1nL8o4IY6BR8N34U0y1ml5xdDcxvOOzw9h/sjk5vU5rFdm1DbuQ0dnl4wBAKvXbsYdP/+NjBPiGHwsfOffIGOdllcCzW18J/6J+UHca7G6wkrceRv2ocNvPO/KzzZi7i9elnFCHEPGwnee+deR1byTCqxXV1iJN+/uhn3oNJl3+SfVuPuXv5WxrqVuLbr9TTI+pNQspkeGAN8vlGlibtoBvL1PpilLpZi0OHf6PjfmwsiY1T9h7h0tiE2a8RswBsD4fzkgU8WkaTbTOxS7s/uhZMgMGes8F94Ix+gpMga+vfu0U0vu7RxvZcZ1836D95Z8KWMAgL+9AfXbl8o4IZ6c/igefJKMdZ6LboZj5CQZAynOe0JREE+ONZ/32ntfxMKl62UMAPC316N++zIZJ8STW4riQdNlrPPMuhWOERNkDKQ474lFQTxhMe9/3f0CPlz+lYwBAP62OtTvWC7jhHhyy1A86EQZ6zwX3wbH8PEyBlKcd0ZxNx61WJlxzZ3PYfGqahkDADr316Lh6xUy1sVi0bTXhpq/ynNqgNuW3LEZf8PLpBiAsMXRbDY47PakTkzTejzewWNVSpkUi0URi0UMD6IRIBwyPzHjHTL4dt9Wd1RL6oSi1u+bUDiC7mDI8IRC4R5zJHzizWuyMwcpzysf7f9L27yROPOm6fUNx/k+GgqFe8x58ARTmDdj7+dYCu/nsPW86S4lKFtMRER0xGIxERGRUlhMRESkFBYTEREphcVERERKyczl4gPdwNXGn70BgMtP9WLCUU4ZH+APATtbZKr73U/347MPja/PT0W8y8X37elAoNP4M0OBziBqvza/hH0o7ChM8meE7YhgH4yv7PH6XKgYbH7ZfWG/HHh9LhkDab5c3Ird6YU3p0LGurzJ58FdMVLGAABbcTmck8+Sse788gBG5oRlDADwN9ahdulCGev+9o+/Y+u2bTIGAERCfgTa62ScELszC96cchnr8qacD3f5CBkDAGwlFXBOOlPGugvKAxhhMm9nQy3qln0gY93bf38H27ZvlzEAIBLqRKC9XsYJcTiz4LGad+oFcJcNlzEAwNavEs6Jp8tYd2FFAMOzTeat34265R/KWPfWO3/D9h07ZAykOq/LB092mYx1+cdfCFfpMBkDCcx7UUUAR5nNW7cLdSsWyVj317+9hR1ffyNjIMV5D5XMFNOUHODPo2Sq+4PTj9n2kIwP2OcHVpvvIJr9FPDKSpmmLl4xWWlt6sS6lcZvgnTKL/Zh7PGDZJyQTBVTPEWVU5CVO0DGAAD70DHwXjFPxrpHx7TijH7GPzwsWbMRc258Usa6pl2rEGirlXHaFVdOhTfXuKjtw8bBe9k9MtY9PqYVp5nMu3hVNS6/2fz93LRrJQJtyZVtKoqrjjctavvw8fDOuUvGuifHtuLUEuN5F634Clfe+rSMdU01KzLyzbi4ahq8OcbF5RgxEZ7Zd8pY99S4VpxcbDzvwmXrcfXtz8hYt7dmObraG2SsjOR+TCciIkoTFhMRESmFxUREREphMRERkVJYTEREpJT0XZVnsbrCNyYLgx81v1rsF+EOnBM1vtoEe8PAh+Z3zZ39WhdeWWdyRV8KRo4chblzza+AKunXD9nZ2TIGALS3BrD5i96/oiunwIsRY42v6AKAPXsa0dnRKWMAQHX1Bjz88M9lnHGWKzMGjobvwptlrLtjWAemFRm/rz5dtxW3/vQFGetaG9ahq2OPjNMuv3QsPNn9ZAwAcAw6Br4LbpSxbu7wdkwtDMoYSGB1RWv9OnR19v68BWXj4PaVyBgA4Bg8Br7zr5ex7q4R7ZhSYDzvqs834c6HXpKxrqX+C3R37pVx2lnOG2dlxj0j2jHJZN4Vn1bjroczu7oiFekrpkeGAD8okikA4ER7GB/4/DLWOb9sgK3eZM/MpkLgoaky1c2OrsUr0UN/maumaXA4HDLW3X3PfJx66r/JGAAQiwGxWHr+mK1oADSLu60/+OB9WPyR8WcdYrEYwmHjz0hk0oGVGcbc2f0tV2Y4tJjprwgC7Y2o37FExroDr18GXkOLeT05pZYrM6zm9bc3oGGH+aoONectQ/Fg85UZ1vPWo2GH+aoOJefNLbdcmWE5b1sdGr42X9WRqXkTZTZX6hwa4DI+NqcGN2B6bLHYgXu+Gx4AYZv5ibO+IFmxWAyhUMj0xCzWE2gaYLNpvX6sSgkAIuFIjzkOHhVLCTi4MsP4IGa9YiAcCiNocg7c6r/nY+qPnaEvYvk8/t+Js1LBat5wX5w3ldc3FDF4PLXnjbcyw3LesJrzJip9xURERJQEFhMRESmFxUREREphMRERkVJYTEREpJT0XS7++FDgfOPLxU+yhfGxy/jzMwCAdfVAndnl4kXAz6bJVDcbn+MV9P5nhiZPnoLKyioZK2316lXYvdv8Tu19zYEVEsZ3ao4nEgokvboiU1Kb15+Ru2mn4sDKjCNoXpcPnmzz9UBW+uK8/4rFRERESuGv8oiISCksJiIiUgqLiYiIlMJiIiIipbCYiIhIKem7Ku/OAcBp+TIFAEzwAS8dZX7T08otjcjf2yHjA7blAo+NlqludvNGvOLv/dv1ExHRoZG+YrJrpn8f0ybnwPn6SBnrXnb4cYnNeM8I9gWAleaXg89+NoZXVqVnJCIiSj+T6jgEIjEgZHxi4RiCgOmJagBsmskB4IiaH42lRETUl6WvmIiIiJLAYiIiIqWwmIiISCksJiIiUgqLiYiIlJK+y8Wt9HcBZxfIVHf6rHyMGOeV8QHdYaChXaa69+c1Ycv7FncuJyIipWWmmOJ5YihwnvHKjLiu2w78tVmmRETUR/BXeUREpBQWExERKYXFRERESmExERGRUlhMRESkFDWvyptbCZyaJ9PEPLQbWNQqUyIi6iPULCaLlRlxRWKA+aonIiJSnJrFRERER6xk/15CRESUFiwmIiJSCouJiIiUwmIiIiKlsJiIiEgpLCYiIlIKi4mIiJTCYiIiIqWwmIiISCksJiIiUgqLiYiIlMJiIiIipWTkJq42jw/O/kNlrAs31SDSmdzqCmdxFWy+fBkDAGJdHQg27pBxQjL1nKNdHQgl+ZyJiPqijBRT1qjpqLr/Qxnr6h6/Am3LXpVxQsqv/x1yT7xYxgAA/4YlqLn/NBknJGv0DFTdt1DGurrHLkPb8tdlnJDyG/6A3BMukjEAwP/VYtQ8cIaMiYgOW5n5VZ6mQbM7zY+W/NPSbPaej6cfu/zHExfnOSNNzxm2FJ4zEVEflPx3UyIiojRgMRERkVJYTEREpBQWExERKYXFRERESknb5eJ5J18B77BJMgYARLv9CO3ZKWNd55cLEazbImMAgKtsGArPvUHGulBzLaL+NhkDAML7atG+5q8y1uWdciW8R02UMZDIc173PoL1W2UMAHCVD0fhOdfLWGf9nHejfc1bMiYiOmylrZjKb/g98k6aI2MAgL96CXbeO0PGCck6egYGPrBYxrraR2ejbekrMk5IxY1/RO70S2UMAPBvWIyd806RcUKyjjkFA+9fJGNd7SOXoG35azImIjoi8Vd5RESkFBYTEREphcVERERKYTEREZFSWExERKSUtF2VV3Lpz5A94RwZAwCCdZvR/Oefy1gX2luDSGeLjAEAnqETUHbtizLWtb73DAJbVsoY+HaFRLBhu4x1/eY8BN9xZ8sYABCs3YTmNx+SsS60d6fp2gvPUZNQ9t/Py1jX8s+n0LV1tYyBBJ4zEdHhJm3FBJsdmqbJFADgHXkiquZbrJB44nK0LTVZe6Fp0CzuuF123cvIPWGWjAEA/uqPUXOfxdoLi+ecNfokVN77nox1dY/NMV97Eec5l1//O+QcP1PGAAD/Vx9x7QURHVHS96u8aASxSNjwIBaFZneYH6unFYv1eLx/PZqm9Xy8g8eiHADr5xyLWj9ny7UXcZ4zYP6cufaCiI40Ft9NiYiIeh+LiYiIlMJiIiIipbCYiIhIKSwmIiJSSvouF7fgKChHzpQfyFjXue4DBOuN117E4xtzGlzlw2UM6Gsvklsh4SgsR85kq+e80HTtRTy+safDVTZMxgCAcPNutH/ytoyJiA5bGSkmIiIiM/xVHhERKYXFRERESmExERGRUlhMRESkFBYTEREphcVERERKYTEREZFS/g8antSqiihzSQAAAABJRU5ErkJggg==;base64,iVBORw0KGgoAAAANSUhEUgAAAagAAADFCAYAAAABr2bwAAAAAXNSR0IArs4c6QAAAARnQU1BAACxjwv8YQUAAAAJcEhZcwAAEnQAABJ0Ad5mH3gAAA0MSURBVHhe7d17bN11Gcfxzznter/RsrVdS3cFBpO7ZiuyWwTGpnEjRJEx4R8VEzUKGOMlEESNiX8oURcVNEYRMF7wgoxLkLVjc6JzggMmbO3W9bZLx7re1vVyjn/gfsrDuXQ9p9tzzt6v5PvPp2l3trb5LN88v/OEFApFBZxhIYWkcNjG/xOJKCp+VDMV319MRkjipwIA4E+C/9IAAHDmUFAAAJcoKACASxQUAMAlCgoA4BIFBQBwiYICALhEQQEAXKKgAAAuUVAAAJcoKACASxQUAMClU36z2OLiIp0/d46NA23tnTra22tjICW504oUysmz8ZQbHx1UZHzUxgBOg1MuqGsaF6npycdtHLj9k5/RI7+K/3FgMqrqF6morM7GU66n40Ud7+u0MYDT4JSv+EKScnJy4p5QKGQ/BUhdSFIodPoPgDPmlAsKAIDTgYICALhEQQEAXKKgAAAuUVAAAJdOecy8tqZaN35glY0D9TNnqry8zMaSpD2te/WdDT+yMaBp+aUqqZxv40DpsnXKm3WJjVM2t3hMt543ZOPATx99XC+/8rqNJUmjJ/o08GaLjQGkySkXVDIPP7hB62++ycaSpM1/+auWrVprY0AFxTM0ffYSGwcKbr5buQsbbZyyqytH9OMrj9o4cMeXH9JTTS/ZWJI0PHBQh9u22BhAmnDFBwBwiYICALhEQQEAXKKgAAAuUVAAAJfSPsX3jXu+pNUr32djSdIbu1v0zW9/18aBtvYOHe09ZmNkiUQrM/IrZqpqYfzHF/JX3qaceZfaWJJUnBPVeUXjNp6Qy8tHde+CPhsHvv69x7Vle+wx8zd7OvXS9udsHGBVB5CatBdUOByO+47m1zQu0p//+GsbB26749N69Ne/szGyRKKVGTnzLlHhbffa+H8SvLt4Y+WIHrwi/qh4IiFJ4dhfVpIUiUQVjfMrsvnFXbr9rg02DrCqA0hN2q/4IpGIxsfHY55oJPKO9Rys6jiLJFyZEZbCCU6Cn42QpJzQ5E6icpKkcDiknHA45gmffF3xDoCUpL2gAABIBwoKAOASBQUAcImCAgC4REEBAFxK+5h5IrU11Vr7/htsHDivvk4V5eU2liTtbmllVUeGqzpvkYrK6m0sScqZd6kKb08wZp5AsncknyrNL+7SR+/8vo0DPe1/ZcwcSMFpLahkfvHQBt364dirOpq3btPy1TfaGBmEggJwKrjiAwC4REEBAFyioAAALlFQAACXKCgAgEuupvi+ce+XtOq62Ks6Xt+9R996IP7E1L79HTra22tjOFJRfYnyS2bYWJKU23CRSm66y8aB0DkzFCootrEk6bIkKzMSKc6JqiHBqo72riPqGxiysSTp7y/v1he/+RMbB44d2KnhwUM2BjBBrgoqFArFfUfzpVcv1p+f+I2NA+s//ik99htWdfgX+/tbUDJD02cvsXGg4MN3KXdho40Dk70KuLoq8aqOT37lx3q6+SUbS5KO9x/UoX1bbPx/3PxqARlpsr/XUyIajSoSicQ80WhU4f+uOIh14hUbvInGPtEkJ4nIZE+SL/3Wz2TsE43G+Hu87QBIhauCAgDgJAoKAOASBQUAcImCAgC4REEBAFxyNWaeSG1NtdasXmnjwHNNL2hP614bI0PkTCtUYUmtjQPl71mj/JkLbCxJCk+v07TF77dx4EN1x3Vx6aiNJUn9B7rU+vzTNg5sfGajWlpabCxJGh8b0vH+AzYGkCYZU1A4u6WyquOBS3t1/YwTNpYkbf7bLq3/XPwHwFmZAZw5XPEBAFyioAAALlFQAACXKCgAgEsUFADAJab4kBGSr+q408aBu+cPqLFyxMaSpO3/YmUG4BUFhYxXUFKt6bPir+pI9Eb3wwMHdWjfCzYG4ABXfMgCds3F2080mvgA8ImCAgC4REEBAFyioAAALlFQAACXKCgAgEuMmU+hstISLbxwno3TYndrm3re7LXxWemtVR01Np6QsbHjGmZlBuASBTWFamacq5Ur3mvjtNi8bbv27mcNBIDsxRUfAMAlCgoA4BIFBQBwiYICALhEQQEAXMqaKb7ZDdNUWZFjY0lS/2BEu1tir1tIVUlxkfLzptlYklRTXa2V1y63cVo0b9mmfW37bSxJGh0bU1//oI0BIKNkTUE98sNa3XJTmY0lSc1bh7RibbuN02Jp41Wa01BvY0lSbV2DVq29xcZp0fTsH9W6e5eNJUndBw/r2aa/2BgAMkr2XPGF3tr7E+sowT6g1CX+4qFQaEpOQsk+DgAZIHsKCgCQVSgoAIBLFBQAwCUKCgDgEgUFAHApe8bMf1SrdXHGzJu2DmnFmsmNmSdbmbFsxbWaO2++jSVJRUUlapgT+2OS9PprL6vnYLeNJUnl51TpXZe/x8aBrvZ96uuLvW6ju6tTT298wsaBN1rbdIRVHQCco6CSSLYyY/n1H9S8Cy628YRseuYPcZ9lqq2fpdWTfIaqq6NNT/3+MRsHmrdt1z5WdQBwjis+AIBLFBQAwCUKCgDgEgUFAHCJggIAuJQj6T4bZqIrLytQcVFY3QfH3nFe2XVCf3pmcusnSoqLNH9Og40Ds+ddqMqq6TaWJI2OjujokcMaGhyIefb0DOjweL5GCyvfcaaVVqqmvPgdn3Py5OTmKjc31/6RkqT+vmPa8+9XbBxo6+hS77F+GwOAK1kzZj5VUhkz7+5o08YE494ti+/WkYYlNpYklR3aqQVN99g4sGLlGs09/yIbS4yZA8gSXPEBAFyioAAALlFQAACXKCgAgEsUFADAJQoKAOASY+ZJpDJmPjQ4oPZ9e2wc+FtPVB2Dsf/5pxeEtKQ6ZONAbf1slZVX2FhizBxAlqCgkkiloJJh3QYAxMcVHwDAJQoKAOASBQUAcImCAgC4REEBAFxiii+JqnMq1Pjuy2wcWH7tKs2df6GNJUnT8vJUXlFp48D2bc3qbN9rY0nSuTNq9d7lK20c6O/r1YnhYRtLkro72/XUE7+1cWDHztfUdeCwjQHAFQoqRUsb3605DXU2liTV1jVo9Y3rbJwWiUbUuw/16NlNW20MABmFKz4AgEsUFADAJQoKAOASBQUAcImCAgC4REEBAFxizDxFNTPOVWlJsY0lSbU1NbphZfxnmVLRvHmzWvfGfobq+PFhdXQftDEAZBQKagolW9WRis3btmsvKzMAZDGu+AAALlFQAACXKCgAgEsUFADAJQoKAOBSxkzxlSpXC1Ri40CrhnREIzY+o6oqK7T4qvirOlLxz5271HXgkI0BIGtkTEEtU5WadLWNA7dqhx4VY9cAkC244gMAuERBAQBcoqAAAC5RUAAAlygoAIBLFBQAwCUKCgDgEgUFAHCJggIAuERBAQBcoqAAAC5RUAAAlygoAIBLGfNu5leqXD/UpTYO3KN/6xkdtjEAIENlTEEBAM4uXPEBAFyioAAALlFQAACXKCgAgEsUFADAJQoKAOASBQUAcImCAgC4REEBAFyioAAALlFQAACXKCgAgEsUFADAJQoKAOASBQUAcImCAgC4REEBAFyioAAALlFQAACXKCgAgEsUFADAJQoKAOASBQUAcImCAgC4REEBAFyioAAALlFQAACXKCgAgEshSVEbTpVwYany6y+2cWDkwB6N9x+x8YTk1cxXTmmVjSVJkeN9OtGxy8YTEi4sU379RTYOeHzNAJANTmtBFV28VLO+1mzjQNcD63XshUdsPCF1n3tEZUvW2ViSNPRqk9ruXWHjCSlauFyz7t9k40Dnd9apb8tjNp6QujsfU9k1H7GxJGlw5/Paf9/7bAwAZw2u+AAALlFQAACXKCgAgEsUFADAJQoKAOASBQUAcCntY+YV135MhRcstrF08tme/a/aODD0apNGDrTYWJKUN/MCVa39go0DI927Nd7XY2NJ0tjRbg3s2GjjQMV1H1fh+YtsLEmKDPXpRHuC1/zKJo0cbLWxJCmvboGq1nzexoGRrjfiPkM1drRLAzuesjEAnDXSXlAzP/uwypeut7Ekaei1zWq7Z5mNJ6Ro4TLNur/JxoHOB25V3wuP2nhCpuwZqnet0KyvPm/jQOe3b1Hf1l/aGADAFR8AwCsKCgDgEgUFAHCJggIAuERBAQBcSvsU3/Sb71PxFTfYWJI0eqBFbz75XRsHEq2uKJhzhWru+IGNA8eafq7hln/YWJrA6orpH7lfxZdfb2NJ0kj3Hh3d+D0bBxK+5rlXqeYTG2wcOLbpZxpu3WFjaQKvGQCyXdoLKhHWbbwd6zYAID6u+AAALlFQAACXKCgAgEsUFADAJQoKAOASBQUAcOm0jpnnVtSo5MrVNg4MvdYcd91GMkULlymvep6NJUljvd2TXl2Re06NSq6I/5oHX23SaJx1G8kULVyuvOq5NpZOrtv459M2BoCzxmktKAAAJoorPgCASxQUAMAlCgoA4BIFBQBwiYICALhEQQEAXKKgAAAuUVAAAJf+A0mb/yOjV3dZAAAAAElFTkSuQmCC;base64,iVBORw0KGgoAAAANSUhEUgAAAaoAAADFCAYAAAAFWrbNAAAAAXNSR0IArs4c6QAAAARnQU1BAACxjwv8YQUAAAAJcEhZcwAAEnQAABJ0Ad5mH3gAACLdSURBVHhe7d13lFT13T/w9507dWcbO7uULVSRplQpIsXkmFjyy3liRQVRoz76S3vsiN3ExDw5/pJoxF6SmFhiNDGJFUWQjlFEpAgCUrbJLizbZqf//kAv5rP33rnO9e5c8P065/vP+xzHfTOz84E5d+5HAZABERGRS3lkQERE5CYcVERE5GocVERE5GocVERE5GqKExdTnH/2GRg/drSMbdu+4xPc/+jvZUxEREcwRwbVkw8vwJxZZ8rYtiXLV+LE006XMRERHcH40R8REbkaBxUREbkaBxUREbkaBxUREbkaBxUREblaTlf9hUIh9K+ulLHmqh9egROnTZWxbR9u2oybfvoLGWvqGxrR2tYuYzpCqN4gFNUnY8elElFk0kkZO071hqCoXhk7Lm99fSEoHvZ1Wr762pHToDphyiS8+sLTMtb86Nr5eP7Fl2Rs2/GTjsMLf35cxprv//AqPPe3f8iYjhBlVRNRUGz8FySnNO95B9G2Ohk7LlI9CaGifjJ2XPOeNYi21cvYcZHqyQgV9ZWx45p2r0ZXe4OMHRepmYxQYT76rkJXe6OMXS2nj/5UjweF4bDhSaVSaO/o+MpPPB7v9v/64vF5e/5vJ9RzFI8Hisfb4weKIn+UHqEoX7O+eXp+lXz1VdTuP0sPnHw9v3bkNKiIiIh6CgcVERG5GgcVERG5GgcVERG5GgcVERG5Wk6Xp8+YOgVLXvm7jDUX/PcP8adnn5exbTNPOB6LX/6bjDWzL/0BnnruBRnTYcLrL0Rh2WAZa4qmn4tA/2NkbNvAghTOqY7KWPPks3/D+o0fyRgAkIy1oX3/Dhlb4g0UobDXIBlrimacj0DNSBnbNiicwtlVxn3/+MwL+HDTFhkDABKxNnTk2NcXKELYpG/xzNnwV4+QsW2DwymcZdL390/9FRs/+ljGAIBErBUd+z+RsSW+QDHCvQbKWFN84gXwVw2TsW1HFSZxRmWXjDVP/Pk5bNqyTcYAgERXKzpacuvrJA4qco1guDcqBk6XsSY46xp4Rx0vY9umlsXx6Pj9MtZcfuMjeGXx+zIGAHS1N2LvzmUytiRY2AcVA6bJWBM89zp4R06WsW3TIzE8NK5FxprL5j+M15askzEAoKu9AXt3LpexJcHCvqgYcIKMNcHz58E7fKKMbZtZHsMDY437XnL9g1i4bL2MAQDRtno07VohY0tCRf1Q3t/4xgfB2TfAO+w4Gdv2jYoYFowx7nvRtQ9g0YoPZQwAiLbVoWnXShnnHT/6IyIiV+OgIiIiV+OgIiIiV+OgIiIiV+OgIiIiV+NVf9SjVG8IHoPVFYGSSkRGnCxjTeDUi6EOHStjAEBIzaBvMCVjS8aXJPCzka0y1tz2m+fw9ppNMgYAtDTXYcP7b8rYkkBJFSIjvi1jTeA734c6ZIyMAZt9jytN4I4Rxn1v/fVfsPSdzTIGAOxvrsPGXPuWViMy/Fsy1gT+z6VQBx8rYwBAgZpBnxz7TixN4HaTvjfd/SxWvKv/9YP9TbXYuG6RjC0J9KpBZNhJMtYEvnsZ1EH6X7ew03dyrzhuHd4mY838Xz2NVWu3yhgAsG/vbmz6YLGMNck8rQjhoKIeFamaiJDBqg518LEIzblZxhrF6wM8+h8CTC6L436TS3LNeBQg4DH+NYjFk0il9N80lr2zGZdcf7+MLVGHjEFo9o0y1pj1nVoWx+/y0PftNZtw2bwHZGyJOnQcQufdIGONWd9pkTjuGe1U3wRSqbSMAQCLV23A5fMfkrEl3qMnIHju9TLWmPWdEYnhN6MPyNgSVQH8OfZ9c/l6/ODmR2SsydeKEP0/JSKnmK1yUH1Q/AHDY/RLDQDqZ//KyOWYvYkBQMDvRUEooHsCAX/3HlaPjb4eJT99g3nqqyrde1g92fv6uvXUnl9/fvraeX7NhhSy9c3y/B78t03PM/6TIiIicgEOKiIicjUOKiIicjUOKiIicjUOKiIicrWcLk+vquyHc773XRlrImVlKAiHZGxbLBbHp5/ulbHmlYWLsHmr/u36yR0iNZNRUFwtYwCAOmQ0QhfeKmNLst0B3SlLVm/CBVfdJ2NL1KPGIjTX+HJ8M9MicTw8ruf7Ll61EXOvXiBjS9SjxyM0x/hyfDPZ7oDulDeXf4iLr8vtcnzvsOMQnG18Ob6ZE8tjuD8PfV9f+gEunWd8Of7encvR1d4gY8flNKiyefLhBZgz60wZ27Zk+UqceNrpMqbDCAfVIRxU1nFQ9Qy3Dip+9EdERK7GQUVERK7GQUVERK7GQUVERK7GQUVERK7myFV///vTW/DdU4zXF+TqnbXv48LLfyxjOoyU9h2DYGEfGQMAvANGInz2NTLWKMURKAH9rz2MLUngTpNVHWZCagb9TFYq1O9tQUdHl4wBAGve34JrfvaojC3xDhyF8FlXy1hj1ndCllUdZrL2/bQFHZ36fVet/QjX3fmYjC3xDT4WBWdcKWONWd+JveK4zWR1hZmCLCtR6j/dj47OmIwBACve3YR5v3hCxpb4hoxBwek/kbFGKSmH4g/KGAAwKcuqDjMFahp9g/p3RweAuk/3o9Og77J3NmD+L/8gY83+uvcQ62ySseMcGVR+vx9eVZWxbel0Gl0x/T9gOjwoigdQ9O/AHCzsg/LBJ8pYEzzzJ/COnCxj4LO7TWe7a7SR43vFscDkUuAf3/YEXl/6gYwBAJ2tDajd9raMLQkW9UX5oJky1gTPvhLe4RNlDNjse0KWFSE/uvVxLFy2XsYAgI7WetRtWypjS4JF/VA+aIaMNcFzroZ32AQZAzb7Ts+yIuT/3vwoFq3YIGMAQMeBOtRtXyZjS0LFlYgMnC5jTWjWNVCPHi9jwGbfmVlWhPz3/EewZPVGGQMA2g/Uon77chlrMum0EyMjK0c++ovH4+iMRr/ywyF1+Mtk0sikU/onlQQSMeOTMf5bYjoDdKWUnE4srT84PxdPJBHtiuueWDzRvYfVk61v2pm+ceOHBQDETPrGnezr0PObrW88btzXyec341TfTO6v52zPbz6GFJwaVERERF8VDioiInI1DioiInI1DioiInI1DioiInK1nC5PH4IC/AiDZKz5M2rxbxhfDkqkR/UVoKC4Usaa4klnIFA1XMYAAE95JXwTT5ax5vTKKIYVJmUMAIh+WoeG5W/IWPOPl17C1o+3yhgAkEx0ItpaJ2NLvL4ChMz6Tj4TgcphMgYAeMqr4Jto/F3FMyqjONqob2MtGla8KWPNi//6Fz7epr8uJxnvRLTNmb4lU86Gv99QGQMAPBU18B13kow1Z1ZGMdSob0MtGlYa9/37P/+Bbdu3yxiw29cfRqion4w1JVPOgb/fUTIGAHh618A3wbjv2VVRDAnr9+2s343GVW/JWPPCiy9ixyc7ZAwASMY7EG2rl3He5TSoZiCCJZgqY80FWIs/YY+MiWyxsyLkt6Nb8O3e+l9veHvNJsy50nhVR9PuVYi21srYceU1UxAqrpIxAEAdOhahC4xXhNw7ugUnGfTNtqqjaffKnIevHeX9j0eoSH+QZVsRct+YFnyzQr/vohUf4qJrjVd1NO1akZc35/L+Uw0HWbYVIfePbcGJ5fp9Fy5bj0uuf1DGmr27lqOrredXddjBj/6IiMjVOKiIiMjVOKiIiMjVOKiIiMjVOKiIiMjVVAC3yzCbASjAxaiRsWZ1rwbsK2tFRRG+9EkkgZj+VZf0NRcoKIdH9SGdinc7KCiCb+AxyHS26p6x/mYUxg5gX0t7t7P54914ZdGqbo/5+elqq0cy3iF/HMcFwhEoHoO+4WL4Bozq1vPzM87fjLBB341bd+HVt0z6ttYhmchD34Jyw75KYQm8A0Z26/nFvgWGfXfitbdWd3vMz0+0rQ6pRKf8cRx3sK+328+j9e0/olvPz894fzNCBn03bNmJ1xev6faYh/rW5qWvHY5cnh6/dC2Sx+d2efr3HwGeXSVTomwrQvqifLDxygy/JwNV/z/Nuqojk0kDmS/9a2Kbad8sKzPM+mZb1eHOvpUoH2S8MsO074F61G0/vPpmWxFi3td8NUm+VnXY4chHf34vUODP7Xgd+YnoSGC6IiSd6LZG4YsnHuu+0sDqKod8vIkhW99U7n2zrnJwY9+v3fNrviLEVt/DbEjBqUFFRET0VeGgIiIiV+OgIiIiV+OgIiIiV+OgIiIiV3Pk8nRcsRY4IbfL019tKsbmzqCMLXnyL614b12XjB1XMnMugoPHydjVDiz+I7p2rJXxYSvbihAzdlZ15Eu2lRlm7KyuyJdsKzPMfP36unNVhx2uG1QY0w+oLJapJbMvr8dTz7fK2HFVVz2F4mnnydjVan99LlqXPytjIiLX4Ud/RETkahxURETkahxURETkahxURETkahxURETkakfUVX/X374XLy1slzEAoKMzg527EzK2xBMogK9ioIw1x869En3HnSBjSxqVarQrufXtk9mDwkxuVzl+8MffoHHtChkDANKxDiT27pRx3qm+EDwen4wdl0p0Ip3u+d0z7NszkolOZPLStwAej1fGjstXXzuOqEEVT2SQSsn0oKUrO3Hy2bn9TAUjZ6D/La/KWHNX6jKcknlBxpbMD/wBr6lny9iSu+IX4uTkczK2ZJ76KF5XTpcxAKDjw8XY/fPTZJx3keqJCBVVydhxzXvW5OV7OJHqSQgV5fZdKTua96zOy/dwIjWTESrM7btDdjTvWYVoW4OMHVdeMwXBwr4ydlzT7pXoam+UsasdUR/9+X0KQkH94/cbLG+xQvFA8YcMj9+TRhDRnI6aMZisFvgy8W6PZ/V4vWq3Htrx+eX/yh0UDxSP2uPHaGeQ0xT27ZFz8O/reZCvvnl6fu04ogYVEREdeTioiIjI1TioiIjI1TioiIjI1TioiIjI1Y6oy9PNLF7eiW/8124ZW1Iw6kQM+OlbMtbcHTsfp6WelrElf6q9AO8fGCtjS+ZUP4mxxe/L2JJrAs/gFXWWjAEAHevfxK7bT5Kx47z+QhSWDZGxpmjGeQgMOEbGtg0qSOHc6k4Za/7wzN/wwYaPZAwASMbb0L5vu4wt8QWKEO41WMaa4pmz4e8/Usa2DQ6nMKvKuO/vn34B6zdukTEAIBlrQ/v+XPsWI9xrkIw1xSfOgb9mhIxtGxJO4RyTvo//+Xls2LxVxgCAZKwV7ft3yNiSrH2/cQH81cNlbNvQcBJnVUVlrHnsT89h40fbZAwASMQOoGP/JzLOOw4qC5wcVKvfGYLdeyIytmTyxG2oqW6WsSVuHFTBcG9UDJwuY01w1jXwjjpexrZNLYvj0fH7Zay5/MZH8Mpi/b8QdLU3Yu/OZTK2JFjYBxUDpslYEzz3OnhHTpaxbdMjMTw0rkXGmsvmP4zXlqyTMQCgq70Be3cul7ElwcK+qBhg/MX44Pnz4B0+Uca2zSyP4YGxxn0vuf5BLFy2XsYAgGhbPZp26X8xPptQUT+U9zd+nwzOvgHeYcfJ2LZvVMSwYIxx34uufQCLVnwoYwBAtK0OTbtWyjjv+NEfERG5GgcVERG5GgcVERG5GgcVERG5GgcVERG5Wk5X/U1AKf4Ak0uqZ20CxuV4d95hFUBFWKa2vbO2Cxf/OLc7JGe76u/a+PWYkX5ZxgAAXzKKXu3Gd6Leuq0vmvcVytiSoUMaECnTX2sS94bQYnIn6l/57sYy9RQZAw5f9We2yiFQWonISP2fCQACp1wI9Sj9112BmkFlMLcb/I4rTeCOEcbrUu64569YumazjAEA+5vrsP69N2RsSaC0CpGRJ8tYEzj1YqhDRssYsNl3QmkCt5n0ve03z2H5v/Uvx9/XXIsP33tTxpYEelUjMuLbMtYEvnMJ1EH6Xz8Iqxn0y7Hvcb3iuHV4m4w1t/y/v2Dle/qX4zc37cGGtYtkbEmwrAZlw78lY03gO5dCHTRKxoDNvpPK4rh5mHHfm+5+BqvXfixjAEDz3t3Y8L7xe12+VoTkNKg8UOA3u+OwmgE8X/phD/KYPK4N6QwQj+f2M2UbVF4koEL/RTWw8T3MXfQ/MtZMGL8DVZXGl0abeXftINTW9pIxAGBHn/F48pv3yFiTgA9pqDIGHB5UkepJCBXrr65QBx2Lgrm3yPgQVQUU/Q8BppTFTS9BNuNBBj79hwUAJJIppNNpGQMAlq7ZjIuvWyBjS7xDxiA05yYZH2LSd2pZHAvy0HfJ6o245PoHZGyJ96hxCM2eL+NDTPpOj8Rw75gDMrbETt+3VmzAZfMflLEl3qMnIHTePBkfYtJ3RnkM94zu+b5vLFuPK256WMaapl35WRFiUsdYGhl0IW18Uhl0JZDbiWUcObkOKSuS8CGGoO6JI4BU2mN4FAVQ1XROJ5NBt8f7/CTT3m4/yxeP0ZBynKJAUVT9o3oBr8/4GPxS47MXcsCTyemY/VIDgM+rIuD36R6fz9u9h8UDj42+Sn76+n2+bj2sHth5fvPU187zq9h5fl36es7XSpQslYiIiPKLg4qIiFyNg4qIiFyNg4qIiFyNg4qIiFyNg4qIiFyNg4qIiFyNg4qIiFyNg4qIiFyNg4qIiFyNg4qIiFyNg4qIiFwtp7unO6qfHyjO8Yap9XGgVf8u5nZku3t638xuFGX073Rc1bwR31t1p4w1Zqs6sjFbEVIbGYW/TzG+M3e9UoN2pUTGgMN3Ty/tOxrBwj4yBgB4+49A+OxrZKxRisuhBAtkDAAYW2K+qsNMgZpBVcj4dVPXuB9tHVEZAwDeeX8Lrvv5YzK2xDtgFMJnXSVjjVJSDiWg33d8aQK3Dc+tb9hrviKktnEf2ju6ZAwAWL32I8z7xeMytsQ76FiEzzDeJKCUVEAJhGQMADiuNI5bTFZ1mMnat2Ef2jv1+658dxPm//L3MrbEO3gMwqf/WMYas74Te5mv6jCTre+ehn3oMOi7/J2NuOlXf5CxZn/dWsQ6m2TsOPcNql8PBv6rTKbWXLUd+Mc+mdqWbVDdFb8QpyT/ImMAgJJJQzXZ32K2qiMbsxUhGUVBymDvEwDMCzyJ19WzZAw4PKgUxWN4B+ZAYW9UDJ4pY03wrCvhHTlZxsBnd9f2Kbm9lLOtCPnRrY/jtbc/kDEAoLOtAfXblsrYkmBRH5QPmiFjTfCcq+EdPlHGgM2+J0TiuG+Mcd8f3PIYFi5dL2MAQGdbPeq3LZOxJcHivigfOF3GmuCsa+EdNkHGgM2+0yJx/M6k7xU3PYo3l38oYwBAZ2sd6rcvl7ElweJ+KB84Tcaa4LnXwXv0eBkDNvvOLI/htyYrQi674WEsXrVRxgCAjgO1aNixQsaaTCadl5Hhvo/+fAoQ8OR2HNpllY0vk0AAXbrHr8S7reewuqoj2zFbEeL1pLr9LF88RvuznJbJpJHJpHQP0ikgmTA+Gf0dOvhs31gsreR0Emnz100imUIsntA9iUSyWw/LJ1tfg51BsN1XPtp/cqxvKktfh57fZJb31UQi2a3n5yduo2/eXs8ZG6/npHnffAwpuHJQERERfQEHFRERuRoHFRERuRoHFRERuRoHFRERuVrPX54+IABc0lemmrnfDGHCUQaXVXcmgJ36l2MDwB/vPIB339T/foAd2S5Pvzt2Pk5LPS1jSx5s/h+s6ZwqY0uuiNyDSQXGl5KauSbwDF5RZ8kYcPjydDOqL4RQUZWMNSWTTkegariMAQCe8kr4Jp0iY80ZlVEML9L/mkBnYx1qly6UseafL7+ErR9/LGMAQCrRiWhbnYwtUX0FCBVVylhTMvkMBCqHyRgA4Kmogm/iyTLWnFkZxTCDvh0Ntahb9oaMNf946V/4eNs2GQMAUokORNvqZWyJ11eAoFnfKWci0O9oGQMAPL1r4DvuWzLWnFUVxdGFBn3r96Bu+Zsy1rz4r39i2/btMgbs9vWHESzsJ2NN6fFnwd93qIwBC33PqYriKKO+dbtRt2KRjDV//+eL2L7jExkDNvs6qecH1eQi4PkRMtX8ydeJ2WpCxgft6wRW75apZvb9wFMrZWqfk4PqWv/TeNl7rowtuTt2Hk5LPSNjS9w4qLKJ1ExGQXG1jAEA6pDRCF14q4w1vx3dgm/3jskYAPD2mk2Yc+V9MtY07V6FaGutjB1XXjMFoWL9wa0OHYvQBTfLWHPv6BacZNB38aqNmHv1AhlrmnavRLQ1t+FrR3n/4w0Ht3r0eITm3ChjzX1jWvDNCv2+i1Z8iIuufUDGmqZdK/Ly5lzefypCRfqDzDvsOARn3yBjzf1jW3BiuX7fhcvW45LrH5SxZu+u5ehqa5Cxq/GjPyIicjUOKiIicjUOKiIicjUOKiIicjUOKiIicjVnrvozWdURHl2AQb8dKGPNL5Pt+E5a/2oW7E0CbxrfFXj2M114ap3BFYM2BI+aiMofGq82uKH4dzgxmNtl4nf7foWl6qkytuTa+HWYnn5Vxpbc1foTLOk6XsYAgOjW1ai//1IZ553pipABIxE+62oZa+YNbcfUiP7r6t/rtuLaOx+VsaalYR262j+VseNK+45BsLC3jAEA3oHHIHzmlTLWzD+6DVPK4jIGLKzqaKlfh66Onu/bq99YBMIVMgYAeAeNRviMn8hYc+OwNkzupd931XubccNdT8hYs7/+fcQ69srYcaZ9s6wIuXlYGyYa9F3x74248X/dt6rDDmcG1a8HA9+LyBQAME1N4o1wp4w1vg8a4Kk32LOzuQy4a4pMNbPTa/FU2oHLahUPFK/Bd7sA9P/xYyg9QX9lRjZJ+JDO8R+2XiTggfEdmM3suuditKx8QcYHpdPIpL76gW/XwRUh+gKFfUxXhHiVjOGfcrStEfXb35axJpPJOPJrko1Z32BRX9MVIWZ9O9sa0LDdeDWJO/v2Q/kg4xUh5n3r0bDdeDWJK/sWV5quCDHt21qHhh3Gq0ny1dcOo672eBXAr388PgUBwPB4MpmD97jXPQCSHuOTZV1DzjJpZBIxw5PMeBBHIKeT65DCZ0NOPp7Vk0qZdHLhkIK2IkT/IGO+UiGZSCJucA6uNuj+mNpj5+mXWv4c/3GyrJAw65s8HPvaeX4TKZ3Hc3ffbCtCTPsm3dnXjtzfJYmIiHoABxUREbkaBxUREbkaBxUREbkaBxUREbmaM5en3zsEOEP/8vQZniSW+DtkfMi6eqDO6PL0CPBz45UYs/EenkLP3+U6PPZk+Cv11xO4VcfaVxGv3yrjw9bBlRn6d6LOJpWI5ryqI1/s9e3My93C7Ti4IuRr1NcfRrDQeB2SmcOxbzYcVERE5Gr86I+IiFyNg4qIiFyNg4qIiFyNg4qIiFyNg4qIiFzNmav+bqgGTiqVKQBgQhh44ijjO37XbGlE6d52GR/0cTFwz0iZamY3b8JTnT2/noB6huorgEc1vou9U1LxTqTTPX+j3q9bXyIjzgwqVTH8t5oyqQi+Z4fLWPN7byfO8+jvWcG+KLDS+PLz2Q9l8NSqr74OuUOkehJCxVUydlzzntWItvb896wiNZMRKqqUseOad68+7L5XRkc2g3FiUyoDJPRPJplBHDA8aQWARzE4ALxp46NwSB3RFAWK4unxc/Dvcz1PQZ765qcukSFnBhUREdFXhIOKiIhcjYOKiIhcjYOKiIhcjYOKiIhczZnL08308QOn9pKp5luzSjFsbEjGB8WSQEObTDWv39qELa+b3JmdXM0bKEJR2RAZa4pmnA//gGNkbNvgcArnV3fKWPPE0y/ggw0fyRgAkIi1oX3fNhlb4gsUodCs78zZ8PcfJWPbhoRTOM+k7+NPPY/1G7fIGACQiLWifd92GRM5qucHVTa/GwKcrr8iJKsfbQP+3ixTOkwEw71RMXC6jDXBWdfAO+p4Gds2tSyOR8fvl7Hm8hsfwSuL35cxAKCrvRF7dy6TsSXBwj6oGDBNxprgudfBO3KyjG2bHonhoXEtMtZcNv9hvLZknYwBAF3tDdi7c7mMiRzFj/6IiMjVOKiIiMjVOKiIiMjVOKiIiMjVOKiIiMjV3HfV3/wa4JslMrXmrj3AIuOrmSj/zFZXBEoqERl1qow1gVPmQh0yRsYAgAI1g+pQSsaWjC1J4PYRrTLW/Oze57Hs3/qXp+9rqsW6d9+QsSWB0ipERp4iY03g1IugDj5WxgCAsJpBVY59x5fGcetw46953HHPX7HiXf3L05v31uKD94z7ckUIOcF9g8pkRUhWqQxgvOqKXMBsVYd38LEIzb1Fxod4VEDRv7X3lLI4HhprfIm5GUUBvPoPCwBIptLIpPVfWG+v2YyLrl0gY0u8Q8YgdMFNMj7EpO8JkTjuH9PzfZes3oiLr3tAxprm3asQbauXMZEtuY4E55isCMl69H+3yE1MVnXAowKq1/gYvGnjsxeyz5PbMXvTBgCv6oHP59U9Xq/arYfVY6evkre+3m49/qMTd4SQA9w3qIiIiL6Ag4qIiFyNg4qIiFyNg4qIiFyNg4qIiFyNg4qIiFyNg4qIiFyNg4qIiFyNg4qIiFyNg4qIiFyNg4qIiFyNg4qIiFytx++eHg4AQ3rL9JBdzUBLp0zpSFHa91gEw31kDADwDhiJ8FlXy1ijlFRACRbIGAAwpiSBO0xWdZjJtiJkT8M+tLVHZQwAeGfdFsz7+WMytsQ7cBTCZ14lY41Z33GlCdw2vOf7rnn/I9zwi8dlrNnfsA6xjr0yJrKlxwfV9GHAm/NlesiFDwFPr5QpHTEUBYrBHbYDhb1RMWiGjDXBs6+Cd+QUGQOfvZBV/YfNampZDA+OM95j9oNbHsOrS9bJGAAQbWtE446lMrYkWNgH5YOmy1gTPOcaeEdMkjFgs++0SAz3jzXue8VNj+L1pR/IGAAQbWtA445lMtZkMpmefkuhr4Ee/+hPAeBTjY8nx18+OkxkMshk0roH6TSQShmfjPEbYAZAMpPrMX/RpVJpJJMp3ZNKpbr1+DKnW8ce6JsyflgAQCqde18OKXJCjw8qIiKiL4ODioiIXI2DioiIXI2DioiIXI2DioiIXM2Ry9MvnA5MHCzTgzpjwM4mmR6y8ENgS4NM6etA9YUQKqqUsaZk4vcQqBwuYwCAp6IKvsmnylhzVmUUw4uTMgYAdDTUYueS12WseemVl/Hxto9lDABIJToRbauXsSWqrwChon4y1pRMOh2BfsNkDADw9K6Gb9IpMtacXRXFsCKDvvV7sPPthTLW/Ovll7Bt+zYZAzb7EuXKkUH15BXAnBNketDbHwEz75QpUXaRmskoKK6WMQBAHTIaoQtvlbHmt6Nb8O3eMRkDAN5eswlzrrxPxpqm3asQba2VsePKa6YgVFwlYwCAOnQsQhfcLGPNvaNbcJJB38WrNmLu1QtkrGnavRLR1joZE+UNP/ojIiJX46AiIiJX46AiIiJX46AiIiJX46AiIiJXUwHcLkO7jhsEFIeAxgPdz84mYGsD0LdE/8STQFdCPiIREAiVwePxIp2MdTsoKISv/whk2lt0zzGeJgS7WrB3X1u3s3HLTrz21spuj/n56WqrRzLRIX8cx/kLzPoWwVczvFvPz8+xahMCUf2+Gz7aidcXr+r2mJ+faFsdUgnu2iH3cOTydNUDKAY3pJ52NLBwnkwPmcs1H2RIOfiK1REs7IOKgcYrQjxKxvDjg2h7IxrMVnWY3MXcWcZ9Q4V9UT7QeEWIWd/OtgY0fmK8qiN/fYn0Gb2WbUmlgWRK/6TTgFc1PlzzQcYyB99EdU8aSKcMTzqVRtLgpFJpncf7wskbnZ/ls5Ox0TeddmtfIn2ODCoiIqKvCgcVERG5GgcVERG5GgcVERG5GgcVERG5miOXp5upLAW+N0Gmh7yxgWs+6Ms7uCLEeGWGmVQietitrji4IqSvjC05HPvS11uPDyoiIqIvgx/9ERGRq3FQERGRq3FQERGRq3FQERGRq3FQERGRq3FQERGRq3FQERGRq3FQERGRq3FQERGRq3FQERGRq/1/cbS5AnS+U18AAAAASUVORK5CYII=;" vertex="1" parent="1">
          <mxGeometry x="380" y="630" width="422" height="197" as="geometry" />
        </mxCell>
        <mxCell id="n9dQfp6F3I3MkhqRtmCc-2" value="" style="shape=image;verticalLabelPosition=bottom;labelBackgroundColor=default;verticalAlign=top;aspect=fixed;imageAspect=0;image=data:image/png,iVBORw0KGgoAAAANSUhEUgAAAaoAAADFCAYAAAAFWrbNAAAAAXNSR0IArs4c6QAAAARnQU1BAACxjwv8YQUAAAAJcEhZcwAAEnQAABJ0Ad5mH3gAACLdSURBVHhe7d13lFT13T/w9507dWcbO7uULVSRplQpIsXkmFjyy3liRQVRoz76S3vsiN3ExDw5/pJoxF6SmFhiNDGJFUWQjlFEpAgCUrbJLizbZqf//kAv5rP33rnO9e5c8P065/vP+xzHfTOz84E5d+5HAZABERGRS3lkQERE5CYcVERE5GocVERE5GocVERE5GqKExdTnH/2GRg/drSMbdu+4xPc/+jvZUxEREcwRwbVkw8vwJxZZ8rYtiXLV+LE006XMRERHcH40R8REbkaBxUREbkaBxUREbkaBxUREbkaBxUREblaTlf9hUIh9K+ulLHmqh9egROnTZWxbR9u2oybfvoLGWvqGxrR2tYuYzpCqN4gFNUnY8elElFk0kkZO071hqCoXhk7Lm99fSEoHvZ1Wr762pHToDphyiS8+sLTMtb86Nr5eP7Fl2Rs2/GTjsMLf35cxprv//AqPPe3f8iYjhBlVRNRUGz8FySnNO95B9G2Ohk7LlI9CaGifjJ2XPOeNYi21cvYcZHqyQgV9ZWx45p2r0ZXe4OMHRepmYxQYT76rkJXe6OMXS2nj/5UjweF4bDhSaVSaO/o+MpPPB7v9v/64vF5e/5vJ9RzFI8Hisfb4weKIn+UHqEoX7O+eXp+lXz1VdTuP0sPnHw9v3bkNKiIiIh6CgcVERG5GgcVERG5GgcVERG5GgcVERG5Wk6Xp8+YOgVLXvm7jDUX/PcP8adnn5exbTNPOB6LX/6bjDWzL/0BnnruBRnTYcLrL0Rh2WAZa4qmn4tA/2NkbNvAghTOqY7KWPPks3/D+o0fyRgAkIy1oX3/Dhlb4g0UobDXIBlrimacj0DNSBnbNiicwtlVxn3/+MwL+HDTFhkDABKxNnTk2NcXKELYpG/xzNnwV4+QsW2DwymcZdL390/9FRs/+ljGAIBErBUd+z+RsSW+QDHCvQbKWFN84gXwVw2TsW1HFSZxRmWXjDVP/Pk5bNqyTcYAgERXKzpacuvrJA4qco1guDcqBk6XsSY46xp4Rx0vY9umlsXx6Pj9MtZcfuMjeGXx+zIGAHS1N2LvzmUytiRY2AcVA6bJWBM89zp4R06WsW3TIzE8NK5FxprL5j+M15askzEAoKu9AXt3LpexJcHCvqgYcIKMNcHz58E7fKKMbZtZHsMDY437XnL9g1i4bL2MAQDRtno07VohY0tCRf1Q3t/4xgfB2TfAO+w4Gdv2jYoYFowx7nvRtQ9g0YoPZQwAiLbVoWnXShnnHT/6IyIiV+OgIiIiV+OgIiIiV+OgIiIiV+OgIiIiV+NVf9SjVG8IHoPVFYGSSkRGnCxjTeDUi6EOHStjAEBIzaBvMCVjS8aXJPCzka0y1tz2m+fw9ppNMgYAtDTXYcP7b8rYkkBJFSIjvi1jTeA734c6ZIyMAZt9jytN4I4Rxn1v/fVfsPSdzTIGAOxvrsPGXPuWViMy/Fsy1gT+z6VQBx8rYwBAgZpBnxz7TixN4HaTvjfd/SxWvKv/9YP9TbXYuG6RjC0J9KpBZNhJMtYEvnsZ1EH6X7ew03dyrzhuHd4mY838Xz2NVWu3yhgAsG/vbmz6YLGMNck8rQjhoKIeFamaiJDBqg518LEIzblZxhrF6wM8+h8CTC6L436TS3LNeBQg4DH+NYjFk0il9N80lr2zGZdcf7+MLVGHjEFo9o0y1pj1nVoWx+/y0PftNZtw2bwHZGyJOnQcQufdIGONWd9pkTjuGe1U3wRSqbSMAQCLV23A5fMfkrEl3qMnIHju9TLWmPWdEYnhN6MPyNgSVQH8OfZ9c/l6/ODmR2SsydeKEP0/JSKnmK1yUH1Q/AHDY/RLDQDqZ//KyOWYvYkBQMDvRUEooHsCAX/3HlaPjb4eJT99g3nqqyrde1g92fv6uvXUnl9/fvraeX7NhhSy9c3y/B78t03PM/6TIiIicgEOKiIicjUOKiIicjUOKiIicjUOKiIicrWcLk+vquyHc773XRlrImVlKAiHZGxbLBbHp5/ulbHmlYWLsHmr/u36yR0iNZNRUFwtYwCAOmQ0QhfeKmNLst0B3SlLVm/CBVfdJ2NL1KPGIjTX+HJ8M9MicTw8ruf7Ll61EXOvXiBjS9SjxyM0x/hyfDPZ7oDulDeXf4iLr8vtcnzvsOMQnG18Ob6ZE8tjuD8PfV9f+gEunWd8Of7encvR1d4gY8flNKiyefLhBZgz60wZ27Zk+UqceNrpMqbDCAfVIRxU1nFQ9Qy3Dip+9EdERK7GQUVERK7GQUVERK7GQUVERK7GQUVERK7myFV///vTW/DdU4zXF+TqnbXv48LLfyxjOoyU9h2DYGEfGQMAvANGInz2NTLWKMURKAH9rz2MLUngTpNVHWZCagb9TFYq1O9tQUdHl4wBAGve34JrfvaojC3xDhyF8FlXy1hj1ndCllUdZrL2/bQFHZ36fVet/QjX3fmYjC3xDT4WBWdcKWONWd+JveK4zWR1hZmCLCtR6j/dj47OmIwBACve3YR5v3hCxpb4hoxBwek/kbFGKSmH4g/KGAAwKcuqDjMFahp9g/p3RweAuk/3o9Og77J3NmD+L/8gY83+uvcQ62ySseMcGVR+vx9eVZWxbel0Gl0x/T9gOjwoigdQ9O/AHCzsg/LBJ8pYEzzzJ/COnCxj4LO7TWe7a7SR43vFscDkUuAf3/YEXl/6gYwBAJ2tDajd9raMLQkW9UX5oJky1gTPvhLe4RNlDNjse0KWFSE/uvVxLFy2XsYAgI7WetRtWypjS4JF/VA+aIaMNcFzroZ32AQZAzb7Ts+yIuT/3vwoFq3YIGMAQMeBOtRtXyZjS0LFlYgMnC5jTWjWNVCPHi9jwGbfmVlWhPz3/EewZPVGGQMA2g/Uon77chlrMum0EyMjK0c++ovH4+iMRr/ywyF1+Mtk0sikU/onlQQSMeOTMf5bYjoDdKWUnE4srT84PxdPJBHtiuueWDzRvYfVk61v2pm+ceOHBQDETPrGnezr0PObrW88btzXyec341TfTO6v52zPbz6GFJwaVERERF8VDioiInI1DioiInI1DioiInI1DioiInK1nC5PH4IC/AiDZKz5M2rxbxhfDkqkR/UVoKC4Usaa4klnIFA1XMYAAE95JXwTT5ax5vTKKIYVJmUMAIh+WoeG5W/IWPOPl17C1o+3yhgAkEx0ItpaJ2NLvL4ChMz6Tj4TgcphMgYAeMqr4Jto/F3FMyqjONqob2MtGla8KWPNi//6Fz7epr8uJxnvRLTNmb4lU86Gv99QGQMAPBU18B13kow1Z1ZGMdSob0MtGlYa9/37P/+Bbdu3yxiw29cfRqion4w1JVPOgb/fUTIGAHh618A3wbjv2VVRDAnr9+2s343GVW/JWPPCiy9ixyc7ZAwASMY7EG2rl3He5TSoZiCCJZgqY80FWIs/YY+MiWyxsyLkt6Nb8O3e+l9veHvNJsy50nhVR9PuVYi21srYceU1UxAqrpIxAEAdOhahC4xXhNw7ugUnGfTNtqqjaffKnIevHeX9j0eoSH+QZVsRct+YFnyzQr/vohUf4qJrjVd1NO1akZc35/L+Uw0HWbYVIfePbcGJ5fp9Fy5bj0uuf1DGmr27lqOrredXddjBj/6IiMjVOKiIiMjVOKiIiMjVOKiIiMjVOKiIiMjVVAC3yzCbASjAxaiRsWZ1rwbsK2tFRRG+9EkkgZj+VZf0NRcoKIdH9SGdinc7KCiCb+AxyHS26p6x/mYUxg5gX0t7t7P54914ZdGqbo/5+elqq0cy3iF/HMcFwhEoHoO+4WL4Bozq1vPzM87fjLBB341bd+HVt0z6ttYhmchD34Jyw75KYQm8A0Z26/nFvgWGfXfitbdWd3vMz0+0rQ6pRKf8cRx3sK+328+j9e0/olvPz894fzNCBn03bNmJ1xev6faYh/rW5qWvHY5cnh6/dC2Sx+d2efr3HwGeXSVTomwrQvqifLDxygy/JwNV/z/Nuqojk0kDmS/9a2Kbad8sKzPM+mZb1eHOvpUoH2S8MsO074F61G0/vPpmWxFi3td8NUm+VnXY4chHf34vUODP7Xgd+YnoSGC6IiSd6LZG4YsnHuu+0sDqKod8vIkhW99U7n2zrnJwY9+v3fNrviLEVt/DbEjBqUFFRET0VeGgIiIiV+OgIiIiV+OgIiIiV+OgIiIiV3Pk8nRcsRY4IbfL019tKsbmzqCMLXnyL614b12XjB1XMnMugoPHydjVDiz+I7p2rJXxYSvbihAzdlZ15Eu2lRlm7KyuyJdsKzPMfP36unNVhx2uG1QY0w+oLJapJbMvr8dTz7fK2HFVVz2F4mnnydjVan99LlqXPytjIiLX4Ud/RETkahxURETkahxURETkahxURETkahxURETkakfUVX/X374XLy1slzEAoKMzg527EzK2xBMogK9ioIw1x869En3HnSBjSxqVarQrufXtk9mDwkxuVzl+8MffoHHtChkDANKxDiT27pRx3qm+EDwen4wdl0p0Ip3u+d0z7NszkolOZPLStwAej1fGjstXXzuOqEEVT2SQSsn0oKUrO3Hy2bn9TAUjZ6D/La/KWHNX6jKcknlBxpbMD/wBr6lny9iSu+IX4uTkczK2ZJ76KF5XTpcxAKDjw8XY/fPTZJx3keqJCBVVydhxzXvW5OV7OJHqSQgV5fZdKTua96zOy/dwIjWTESrM7btDdjTvWYVoW4OMHVdeMwXBwr4ydlzT7pXoam+UsasdUR/9+X0KQkH94/cbLG+xQvFA8YcMj9+TRhDRnI6aMZisFvgy8W6PZ/V4vWq3Htrx+eX/yh0UDxSP2uPHaGeQ0xT27ZFz8O/reZCvvnl6fu04ogYVEREdeTioiIjI1TioiIjI1TioiIjI1TioiIjI1Y6oy9PNLF7eiW/8124ZW1Iw6kQM+OlbMtbcHTsfp6WelrElf6q9AO8fGCtjS+ZUP4mxxe/L2JJrAs/gFXWWjAEAHevfxK7bT5Kx47z+QhSWDZGxpmjGeQgMOEbGtg0qSOHc6k4Za/7wzN/wwYaPZAwASMbb0L5vu4wt8QWKEO41WMaa4pmz4e8/Usa2DQ6nMKvKuO/vn34B6zdukTEAIBlrQ/v+XPsWI9xrkIw1xSfOgb9mhIxtGxJO4RyTvo//+Xls2LxVxgCAZKwV7ft3yNiSrH2/cQH81cNlbNvQcBJnVUVlrHnsT89h40fbZAwASMQOoGP/JzLOOw4qC5wcVKvfGYLdeyIytmTyxG2oqW6WsSVuHFTBcG9UDJwuY01w1jXwjjpexrZNLYvj0fH7Zay5/MZH8Mpi/b8QdLU3Yu/OZTK2JFjYBxUDpslYEzz3OnhHTpaxbdMjMTw0rkXGmsvmP4zXlqyTMQCgq70Be3cul7ElwcK+qBhg/MX44Pnz4B0+Uca2zSyP4YGxxn0vuf5BLFy2XsYAgGhbPZp26X8xPptQUT+U9zd+nwzOvgHeYcfJ2LZvVMSwYIxx34uufQCLVnwoYwBAtK0OTbtWyjjv+NEfERG5GgcVERG5GgcVERG5GgcVERG5GgcVERG5Wk5X/U1AKf4Ak0uqZ20CxuV4d95hFUBFWKa2vbO2Cxf/OLc7JGe76u/a+PWYkX5ZxgAAXzKKXu3Gd6Leuq0vmvcVytiSoUMaECnTX2sS94bQYnIn6l/57sYy9RQZAw5f9We2yiFQWonISP2fCQACp1wI9Sj9112BmkFlMLcb/I4rTeCOEcbrUu64569YumazjAEA+5vrsP69N2RsSaC0CpGRJ8tYEzj1YqhDRssYsNl3QmkCt5n0ve03z2H5v/Uvx9/XXIsP33tTxpYEelUjMuLbMtYEvnMJ1EH6Xz8Iqxn0y7Hvcb3iuHV4m4w1t/y/v2Dle/qX4zc37cGGtYtkbEmwrAZlw78lY03gO5dCHTRKxoDNvpPK4rh5mHHfm+5+BqvXfixjAEDz3t3Y8L7xe12+VoTkNKg8UOA3u+OwmgE8X/phD/KYPK4N6QwQj+f2M2UbVF4koEL/RTWw8T3MXfQ/MtZMGL8DVZXGl0abeXftINTW9pIxAGBHn/F48pv3yFiTgA9pqDIGHB5UkepJCBXrr65QBx2Lgrm3yPgQVQUU/Q8BppTFTS9BNuNBBj79hwUAJJIppNNpGQMAlq7ZjIuvWyBjS7xDxiA05yYZH2LSd2pZHAvy0HfJ6o245PoHZGyJ96hxCM2eL+NDTPpOj8Rw75gDMrbETt+3VmzAZfMflLEl3qMnIHTePBkfYtJ3RnkM94zu+b5vLFuPK256WMaapl35WRFiUsdYGhl0IW18Uhl0JZDbiWUcObkOKSuS8CGGoO6JI4BU2mN4FAVQ1XROJ5NBt8f7/CTT3m4/yxeP0ZBynKJAUVT9o3oBr8/4GPxS47MXcsCTyemY/VIDgM+rIuD36R6fz9u9h8UDj42+Sn76+n2+bj2sHth5fvPU187zq9h5fl36es7XSpQslYiIiPKLg4qIiFyNg4qIiFyNg4qIiFyNg4qIiFyNg4qIiFyNg4qIiFyNg4qIiFyNg4qIiFyNg4qIiFyNg4qIiFyNg4qIiFwtp7unO6qfHyjO8Yap9XGgVf8u5nZku3t638xuFGX073Rc1bwR31t1p4w1Zqs6sjFbEVIbGYW/TzG+M3e9UoN2pUTGgMN3Ty/tOxrBwj4yBgB4+49A+OxrZKxRisuhBAtkDAAYW2K+qsNMgZpBVcj4dVPXuB9tHVEZAwDeeX8Lrvv5YzK2xDtgFMJnXSVjjVJSDiWg33d8aQK3Dc+tb9hrviKktnEf2ju6ZAwAWL32I8z7xeMytsQ76FiEzzDeJKCUVEAJhGQMADiuNI5bTFZ1mMnat2Ef2jv1+658dxPm//L3MrbEO3gMwqf/WMYas74Te5mv6jCTre+ehn3oMOi7/J2NuOlXf5CxZn/dWsQ6m2TsOPcNql8PBv6rTKbWXLUd+Mc+mdqWbVDdFb8QpyT/ImMAgJJJQzXZ32K2qiMbsxUhGUVBymDvEwDMCzyJ19WzZAw4PKgUxWN4B+ZAYW9UDJ4pY03wrCvhHTlZxsBnd9f2Kbm9lLOtCPnRrY/jtbc/kDEAoLOtAfXblsrYkmBRH5QPmiFjTfCcq+EdPlHGgM2+J0TiuG+Mcd8f3PIYFi5dL2MAQGdbPeq3LZOxJcHivigfOF3GmuCsa+EdNkHGgM2+0yJx/M6k7xU3PYo3l38oYwBAZ2sd6rcvl7ElweJ+KB84Tcaa4LnXwXv0eBkDNvvOLI/htyYrQi674WEsXrVRxgCAjgO1aNixQsaaTCadl5Hhvo/+fAoQ8OR2HNpllY0vk0AAXbrHr8S7reewuqoj2zFbEeL1pLr9LF88RvuznJbJpJHJpHQP0ikgmTA+Gf0dOvhs31gsreR0Emnz100imUIsntA9iUSyWw/LJ1tfg51BsN1XPtp/cqxvKktfh57fZJb31UQi2a3n5yduo2/eXs8ZG6/npHnffAwpuHJQERERfQEHFRERuRoHFRERuRoHFRERuRoHFRERuVrPX54+IABc0lemmrnfDGHCUQaXVXcmgJ36l2MDwB/vPIB339T/foAd2S5Pvzt2Pk5LPS1jSx5s/h+s6ZwqY0uuiNyDSQXGl5KauSbwDF5RZ8kYcPjydDOqL4RQUZWMNSWTTkegariMAQCe8kr4Jp0iY80ZlVEML9L/mkBnYx1qly6UseafL7+ErR9/LGMAQCrRiWhbnYwtUX0FCBVVylhTMvkMBCqHyRgA4Kmogm/iyTLWnFkZxTCDvh0Ntahb9oaMNf946V/4eNs2GQMAUokORNvqZWyJ11eAoFnfKWci0O9oGQMAPL1r4DvuWzLWnFUVxdGFBn3r96Bu+Zsy1rz4r39i2/btMgbs9vWHESzsJ2NN6fFnwd93qIwBC33PqYriKKO+dbtRt2KRjDV//+eL2L7jExkDNvs6qecH1eQi4PkRMtX8ydeJ2WpCxgft6wRW75apZvb9wFMrZWqfk4PqWv/TeNl7rowtuTt2Hk5LPSNjS9w4qLKJ1ExGQXG1jAEA6pDRCF14q4w1vx3dgm/3jskYAPD2mk2Yc+V9MtY07V6FaGutjB1XXjMFoWL9wa0OHYvQBTfLWHPv6BacZNB38aqNmHv1AhlrmnavRLQ1t+FrR3n/4w0Ht3r0eITm3ChjzX1jWvDNCv2+i1Z8iIuufUDGmqZdK/Ly5lzefypCRfqDzDvsOARn3yBjzf1jW3BiuX7fhcvW45LrH5SxZu+u5ehqa5Cxq/GjPyIicjUOKiIicjUOKiIicjUOKiIicjUOKiIicjVnrvozWdURHl2AQb8dKGPNL5Pt+E5a/2oW7E0CbxrfFXj2M114ap3BFYM2BI+aiMofGq82uKH4dzgxmNtl4nf7foWl6qkytuTa+HWYnn5Vxpbc1foTLOk6XsYAgOjW1ai//1IZ553pipABIxE+62oZa+YNbcfUiP7r6t/rtuLaOx+VsaalYR262j+VseNK+45BsLC3jAEA3oHHIHzmlTLWzD+6DVPK4jIGLKzqaKlfh66Onu/bq99YBMIVMgYAeAeNRviMn8hYc+OwNkzupd931XubccNdT8hYs7/+fcQ69srYcaZ9s6wIuXlYGyYa9F3x74248X/dt6rDDmcG1a8HA9+LyBQAME1N4o1wp4w1vg8a4Kk32LOzuQy4a4pMNbPTa/FU2oHLahUPFK/Bd7sA9P/xYyg9QX9lRjZJ+JDO8R+2XiTggfEdmM3suuditKx8QcYHpdPIpL76gW/XwRUh+gKFfUxXhHiVjOGfcrStEfXb35axJpPJOPJrko1Z32BRX9MVIWZ9O9sa0LDdeDWJO/v2Q/kg4xUh5n3r0bDdeDWJK/sWV5quCDHt21qHhh3Gq0ny1dcOo672eBXAr388PgUBwPB4MpmD97jXPQCSHuOTZV1DzjJpZBIxw5PMeBBHIKeT65DCZ0NOPp7Vk0qZdHLhkIK2IkT/IGO+UiGZSCJucA6uNuj+mNpj5+mXWv4c/3GyrJAw65s8HPvaeX4TKZ3Hc3ffbCtCTPsm3dnXjtzfJYmIiHoABxUREbkaBxUREbkaBxUREbkaBxUREbmaM5en3zsEOEP/8vQZniSW+DtkfMi6eqDO6PL0CPBz45UYs/EenkLP3+U6PPZk+Cv11xO4VcfaVxGv3yrjw9bBlRn6d6LOJpWI5ryqI1/s9e3My93C7Ti4IuRr1NcfRrDQeB2SmcOxbzYcVERE5Gr86I+IiFyNg4qIiFyNg4qIiFyNg4qIiFyNg4qIiFzNmav+bqgGTiqVKQBgQhh44ijjO37XbGlE6d52GR/0cTFwz0iZamY3b8JTnT2/noB6huorgEc1vou9U1LxTqTTPX+j3q9bXyIjzgwqVTH8t5oyqQi+Z4fLWPN7byfO8+jvWcG+KLDS+PLz2Q9l8NSqr74OuUOkehJCxVUydlzzntWItvb896wiNZMRKqqUseOad68+7L5XRkc2g3FiUyoDJPRPJplBHDA8aQWARzE4ALxp46NwSB3RFAWK4unxc/Dvcz1PQZ765qcukSFnBhUREdFXhIOKiIhcjYOKiIhcjYOKiIhcjYOKiIhczZnL08308QOn9pKp5luzSjFsbEjGB8WSQEObTDWv39qELa+b3JmdXM0bKEJR2RAZa4pmnA//gGNkbNvgcArnV3fKWPPE0y/ggw0fyRgAkIi1oX3fNhlb4gsUodCs78zZ8PcfJWPbhoRTOM+k7+NPPY/1G7fIGACQiLWifd92GRM5qucHVTa/GwKcrr8iJKsfbQP+3ixTOkwEw71RMXC6jDXBWdfAO+p4Gds2tSyOR8fvl7Hm8hsfwSuL35cxAKCrvRF7dy6TsSXBwj6oGDBNxprgudfBO3KyjG2bHonhoXEtMtZcNv9hvLZknYwBAF3tDdi7c7mMiRzFj/6IiMjVOKiIiMjVOKiIiMjVOKiIiMjVOKiIiMjV3HfV3/wa4JslMrXmrj3AIuOrmSj/zFZXBEoqERl1qow1gVPmQh0yRsYAgAI1g+pQSsaWjC1J4PYRrTLW/Oze57Hs3/qXp+9rqsW6d9+QsSWB0ipERp4iY03g1IugDj5WxgCAsJpBVY59x5fGcetw46953HHPX7HiXf3L05v31uKD94z7ckUIOcF9g8pkRUhWqQxgvOqKXMBsVYd38LEIzb1Fxod4VEDRv7X3lLI4HhprfIm5GUUBvPoPCwBIptLIpPVfWG+v2YyLrl0gY0u8Q8YgdMFNMj7EpO8JkTjuH9PzfZes3oiLr3tAxprm3asQbauXMZEtuY4E55isCMl69H+3yE1MVnXAowKq1/gYvGnjsxeyz5PbMXvTBgCv6oHP59U9Xq/arYfVY6evkre+3m49/qMTd4SQA9w3qIiIiL6Ag4qIiFyNg4qIiFyNg4qIiFyNg4qIiFyNg4qIiFyNg4qIiFyNg4qIiFyNg4qIiFyNg4qIiFyNg4qIiFyNg4qIiFytx++eHg4AQ3rL9JBdzUBLp0zpSFHa91gEw31kDADwDhiJ8FlXy1ijlFRACRbIGAAwpiSBO0xWdZjJtiJkT8M+tLVHZQwAeGfdFsz7+WMytsQ7cBTCZ14lY41Z33GlCdw2vOf7rnn/I9zwi8dlrNnfsA6xjr0yJrKlxwfV9GHAm/NlesiFDwFPr5QpHTEUBYrBHbYDhb1RMWiGjDXBs6+Cd+QUGQOfvZBV/YfNampZDA+OM95j9oNbHsOrS9bJGAAQbWtE446lMrYkWNgH5YOmy1gTPOcaeEdMkjFgs++0SAz3jzXue8VNj+L1pR/IGAAQbWtA445lMtZkMpmefkuhr4Ee/+hPAeBTjY8nx18+OkxkMshk0roH6TSQShmfjPEbYAZAMpPrMX/RpVJpJJMp3ZNKpbr1+DKnW8ce6JsyflgAQCqde18OKXJCjw8qIiKiL4ODioiIXI2DioiIXI2DioiIXI2DioiIXM2Ry9MvnA5MHCzTgzpjwM4mmR6y8ENgS4NM6etA9YUQKqqUsaZk4vcQqBwuYwCAp6IKvsmnylhzVmUUw4uTMgYAdDTUYueS12WseemVl/Hxto9lDABIJToRbauXsSWqrwChon4y1pRMOh2BfsNkDADw9K6Gb9IpMtacXRXFsCKDvvV7sPPthTLW/Ovll7Bt+zYZAzb7EuXKkUH15BXAnBNketDbHwEz75QpUXaRmskoKK6WMQBAHTIaoQtvlbHmt6Nb8O3eMRkDAN5eswlzrrxPxpqm3asQba2VsePKa6YgVFwlYwCAOnQsQhfcLGPNvaNbcJJB38WrNmLu1QtkrGnavRLR1joZE+UNP/ojIiJX46AiIiJX46AiIiJX46AiIiJX46AiIiJXUwHcLkO7jhsEFIeAxgPdz84mYGsD0LdE/8STQFdCPiIREAiVwePxIp2MdTsoKISv/whk2lt0zzGeJgS7WrB3X1u3s3HLTrz21spuj/n56WqrRzLRIX8cx/kLzPoWwVczvFvPz8+xahMCUf2+Gz7aidcXr+r2mJ+faFsdUgnu2iH3cOTydNUDKAY3pJ52NLBwnkwPmcs1H2RIOfiK1REs7IOKgcYrQjxKxvDjg2h7IxrMVnWY3MXcWcZ9Q4V9UT7QeEWIWd/OtgY0fmK8qiN/fYn0Gb2WbUmlgWRK/6TTgFc1PlzzQcYyB99EdU8aSKcMTzqVRtLgpFJpncf7wskbnZ/ls5Ox0TeddmtfIn2ODCoiIqKvCgcVERG5GgcVERG5GgcVERG5GgcVERG5miOXp5upLAW+N0Gmh7yxgWs+6Ms7uCLEeGWGmVQietitrji4IqSvjC05HPvS11uPDyoiIqIvgx/9ERGRq3FQERGRq3FQERGRq3FQERGRq3FQERGRq3FQERGRq3FQERGRq3FQERGRq3FQERGRq3FQERGRq/1/cbS5AnS+U18AAAAASUVORK5CYII=;" vertex="1" parent="1">
          <mxGeometry x="380" y="1025" width="426" height="197" as="geometry" />
        </mxCell>
        <mxCell id="n9dQfp6F3I3MkhqRtmCc-3" value="" style="shape=image;verticalLabelPosition=bottom;labelBackgroundColor=default;verticalAlign=top;aspect=fixed;imageAspect=0;image=data:image/png,iVBORw0KGgoAAAANSUhEUgAAAagAAADFCAYAAAABr2bwAAAAAXNSR0IArs4c6QAAAARnQU1BAACxjwv8YQUAAAAJcEhZcwAAEnQAABJ0Ad5mH3gAAA0MSURBVHhe7d17bN11Gcfxzznter/RsrVdS3cFBpO7ZiuyWwTGpnEjRJEx4R8VEzUKGOMlEESNiX8oURcVNEYRMF7wgoxLkLVjc6JzggMmbO3W9bZLx7re1vVyjn/gfsrDuXQ9p9tzzt6v5PvPp2l3trb5LN88v/OEFApFBZxhIYWkcNjG/xOJKCp+VDMV319MRkjipwIA4E+C/9IAAHDmUFAAAJcoKACASxQUAMAlCgoA4BIFBQBwiYICALhEQQEAXKKgAAAuUVAAAJcoKACASxQUAMClU36z2OLiIp0/d46NA23tnTra22tjICW504oUysmz8ZQbHx1UZHzUxgBOg1MuqGsaF6npycdtHLj9k5/RI7+K/3FgMqrqF6morM7GU66n40Ud7+u0MYDT4JSv+EKScnJy4p5QKGQ/BUhdSFIodPoPgDPmlAsKAIDTgYICALhEQQEAXKKgAAAuUVAAAJdOecy8tqZaN35glY0D9TNnqry8zMaSpD2te/WdDT+yMaBp+aUqqZxv40DpsnXKm3WJjVM2t3hMt543ZOPATx99XC+/8rqNJUmjJ/o08GaLjQGkySkXVDIPP7hB62++ycaSpM1/+auWrVprY0AFxTM0ffYSGwcKbr5buQsbbZyyqytH9OMrj9o4cMeXH9JTTS/ZWJI0PHBQh9u22BhAmnDFBwBwiYICALhEQQEAXKKgAAAuUVAAAJfSPsX3jXu+pNUr32djSdIbu1v0zW9/18aBtvYOHe09ZmNkiUQrM/IrZqpqYfzHF/JX3qaceZfaWJJUnBPVeUXjNp6Qy8tHde+CPhsHvv69x7Vle+wx8zd7OvXS9udsHGBVB5CatBdUOByO+47m1zQu0p//+GsbB26749N69Ne/szGyRKKVGTnzLlHhbffa+H8SvLt4Y+WIHrwi/qh4IiFJ4dhfVpIUiUQVjfMrsvnFXbr9rg02DrCqA0hN2q/4IpGIxsfHY55oJPKO9Rys6jiLJFyZEZbCCU6Cn42QpJzQ5E6icpKkcDiknHA45gmffF3xDoCUpL2gAABIBwoKAOASBQUAcImCAgC4REEBAFxK+5h5IrU11Vr7/htsHDivvk4V5eU2liTtbmllVUeGqzpvkYrK6m0sScqZd6kKb08wZp5AsncknyrNL+7SR+/8vo0DPe1/ZcwcSMFpLahkfvHQBt364dirOpq3btPy1TfaGBmEggJwKrjiAwC4REEBAFyioAAALlFQAACXKCgAgEuupvi+ce+XtOq62Ks6Xt+9R996IP7E1L79HTra22tjOFJRfYnyS2bYWJKU23CRSm66y8aB0DkzFCootrEk6bIkKzMSKc6JqiHBqo72riPqGxiysSTp7y/v1he/+RMbB44d2KnhwUM2BjBBrgoqFArFfUfzpVcv1p+f+I2NA+s//ik99htWdfgX+/tbUDJD02cvsXGg4MN3KXdho40Dk70KuLoq8aqOT37lx3q6+SUbS5KO9x/UoX1bbPx/3PxqARlpsr/XUyIajSoSicQ80WhU4f+uOIh14hUbvInGPtEkJ4nIZE+SL/3Wz2TsE43G+Hu87QBIhauCAgDgJAoKAOASBQUAcImCAgC4REEBAFxyNWaeSG1NtdasXmnjwHNNL2hP614bI0PkTCtUYUmtjQPl71mj/JkLbCxJCk+v07TF77dx4EN1x3Vx6aiNJUn9B7rU+vzTNg5sfGajWlpabCxJGh8b0vH+AzYGkCYZU1A4u6WyquOBS3t1/YwTNpYkbf7bLq3/XPwHwFmZAZw5XPEBAFyioAAALlFQAACXKCgAgEsUFADAJab4kBGSr+q408aBu+cPqLFyxMaSpO3/YmUG4BUFhYxXUFKt6bPir+pI9Eb3wwMHdWjfCzYG4ABXfMgCds3F2080mvgA8ImCAgC4REEBAFyioAAALlFQAACXKCgAgEuMmU+hstISLbxwno3TYndrm3re7LXxWemtVR01Np6QsbHjGmZlBuASBTWFamacq5Ur3mvjtNi8bbv27mcNBIDsxRUfAMAlCgoA4BIFBQBwiYICALhEQQEAXMqaKb7ZDdNUWZFjY0lS/2BEu1tir1tIVUlxkfLzptlYklRTXa2V1y63cVo0b9mmfW37bSxJGh0bU1//oI0BIKNkTUE98sNa3XJTmY0lSc1bh7RibbuN02Jp41Wa01BvY0lSbV2DVq29xcZp0fTsH9W6e5eNJUndBw/r2aa/2BgAMkr2XPGF3tr7E+sowT6g1CX+4qFQaEpOQsk+DgAZIHsKCgCQVSgoAIBLFBQAwCUKCgDgEgUFAHApe8bMf1SrdXHGzJu2DmnFmsmNmSdbmbFsxbWaO2++jSVJRUUlapgT+2OS9PprL6vnYLeNJUnl51TpXZe/x8aBrvZ96uuLvW6ju6tTT298wsaBN1rbdIRVHQCco6CSSLYyY/n1H9S8Cy628YRseuYPcZ9lqq2fpdWTfIaqq6NNT/3+MRsHmrdt1z5WdQBwjis+AIBLFBQAwCUKCgDgEgUFAHCJggIAuJQj6T4bZqIrLytQcVFY3QfH3nFe2XVCf3pmcusnSoqLNH9Og40Ds+ddqMqq6TaWJI2OjujokcMaGhyIefb0DOjweL5GCyvfcaaVVqqmvPgdn3Py5OTmKjc31/6RkqT+vmPa8+9XbBxo6+hS77F+GwOAK1kzZj5VUhkz7+5o08YE494ti+/WkYYlNpYklR3aqQVN99g4sGLlGs09/yIbS4yZA8gSXPEBAFyioAAALlFQAACXKCgAgEsUFADAJQoKAOASY+ZJpDJmPjQ4oPZ9e2wc+FtPVB2Dsf/5pxeEtKQ6ZONAbf1slZVX2FhizBxAlqCgkkiloJJh3QYAxMcVHwDAJQoKAOASBQUAcImCAgC4REEBAFxiii+JqnMq1Pjuy2wcWH7tKs2df6GNJUnT8vJUXlFp48D2bc3qbN9rY0nSuTNq9d7lK20c6O/r1YnhYRtLkro72/XUE7+1cWDHztfUdeCwjQHAFQoqRUsb3605DXU2liTV1jVo9Y3rbJwWiUbUuw/16NlNW20MABmFKz4AgEsUFADAJQoKAOASBQUAcImCAgC4REEBAFxizDxFNTPOVWlJsY0lSbU1NbphZfxnmVLRvHmzWvfGfobq+PFhdXQftDEAZBQKagolW9WRis3btmsvKzMAZDGu+AAALlFQAACXKCgAgEsUFADAJQoKAOBSxkzxlSpXC1Ri40CrhnREIzY+o6oqK7T4qvirOlLxz5271HXgkI0BIGtkTEEtU5WadLWNA7dqhx4VY9cAkC244gMAuERBAQBcoqAAAC5RUAAAlygoAIBLFBQAwCUKCgDgEgUFAHCJggIAuERBAQBcoqAAAC5RUAAAlygoAIBLGfNu5leqXD/UpTYO3KN/6xkdtjEAIENlTEEBAM4uXPEBAFyioAAALlFQAACXKCgAgEsUFADAJQoKAOASBQUAcImCAgC4REEBAFyioAAALlFQAACXKCgAgEsUFADAJQoKAOASBQUAcImCAgC4REEBAFyioAAALlFQAACXKCgAgEsUFADAJQoKAOASBQUAcImCAgC4REEBAFyioAAALlFQAACXKCgAgEshSVEbTpVwYany6y+2cWDkwB6N9x+x8YTk1cxXTmmVjSVJkeN9OtGxy8YTEi4sU379RTYOeHzNAJANTmtBFV28VLO+1mzjQNcD63XshUdsPCF1n3tEZUvW2ViSNPRqk9ruXWHjCSlauFyz7t9k40Dnd9apb8tjNp6QujsfU9k1H7GxJGlw5/Paf9/7bAwAZw2u+AAALlFQAACXKCgAgEsUFADAJQoKAOASBQUAcCntY+YV135MhRcstrF08tme/a/aODD0apNGDrTYWJKUN/MCVa39go0DI927Nd7XY2NJ0tjRbg3s2GjjQMV1H1fh+YtsLEmKDPXpRHuC1/zKJo0cbLWxJCmvboGq1nzexoGRrjfiPkM1drRLAzuesjEAnDXSXlAzP/uwypeut7Ekaei1zWq7Z5mNJ6Ro4TLNur/JxoHOB25V3wuP2nhCpuwZqnet0KyvPm/jQOe3b1Hf1l/aGADAFR8AwCsKCgDgEgUFAHCJggIAuERBAQBcSvsU3/Sb71PxFTfYWJI0eqBFbz75XRsHEq2uKJhzhWru+IGNA8eafq7hln/YWJrA6orpH7lfxZdfb2NJ0kj3Hh3d+D0bBxK+5rlXqeYTG2wcOLbpZxpu3WFjaQKvGQCyXdoLKhHWbbwd6zYAID6u+AAALlFQAACXKCgAgEsUFADAJQoKAOASBQUAcOm0jpnnVtSo5MrVNg4MvdYcd91GMkULlymvep6NJUljvd2TXl2Re06NSq6I/5oHX23SaJx1G8kULVyuvOq5NpZOrtv459M2BoCzxmktKAAAJoorPgCASxQUAMAlCgoA4BIFBQBwiYICALhEQQEAXKKgAAAuUVAAAJf+A0mb/yOjV3dZAAAAAElFTkSuQmCC;" vertex="1" parent="1">
          <mxGeometry x="380" y="40" width="424" height="197" as="geometry" />
        </mxCell>
        <mxCell id="n9dQfp6F3I3MkhqRtmCc-4" value="" style="shape=image;verticalLabelPosition=bottom;labelBackgroundColor=default;verticalAlign=top;aspect=fixed;imageAspect=0;image=data:image/png,iVBORw0KGgoAAAANSUhEUgAAAaYAAADGCAYAAACZ8iTtAAAAAXNSR0IArs4c6QAAAARnQU1BAACxjwv8YQUAAAAJcEhZcwAAEnQAABJ0Ad5mH3gAAA9oSURBVHhe7d15cNz1ecfxz2olayWtfEiW5Eu2fFEb3zQ+wMbQtJNACs2EoyFADJlpSpvQYDB0GmqOadODPzotUFoSjGnjDmlobTqTEAwtBNu49RXwQU0MtrGx8W1jJNkrW8f2DyU/hce7v92utNKz8vs18/3ng0fsIwZ9rN98d5+IIpGk3IsoUlRkwy4dHUqqAMYA0O9FFJH4edUtEYnvEADAj5BaBwCg91FMAABXKCYAgCsUEwDAFYoJAOAKxQQAcIViAgC4QjEBAFyhmAAArlBMAABXKCYAgCsUEwDAFT7EFe4Vl5QrEh1g47xrbz2jjvZWG+fdxTdvhSLREhvnXV/Ni8woJrhXPWqOygeOsnHenTy4SWcbD9o476pHzVX5wJE2zrsTBzcq0fiRjfOuun6eyitH2DjvThzYoETTIRvDAR7loTBEIr1/+krk4po3oj6at+9GRgYUEwDAFYoJAOAKxQQAcIViAgC4QjEBAFzptevi48aO0ZK7/9DGge//4AVt3PKWjXERKB5QqcrqCTYOxBfeotKGGTbutrHlbbp99FkbB/7pBy9q646f21iS1HquSc2ndts4KyWllYpXpZ+38qpbNWDMNBt327iKNt1Wn37e555fpW3v7LKxJKn1XKOaT+2xcVYyznv1bRoweqqNu21CRZu+EjLv8n9Zqe0737Ox1M150X29Vkzz583Wm6/8yMaBO+76I33/X//NxrgIlFbUqLZhoY0DsZvvVfG0+TbutnlV57X8so9tHPjGQ8/qx6+l/stSy5ljOr5vnY2zEquoVU3DlTYOxL68RMVTLrdxt11RdV7LQua968Fn9PIbW20sSWppPqrj+9+0cVZi8TrVjFlg40DslgdUfOlcG3fbldXn9N1Zp20c+Pq3v6dX1myzsSSppfmIju9fb2P0Eh7lAQBcoZgAAK5QTAAAVygmAIArFBMAwJVeu5U3c9oUPfePj9s48NB3HtOPV/+njdFPhK1yKB00XNVTv2DjQOnnbld0wkwbS5LKo0mNLm+3cVamD2zVo5MbbRz4y6f+Q2s3vWtjSdLHJw/r7c2v2jgrpYNHqHrKtTYOlH5+kaLjp9tYklQRTao+x3lnDmrVw5PSz/udJ1fpzS2pr4ufOvGRtm75LxtnJTZ4pKqmXGPjQOk1dyg6LvX1+IripOrLcpv3skHntXRSk40Df/bESv33z1JfF880Lysz8qvXiikSiaioKP0vaB0dHUome+WloA+Era6IjpuqsjsesXGXX34adApzh4RfgQ4TkVSU+stKkjo6kkqm+d9j/ZZduv2eJ22clej4aSpb9LCNu4TMe3nVeX1vVu/Pu3bju7rjvqdsnJXohBkq++pSG3cJmXd+9Xk9PbP3512zYafuXPIPNg6wMiO/0jdFD0smk2pvb097KKWLwAVrB37lFBWlP2l+aEmdP32iOZ6wH1qSVFQUUbSoKOUpsq///3VSzJjlvBFdOEe2p1vz/vJ15XRSzFjo8yKveq2YAADIBsUEAHCFYgIAuEIxAQBcoZgAAK5QTAAAVygmAIArFBMAwBWKCQDgCsUEAHCFYgIAuEIxAQBcifTWp4vj4jaobqpi8TobS5KK6ycpftMSGwcig2sVKauwsSRpWobVFWEqMqzMOHD4pBqbztpYkvTWjt164C+W2TgrxaMnK37jfTYORIbUKhJLPe+MDKsrwmSc99BJNTannnfztvf1J3/1rI2zUjJmiipuWGzjQNi8swa1ammO88YzrMz48NAJNTUnbCxJ2rR1l77918/ZOHD6yHadO3PcxughFBN6UepPZY7Fa1TTsNDGgdjNi1U8db6NA7n+2j+36ryeDVmZ8c2Hl+ul19+ysSSppfmYjn6wzsZZicVrVdNwpY0Dsd+9T8VTLrdxINd5r6gOX5nxB3+6TKvXbLWxJCnRdFTH9r1p46zE4nWqaVhg40DslvtVPHmujQO5zrtg6Dk9PfO0jQN3PfiMXlm7zcaSpETTER3bt97Gv4Ifm/mU639zIAfJlCeZTEqhx36dT+vI8WT4skomk+roSHOSF86R9blgPnMysHNkfTJ86bB5O9fSdOPYGT917Cv5tAvmyPJk+lZ2dGte5BPFBABwhWICALhCMQEAXKGYAACuUEwAAFe4Lo4+Fy0pU1l8uI0DAz/zO4qNnGxjSVLR0BEqufw6GwduGpnQlMpWG0uSmo8e1p7XXrZx4OVXV2v37vdtLElqb0so0XTYxlnJNO+g2V9U6YhJNpYkFdWMVMm837Zx4OaRCV2aZt6mI4e09/XVNg785JWfaM+ePTaWJLW3nVWi6YiNs5Jx3jlfUunwS2wsSSqqqVfJvGttHPjyqIQmxdPMe/ig9v70VRsHXlr9kvbu3WtjSVJb61m1NOc2L7qPYoJ71aPmqHxQvY0lSdFxU1V256M2DvzNtE90bV2LjSVJ67fs0le+9YSNAycPbNTZxoM2zrvq+rkqHzjKxpKk6PjpKrvjYRsH/m76aX2u9pyNJUlrN72r2xf/vY0DJw5sUKLxIxvn3dD6eSobONLGkqToxJkq++pSGweemH5av5Vm3jc27NSi+56yceDEgf9RovGQjeEAj/IAAK5QTAAAVygmAIArFBMAwBWKCQDgCrfy4F7mlRnpV0jcO6FZ86vO21iS9PY74asrPjm6Qy3Nx2ycd4Prpqk0XmtjKViZca+NA0smNOvyNPNu2R6+uuKTIzvUcqYP5h02TaUVqeftXJlxj40DD0xs1twhqefdtHWXHnyM1RWFiGJCQYtV1IauzIik3rQh/WJ1xbF9a23sWixep5ox6VdmhM97VMf25baqo6/E4sNUMyb9yoyweRNNR3R8f26rOtC3eJSHgpa8YB3Bp08yGXIK8u9kF86Y9byZ9kC4dOGM2c7b+WdQiCgmAIArFBMAwBWKCQDgCsUEAHCFYgIAuFIQ18UnjC3R/XdX2Tjw3POfaOPPUn+CdF+ZOGSYlsxJv47h7f37dPDUKRtLkqrjcV0xMfUaAElavv2n2nQ49XqCi020uExllcNsnJX2tpacV1f0lc4VErnN29aWUEuOqyv6SrfmbU2wuqJAFUQxLZhbpnUvjbZxYNE3DmvFC4027lML6ydrza2P2DiwcvNGbT/woY0lSQ1Da/S1hVfbOHDbj57U8zvX2xgA+gUe5QEAXKGYAACuUEwAAFcoJgCAKxQTAMCVflFMY+pLdNn0WMpzyfgB9o+7MLi8QsMHD0l5quNx+8cB4KLRL66Lh31o8roNCV11fepr2fmU6bq4Qr7xIZ/kL3FdHEA/1y9+Y4pEwo9XkTQHAC5m/aKYAAD9B8UEAHCFYgIAuEIxAQBcoZgAAK70i+viYdZtSGjhdbldF58wZJjuD1ldEaZUxapOVtq4R3wcOaOEzts4K6zMAOAdxRTiylGTtPa2R22clf0njmv52jds3CNumj1X0+pz+37wHigA3vEoDwDgCsUEAHCFYgIAuEIxAQBcoZgAAK4UxK28mVNLtezxYTbOytYd5/R7i4/YOCtzh03Qqi8usXFgSHmFygakXquR6VZe24CkOopt2inSLpWcS/9xrmG38s63telEc5ONA3e/tlwv7t5sYwBwoyCKqa+MLhuqO0ddZePAjbPnaHr9GBtLWRTTiYZ2nalK/a2PNUdU917UxoGwYtp3/LieW5f+37vqyCa903TAxgDgBo/yAACuUEwAAFcoJgCAKxQTAMAVigkA4ArFBABwheviIWbWNGjZb/y+jQMNNbWqjsdtLGVxXbylMqm20tTf+mhrRGWf5PY+pqaWhN47fNjGgaUbfqjVH26zMQC4QTGFYO0FAPQ+HuUBAFyhmAAArlBMAABXKCYAgCsUEwDAFW7lhZhZ16Bnrkl/XTxM89kW7dp/yMY9YuyIWlUNSn1NPZOla3+oVz7gujgAvyimPFlYP1lrbn3Exj2CK98A+jMe5QEAXKGYAACuUEwAAFcoJgCAKxQTAMAVigkA4EpBXBefUCf98XU27bJ8jbRht037Vqbr4m/t+0AHT520sSSpurJS8yf+mo0DXBcH0J8VRDEtuERa95BNuyx6Wlrh7Od0pmJauXmjth/40MaSpIahNfrawqttHKCYAPRnPMoDALhCMQEAXKGYAACuUEwAAFcoJgCAK25u5Y2tkYZW2rTTjNpiPXNt+jUPi1ad1Ypt523cp2bVNei7n/+6jQOv7/xf7T56xMaSpOGDB+v6Wb9u48BD615gdQWAfstNMf3zXdKiBTb9hfeqpD+fb9PAIr2tFTpoYwBAAeJRHgDAFYoJAOAKxQQAcIViAgC4QjEBAFyhmAAArlBMAABXKCYAgCsUEwDAFYoJAOAKxQQAcIViAgC4QjEBAFxx8+nij94gfWGGTTtVHhuoSS+n+YeSFh3bpRXNx2wMAChAboopzIJLpHUP2bTLoqelFettCgAoRDzKAwC4QjEBAFyhmAAArlBMAABXKCYAgCsUEwDAlYK4Ll43SLp+lk27vPGutPuoTQEAhaggigkAcPHgUR4AwBWKCQDgCsUEAHCFYgIAuEIxAQBcoZgAAK5QTAAAVygmAIArFBMAwBWKCQDgCsUEAHCFYgIAuEIxAQBcoZgAAK5QTAAAVygmAIArFBMAwBWKCQDgCsUEAHCFYgIAuBKRlLRhXlREpUvKbNplf4t0qs2m2RlTKlWV2LRTc7v0fsKm2YlHpYl5es0AgJR6r5hmx6UXL7Vpl8V7pX8/YdPsPD5OunGoTTttapJueNem2ZlTKa2abNMu39ojrTppUwBAN/AoDwDgCsUEAHCFYgIAuEIxAQBcoZgAAK5QTAAAV3r2uvgtNdJn4jbt1Nwu/Tzk/UQbmqR9LTbtNDYmfXO4Tbt80CKdTPN+ouOt0munbdrl1hrpsjy8ZgBATnq2mP52nHRzmvcTbW6WvrTTptmZXSm9GPJ+onv2SitzfA/UE+OlG6pt2qk774ECAOSER3kAAFcoJgCAKxQTAMAVigkA4ArFBABwpWdv5d07UvrsIJt2+vCctOyoTbuErZC4tFx6rMGmXVaelLadsWmnTGsvloyUrk7zmvefk57N8TUDAHLSs8UUhrUXAIAs8CgPAOAKxQQAcIViAgC4QjEBAFyhmAAArlBMAABXeu+6+NAS6TcH27TLxm6skJhXKY2J2bTT8Vbp9ZC1F2FqSqTPhrzmDY2d73UCAPSY3ismAACywKM8AIArFBMAwBWKCQDgCsUEAHCFYgIAuEIxAQBcoZgAAK5QTAAAVygmAIAr/wcNYgA6IGQj+QAAAABJRU5ErkJggg==;" vertex="1" parent="1">
          <mxGeometry x="380" y="237" width="422" height="198" as="geometry" />
        </mxCell>
        <mxCell id="n9dQfp6F3I3MkhqRtmCc-5" value="" style="shape=image;verticalLabelPosition=bottom;labelBackgroundColor=default;verticalAlign=top;aspect=fixed;imageAspect=0;image=data:image/png,iVBORw0KGgoAAAANSUhEUgAAAaUAAADDCAYAAAAiCA5dAAAAAXNSR0IArs4c6QAAAARnQU1BAACxjwv8YQUAAAAJcEhZcwAAEnQAABJ0Ad5mH3gAABjrSURBVHhe7d15lFTlmQbw59at6lp6A7obmm5oNmVTAUFWBcwcojHLiYIICm5jHE6MyRgcNe7JZHEmZ85oEhF3zKYxRo0mxigu7OuoKMoOytIL0k03Xd1V3bXOHw0XfOveW0XX9oHP75zvn0e7zn2rquuxy3vvpwGIg4iISAEOGRAREeULS4mIiJTBUiIiImWwlIiISBksJSIiUgZLiYiIlMFSIiIiZbCUiIhIGSwlIiJSBkuJiIiUoeXqNkNerxc1/apkbKhv+Bytfr+MiaA7PdB0l4yzLhoOIh6LyDjrdKcXmu6UcdblbV6XF5qD82ZbvuY9WTkrpfMnTcA/X3pOxoYbbl6IP7/0ioyJ0Kt6PHwl1v9Bky1NBzYi6K+TcdaV9ZsAb3FfGWdd04ENCPrrZZx1Zf0mwltcKeOsa9y/Hh1tDTLOurL+E+Etyse869DRdlDGysnZ13e6w4GiwkLL5XLq8keIAACawwHN4cz5gqbJQ8kJTfuSzZun11fL17yanngsOVj5en1PVs5KiYiIKBmWEhERKYOlREREymApERGRMlhKRESkjIyeEj7vipkYO2a0jAEAoc4QDjU2ytjQs2dP+HxeGQMA9nz6GRY9sUTGdJpwFhShqNdgGRuKp86Fu+ZsGadtoC+KK/oFZWz4/fMvY/OW7TIGAEQ6/Whr/lTGKXG6i1HUc5CMDcXTroK7/0gZp21QYRSzq63n/d2fXsLHW3fIGAAQ7vSjvZvzutzFKLSZt2T6PBT0GyHjtA0ujOJym3mfefYv2LJ9l4wBAOHOVrQ3fybjlLjcJSjsOVDGhpILr0ZB9TAZp+2MoghmVnXI2LDkjy9g647dMgYAhDta0d7SvXkzLaOl9PvHF2H+nFkyBgCsWLMO0y+5VMaGPzyxCPOuMP/Z5avX4sKvXyZjOk14CnujYuBUGRs8c26F86zJMk7blF4hPDm2WcaGBXc9gdeXbZIxAKCj7SAO7V0l45R4ivqgYsAFMjZ45t4G58iJMk7b1LJOPHZui4wNN975ON5Y/qGMAQAdbQ04tHe1jFPiKapExYDzZWzwXHUHnMPHyzht08s7sXiM9bw33P4olq7aLGMAQNBfj8Z9a2ScEm9xX5TXTJGxwTPvR3AOO0/GaftKRScWjbae97r/WIx31nwsYwBA0F+Hxn1rZZwX/PqOiIiUwVIiIiJlsJSIiEgZLCUiIlIGS4mIiJSR0bPvfvmf9+Jbl1wsYwDAlm3bcfdPH5Cx4Yc3LcC0883PsNr4/iZcs+BmGdMpRHd64bDYjsFdWoWyEebvGwBwX3I99DPHyBgA4NXjqPREZZySsaVh/HRkq4wN9z/4AlZs2CpjAEBLUx0+2fS2jFPiLq1G2YiLZGxwf+NfoQ8xv7QinXnP6xHGT0ZYz3vf//4ZKzdukzEAoLmpDlu6O2+Pfigb/lUZG9zf/A70wefIGADg0+Po0815x/cI48c28979P89jzXvmp/w3N9Ziy4fvyDgl7p79UTZshowN7m/dCH2Q+SUO6cw7sWcI9w233v7nzl8+h3Uf7JQxAODwof3Y+tEyGRsiOdz2IqOl5HYXwGnxwTNpwji88txvZWy4aeEdePGV12QMAIjGYujosD7/ntRXVj0eXovtJ/TB58A7/x4ZGzSnC3CY/1E/sVcIj9icBmvHoQFuh/XbvzMUQTRq/gGxauM23HD7IzJOiT5kNLzz7pKxwW7eKb1C+E0e5l2xYStuvGOxjFOin3kuvFf+SMYGu3kvKAvhV6OyNW8Y0WhMxgCAZes+wYI7H5NxSpxDx8Ez93YZG+zmnVbWiQdHHZFxSnQNKOjmvG+v3oyb7nlCxoZcbnth/sx0U2dnCO2BgOkKh8Io9PksVzQaTfiZY4uFdBqw255Ad0ErcFsuq19gANCP/vXQnWX3gQUA7gInfF636XK7CxLnSHWlMa9Dy8+8njzNq2uJc6S6ks/rSpjTeH0L8jNvOq+vXSEh2bxJXt+uv19yw/rZISIiyjGWEhERKYOlREREymApERGRMlhKRESkjJyV0u7P9mLhnfdZrvc2fSR/hIiIvmRyVkq1dfV48JHHLde2Heb7mhAR0ZdHzkqJiIgoGZYSEREpg6VERETKYCkREZEyWEpERKSMjN4lnMhKj8rR8BT1kTEAwDlgJApn3ypjg1ZSBs3tlTEAYExpGD+z2X7CjlePo6/NNgH1h1rQ3m5+M+ANm3bg1p8+KeOUOAeehcLLF8rYYDfvuCTbT9hJOu/nLWgPmM+77oPtuO1nT8k4Ja7B58A38xYZG+zmHd8zhPtttmOw40uyzUf9581oD3TKGACw5r2tuOMXS2ScEteQ0fBd9gMZG7TScmgFHhkDACYk2X7Cjk+PodJjfhdwAKj7vBkBi3lXbfwEd/6X9S4OzXXvozPQKOOsYClRTmiaA9DM7zTsKeqD8sEXytjgmfUDOEdOlDFw9K7Kye6ObGVyzxAWjbHeFuH79y/BmyvNr58LtDagdvcKGafEU1yJ8kHTZWzwzL4FzuHjZQykOe/5Sba9uPm+p7F01WYZAwDaW+tRt3uljFPiKe6L8kHTZGzwXLEQzmHjZAykOe/UJNtefPeeJ/HOmk9kDABoP1KHuj2rZJwSb0kVygZOlbHBO+dW6EPHyhhIc97pSba9+Lc7n8Dy9VtkDABoO1KL+j2rZWyIx2I5qwp+fUc5EY/HEI9FzVc0AoQ7rVfc+r/+YnGgI6p1a3XGzEvymFA4gmBHyHR1hsKJc6S6ks0by868IeuHBQB02swbyua8WXp9k80bClnPm83XN56teePdfz8ne31zVUhgKRERkUpYSkREpAyWEhERKYOlREREymApERGRMnhKOOWd7vLBV1IlY0PJhJlwVw+XMQDAUV4F1/iLZWy4rCqIYUURGQMAgp/XoWH1WzI2vPraa9i5a6eMAQCRcADB1joZp8Tp8sFrN+/EWXBXDZMxAMBRXg3X+ItkbJhZFcRQq3kP1qJhzdsyNrzy979j127zu/VHQgEE/dmZt3TSbBT0PVPGAABHRX+4zpshY8OsqiDOtJq3oRYNa63n/evfXsXuPXtkDKQ7b0EhvMV9ZWwonXQFCvqeIWMAgKN3f7jGWc87uzqIIYXm8wbq9+PgundlbHjplVfw6WefyhgAEAm1I+ivl3FesJRIeWX9J8JX0k/GAAB9yCh4r71PxoaHRrXgot7mFwyu2LAV8295WMaGxv3rEGytlXHWlfefBG9JtYwBAPqZY+C9+h4ZG349qgUzLOZdtm4Lrlm4SMaGxv1ru1206SivmQxvsXlp6UPHwjv/LhkbHh7dgn+pMJ/3nTUf47r/WCxjQ+O+NXn5IC6vmWJZWs5h58Ez70cyNjwypgUXlpvPu3TVZtxw+6MyNhzatxod/gYZK4df3xERkTJYSkREpAyWEhERKYOlREREymApERGRMnQAP5YhkUrcvnI4dBdi0VDCgq8YroFnIx5oNV1jCppQ1HkEh1vaEta2Xfvx+jvrEh7z2Orw1yMSapeHk3XuwjJoDot5C0vgGnBWwpzH1rkFTSi0mHfLzn3457s287bWIRLOw7y+cst5taJSOAeMTJjzxHl9lvPuxRvvrk94zGMr6K9DNByQh5N1XfM6E47HmLdmRMKcx9bYgiZ4Leb9ZMdevLlsQ8JjHp+3Ni/zniyeEk7Ks9/2ohLlg623gShwxKGb/2jS7Sfi8RgQz/2vh+28SbaBsJs32fYTas5bhfJB1ttA2M57pB51e06teZNte2E/r/12G7ncfiIdLCU6pXmKeqNigPUvsZ2OtoM4tNf6l1hFnqI+qBhwgYxT0tHWgEN7rffMUZGnuBIVNefLOCVBfwMa951a83qL+6K8ZoqMUxL016Nx3xoZn3L4/5SIiEgZLCUiIlIGS4mIiJTBUiIiImWwlIiISBk8+45Oacm2vbCTzvYT+ZJsGwg76WzHkC/JtoGw8+WbV53tJ9LBUiIiImXw6zsiIlIGS4mIiJTBUiIiImWwlIiISBksJSIiUsZpcfZddV8nSkvM+7U9EMfe/WEZZ0aJF/A4ZdolHAWa83Cb+AId6OGT6XGtHUBHlp6PLNFdXjgcLhlnXTQcQCwWkXHWfdnmJTrRaVFKSx6uxJxLS2QMAFi5NoCLZx+QcWbMHgecUy3TLp82AkvycMfeweXAdTZ3Gf7ze8DHtTJVWlm/8fAWWzzPWdR0YENernMp6zcB3uLuXYuUjqYD60+L61zo1Gb+58UppsClwesxXwUFFpuPZILuAFy6+XLm6anVtMRjOXE5svh8ZIvmgObQc76s9rzJNu1LNi/RifL0yUlERJSIpURERMpgKRERkTJYSkREpAyWEhERKeO0OCX8j4/1xVWzzE8JX7Y6gK98e7+MM2NoH6CiSKZdnDpQ7JHpcUMCQK9uXi+0xwc0WVzHEokC/g6ZHrf9INDYJtO8chYUoajXEBkbiqddCfeAs2WctkG+KOb2s76W7Ld/ehkffbJdxgCASMiPtsN7ZJwSl7sYhT0Hy9hQMn0eCmpGyjhtgwujmFNtPe8zz72EzVt2yBgAEOn0o625e/MSnQyWUrYMrgBuvECmx009DAwMyjQ1K3sBn3ll2mX3IeDJVTJVmqewNyoGTpWxwTPnVjjPmizjtE3pFcKTY5tlbFhw1xN4fdkmGQMAOtoO4tDe7j3PnqI+qBhg/d7wzL0NzpETZZy2qWWdeOzcFhkbbrzzcbyx/EMZAwA62hpwaO9qGRNlHL++IyIiZbCUiIhIGSwlIiJSBkuJiIiUwVIiIiJlnBZn3/33/RX4xlcLZQwA2PhBB67/foOMs29oGfBDmzPGhrcDFSGZpmZbIXCoQKZdtjcBD62Vad7Zbcfg7lGFspFfk7HB/bVroZ8xRsYAAJ8eR5UnKuOUnNsjjJ+MaJWx4Se/+gtWbtgmYwBAc1MdNr//loxT4u5RjbKRF8vY4L7keuhDRskYSHPecT3CuN9m3vsffAGr/8/8FPjDTbX4+P23ZWzgtheUKadFKblcGnSLv/licSAUysOIk0uAP42Q6XFrewD7LE7rTmZyC1BjcTr5mlbgyq0yzbuyfhPgLTHfjkEfdA5819wr4+N0HdDMX+BJvUJYPMb6NGc7DsThMn9YAEA4EkUsFpMxAGDlhm24/rZFMk6Jc8hoeOffLePjbOad0iuERXmYd/n6Lbjh9sUyNjTt57YXlBk2b9FTRzgcR0en+cpLIeFo3etx6xXXgGg3l2byeMeWI0/zJqNp0DTdfOlOwOmyXhYf0Dj6BnY74t1adh/QAOBy6nAXuEyXy+VMnCPFBUca82r5mbfA5UqY4wszgdteUGYkeZsSERHlDkuJiIiUwVIiIiJlsJSIiEgZLCUiIlIGS4mIiJTBUiIiImWwlIiISBksJSIiUgZLiYiIlMFSIiIiZbCUiIhIGafFXcKVNKEUePpsmR5nt/1EMnbbXqw/AtzwsUzzrkflKHiK+sgYAOCsGYHC2bfK2KCVlEPz+GQMABhTar/9hB2fHke113obiLqDzfC3m9+NfeOmHbjt50/JOCXOAWeh8PIfytiglZZDc5vPO7ZHGPcP7968hU77bS9qDx5GW3uHjAEA6z/Yjjt+8bSMDS31m9DRfkjGRCeNpZQtQ8qBBRfI9Di77SeSsdv2Ytch4PHVMs07TXNY3knaXdQbFYOny9jgufwWOEdOlDFw9K7ZLq17b+Fk217cfN/TeGPFRzIGAAT8DajfvVLGKfEU90H5oGkyNniuWAjn8PEyBtKc9/yyEB4ebT3vTfc+haUrN8sYABDw16N+9yoZG+LxGD9KKCP49V22JNuawm77iWTL7rFj5h/8+RaPxxCPR00XYlEgErZecfM9fnB0v6zOmNatFU7yXIUjUXSGwqYrHI4kzJHySjavxZ5GSHte+WhflM68LCTKFJYSEREpg6VERETKYCkREZEyWEpERKQMlhIRESlDmVPCr5lTgnGjPTLuEggDe5tlavjdKuC9T2WaA2NrgOoeMu0SjgKt5td8AACqOoCSiExTU+cBWp0y7eLSgRKL5xEA3tsH1FmfFpwPussLb3G1jA2lEy6Du3q4jAEAjvIquCZ8TcaGmVVBDC82f54DB+tQu3KpjA1/+8dr2Llrl4wBANFwAEF/nYxTort88BZXydhQOnEm3FXDZAwAcFRUwzX+YhkbZlUFMcxi3vaGWtStekvGhldf+zt27d4tYwBANNyOoL9exkQZp0wp/eHRvph3eYmMuxwOAOv3y9Qw7xHg2bUyzYG544HR/WTaZc8h4Anr6zqyZkgF8B2b66Oe2wh8dECmSivrPxG+EvPnWR8yCt5r75Ox4aFRLbiod6eMAQArNmzF/FselrGhcf86BFtrZZx15f0nwVtiXtL6mWPgvfoeGRt+PaoFMyzmXbZuC65ZuEjGhsb9axFs7V7REmUKv74jIiJlsJSIiEgZLCUiIlIGS4mIiJTBUiIiImXoAH4sw2wo9Dkw7IwC9K5wmq5vTnNjaJUGhKKJ63AM+DAOtLpN10sfxLH5YJK7TWZD/16AxwW0dyaug35gax5OoS1yAzW9Eo/n2NraADS1y59SmttXBofuQizambDgK4JrwEjE24+YrlF6E3ydLWhq9iesbTv345/vrk14zGOrw1+HSCj3z1WBrwwO3ZlwPF3zFsM1YETCnMfWaGcjvB3m827ZsRdvLFuX8JjGvK31iIRzPy/RiXJ2SvgFk7x468X+Mja4tjbAcdAv4y7begEPTJKpYV7sAzwby8OprA6ta5mJA4jmoSg1DdAtjgkAonEgnpOXPGO6tr0w5y7qY7vthVOLW34dEPQfRP2eFTI2xOPxXP16fIHdvJ7iStttL+zmDfgb0LDHeruNfM1LdCKr92/GOTTA7dYsl0M7el9+0wUg4rBeSbYgyJpYHIjEzFc+CgnoKhx5LCeuU6yQYGx7Yb4Qt98GIhKOIGSxwpFIwuN94bHz9AEtj+MLK8m2F3bzRhSdl+hEOSslIiKiZFhKRESkDJYSEREpg6VERETKYCkREZEycnZK+LTJXiz/W42Mj/uwHqhrlWmXbWXAz6fI1DAP7+NZ5P5uzpR/XdtA9JVxSqLhYLe3n8iX9OYNcPsJUh5LiYiIlMGv74iISBksJSIiUgZLiYiIlMFSIiIiZbCUiIhIGTk7+27caA+W/KZSxob+bS3oEQrKuMuuEuBXI2VqmNe0Fc8GPpcxERGdYnJWSpoGuFzWd/N+5jeVuPKyYhl3ORwE1lqf8j3vsTieXZeTMYiIKIty9vVdPA6EQnHLFYufsD9RwgLgjFkvjYVERHQ6yFkpERERJcNSIiIiZbCUiIhIGSwlIiJSBkuJiIiUkbNTwpP56oWFGHaGS8ZdOiLAwTaZGt7cDOxokCkREZ1qlCklIiIifn1HRETKYCkREZEyWEpERKQMlhIRESmDpURERMpgKRERkTJYSkREpAyWEhERKYOlREREymApERGRMlhKRESkDJYSEREpg6VERETKYCkREZEyWEpERKQMlhIRESmDpURERMpgKRERkTJYSkREpAyWEhERKUMDEJdhNhT6HBgy0CVjw77aMFqOxGSckppqF3qUmvdrWyCGPZ+FZZySwkIHhgzIzjETEVGinJXS1ElevP1yfxkbrv1eA557qVXGKfndI30x97JiGQMAVqwJYsas/TJOyfQpPix9sZ+MDVd/tx7P/9UvYyIi6ibzPy+yQNMAl0uzXI40jkTXrR9bd8p/O3XJj1mTP0JERGlIowqIiIgyi6VERETKYCkREZEyWEpERKQMlhIRESkjo6eEXzu3FOPP9cgYABAIxrB3v/X1QkuXBbBjd0jGAIAzBxfg3xf0lLGhtj6CVn9UxsDRf/bXf7TJ2HDdlaU4b0z3jvnNdwPYucf8mImI6ORltJR+v7gv5s8ukTEAYMXaIKZ/a5+MUzJ9ig/LXrW+xmnegno8+2L3rnH642N9cdUs82NetjqAr3y7e9c4ERHRyePXd0REpAyWEhERKYOlREREymApERGRMlhKRESkjIyefffzu8vxjYuKZAwA2L4zhF882CRjw74DETQfMT+te9xoD576daWMDY8uacHajUEZAwDa2mPYbbN1xQP3VuCSGYUyBgBs2xHCAw9ZH/PeA9y6gogokzJaSroD0CzunH3BRK/tNhDXfK8Bz1mc1q1pgK6bPy4APPNwJeZcar51xfI1QcyYaX1at90xT5vsxRsvWB/z/O/W4/mXuXUFEVGmZPTru2gMiETipisWi8Pp1CyXRS8AAOJx68eNROLQNCQ83rGl6/LRvsj+mK0ft+uYbQ6aiIhOWkZLiYiIKB0sJSIiUgZLiYiIlMFSIiIiZbCUiIhIGRk9JdxOVaUTl37d/BomAHhrufXWFcnMmO7D0CEFMgaObl3xyuvWW1fYSXbMS5dx6woiokzKWSkRERElw6/viIhIGSwlIiJSBkuJiIiUwVIiIiJlsJSIiEgZLCUiIlIGS4mIiJTBUiIiImWwlIiISBn/D2vAybE3eYrlAAAAAElFTkSuQmCC;" vertex="1" parent="1">
          <mxGeometry x="380" y="435" width="421" height="195" as="geometry" />
        </mxCell>
        <mxCell id="n9dQfp6F3I3MkhqRtmCc-8" value="" style="rounded=1;whiteSpace=wrap;html=1;fillColor=none;strokeWidth=3;strokeColor=#28a7f7;" vertex="1" parent="1">
          <mxGeometry x="381" y="45" width="60" height="55" as="geometry" />
        </mxCell>
        <mxCell id="n9dQfp6F3I3MkhqRtmCc-10" style="edgeStyle=orthogonalEdgeStyle;rounded=0;orthogonalLoop=1;jettySize=auto;html=1;entryX=0;entryY=0.5;entryDx=0;entryDy=0;endArrow=none;endFill=0;strokeWidth=3;strokeColor=#28a7f7;" edge="1" parent="1" source="n9dQfp6F3I3MkhqRtmCc-9" target="n9dQfp6F3I3MkhqRtmCc-8">
          <mxGeometry relative="1" as="geometry" />
        </mxCell>
        <mxCell id="n9dQfp6F3I3MkhqRtmCc-9" value="Type: &lt;b&gt;Laser&lt;/b&gt;" style="rounded=1;whiteSpace=wrap;html=1;fontSize=18;strokeWidth=3;strokeColor=#28a7f7;" vertex="1" parent="1">
          <mxGeometry x="26" y="57" width="124" height="31" as="geometry" />
        </mxCell>
        <mxCell id="n9dQfp6F3I3MkhqRtmCc-11" value="" style="rounded=1;whiteSpace=wrap;html=1;fillColor=none;strokeWidth=3;strokeColor=#28a7f7;" vertex="1" parent="1">
          <mxGeometry x="394" y="104" width="51" height="36" as="geometry" />
        </mxCell>
        <mxCell id="n9dQfp6F3I3MkhqRtmCc-12" style="edgeStyle=orthogonalEdgeStyle;rounded=0;orthogonalLoop=1;jettySize=auto;html=1;entryX=0;entryY=0.5;entryDx=0;entryDy=0;endArrow=none;endFill=0;strokeWidth=3;strokeColor=#28a7f7;" edge="1" parent="1" source="n9dQfp6F3I3MkhqRtmCc-13" target="n9dQfp6F3I3MkhqRtmCc-11">
          <mxGeometry relative="1" as="geometry" />
        </mxCell>
        <mxCell id="n9dQfp6F3I3MkhqRtmCc-13" value="Power: &lt;b&gt;Very&amp;nbsp;Low&lt;/b&gt;" style="rounded=1;whiteSpace=wrap;html=1;fontSize=18;strokeWidth=3;strokeColor=#28a7f7;" vertex="1" parent="1">
          <mxGeometry x="170" y="106" width="173" height="31" as="geometry" />
        </mxCell>
        <mxCell id="n9dQfp6F3I3MkhqRtmCc-14" value="" style="rounded=1;whiteSpace=wrap;html=1;fillColor=none;strokeWidth=3;strokeColor=#28a7f7;" vertex="1" parent="1">
          <mxGeometry x="393" y="149" width="51" height="36" as="geometry" />
        </mxCell>
        <mxCell id="n9dQfp6F3I3MkhqRtmCc-15" value="Range: &lt;b&gt;Very Short&lt;/b&gt;" style="rounded=1;whiteSpace=wrap;html=1;fontSize=18;strokeWidth=3;strokeColor=#28a7f7;" vertex="1" parent="1">
          <mxGeometry x="40" y="152" width="170" height="31" as="geometry" />
        </mxCell>
        <mxCell id="n9dQfp6F3I3MkhqRtmCc-16" style="edgeStyle=orthogonalEdgeStyle;rounded=0;orthogonalLoop=1;jettySize=auto;html=1;entryX=0;entryY=0.5;entryDx=0;entryDy=0;endArrow=none;endFill=0;strokeWidth=3;strokeColor=#28a7f7;exitX=1;exitY=0.5;exitDx=0;exitDy=0;" edge="1" parent="1" source="n9dQfp6F3I3MkhqRtmCc-15" target="n9dQfp6F3I3MkhqRtmCc-14">
          <mxGeometry relative="1" as="geometry">
            <mxPoint x="353" y="132" as="sourcePoint" />
            <mxPoint x="407" y="132" as="targetPoint" />
          </mxGeometry>
        </mxCell>
        <mxCell id="n9dQfp6F3I3MkhqRtmCc-17" value="" style="rounded=1;whiteSpace=wrap;html=1;fillColor=none;strokeWidth=3;strokeColor=#28a7f7;" vertex="1" parent="1">
          <mxGeometry x="385.5" y="193" width="114.5" height="44" as="geometry" />
        </mxCell>
        <mxCell id="n9dQfp6F3I3MkhqRtmCc-18" value="Speed: &lt;b&gt;Very Fast&lt;/b&gt;" style="rounded=1;whiteSpace=wrap;html=1;fontSize=18;strokeWidth=3;strokeColor=#28a7f7;" vertex="1" parent="1">
          <mxGeometry x="183" y="199.5" width="172.5" height="31" as="geometry" />
        </mxCell>
        <mxCell id="n9dQfp6F3I3MkhqRtmCc-19" style="edgeStyle=orthogonalEdgeStyle;rounded=0;orthogonalLoop=1;jettySize=auto;html=1;entryX=0;entryY=0.5;entryDx=0;entryDy=0;endArrow=none;endFill=0;strokeWidth=3;strokeColor=#28a7f7;exitX=1;exitY=0.5;exitDx=0;exitDy=0;" edge="1" parent="1" source="n9dQfp6F3I3MkhqRtmCc-18">
          <mxGeometry relative="1" as="geometry">
            <mxPoint x="341.5" y="179.5" as="sourcePoint" />
            <mxPoint x="385.5" y="214.5" as="targetPoint" />
          </mxGeometry>
        </mxCell>
        <mxCell id="n9dQfp6F3I3MkhqRtmCc-20" value="" style="rounded=1;whiteSpace=wrap;html=1;fillColor=none;strokeWidth=3;strokeColor=#28a7f7;" vertex="1" parent="1">
          <mxGeometry x="381" y="245" width="59" height="40" as="geometry" />
        </mxCell>
        <mxCell id="n9dQfp6F3I3MkhqRtmCc-21" style="edgeStyle=orthogonalEdgeStyle;rounded=0;orthogonalLoop=1;jettySize=auto;html=1;entryX=0;entryY=0.5;entryDx=0;entryDy=0;endArrow=none;endFill=0;strokeWidth=3;strokeColor=#28a7f7;" edge="1" parent="1" source="n9dQfp6F3I3MkhqRtmCc-22" target="n9dQfp6F3I3MkhqRtmCc-20">
          <mxGeometry relative="1" as="geometry" />
        </mxCell>
        <mxCell id="n9dQfp6F3I3MkhqRtmCc-22" value="Type: &lt;b&gt;Pixel&lt;/b&gt;" style="rounded=1;whiteSpace=wrap;html=1;fontSize=18;strokeWidth=3;strokeColor=#28a7f7;" vertex="1" parent="1">
          <mxGeometry x="26" y="249" width="124" height="31" as="geometry" />
        </mxCell>
        <mxCell id="n9dQfp6F3I3MkhqRtmCc-23" value="" style="rounded=1;whiteSpace=wrap;html=1;fillColor=none;strokeWidth=3;strokeColor=#28a7f7;" vertex="1" parent="1">
          <mxGeometry x="393" y="297" width="51" height="36" as="geometry" />
        </mxCell>
        <mxCell id="n9dQfp6F3I3MkhqRtmCc-24" style="edgeStyle=orthogonalEdgeStyle;rounded=0;orthogonalLoop=1;jettySize=auto;html=1;entryX=0;entryY=0.5;entryDx=0;entryDy=0;endArrow=none;endFill=0;strokeWidth=3;strokeColor=#28a7f7;" edge="1" parent="1" source="n9dQfp6F3I3MkhqRtmCc-25" target="n9dQfp6F3I3MkhqRtmCc-23">
          <mxGeometry relative="1" as="geometry" />
        </mxCell>
        <mxCell id="n9dQfp6F3I3MkhqRtmCc-25" value="Power: &lt;b&gt;Low&lt;/b&gt;" style="rounded=1;whiteSpace=wrap;html=1;fontSize=18;strokeWidth=3;strokeColor=#28a7f7;" vertex="1" parent="1">
          <mxGeometry x="200" y="299" width="142" height="31" as="geometry" />
        </mxCell>
        <mxCell id="n9dQfp6F3I3MkhqRtmCc-26" value="" style="rounded=1;whiteSpace=wrap;html=1;fillColor=none;strokeWidth=3;strokeColor=#28a7f7;" vertex="1" parent="1">
          <mxGeometry x="393" y="344" width="51" height="42" as="geometry" />
        </mxCell>
        <mxCell id="n9dQfp6F3I3MkhqRtmCc-27" value="Range: &lt;b&gt;Short&lt;/b&gt;" style="rounded=1;whiteSpace=wrap;html=1;fontSize=18;strokeWidth=3;strokeColor=#28a7f7;" vertex="1" parent="1">
          <mxGeometry x="70" y="349" width="140" height="31" as="geometry" />
        </mxCell>
        <mxCell id="n9dQfp6F3I3MkhqRtmCc-28" style="edgeStyle=orthogonalEdgeStyle;rounded=0;orthogonalLoop=1;jettySize=auto;html=1;entryX=0;entryY=0.5;entryDx=0;entryDy=0;endArrow=none;endFill=0;strokeWidth=3;strokeColor=#28a7f7;exitX=1;exitY=0.5;exitDx=0;exitDy=0;" edge="1" parent="1" source="n9dQfp6F3I3MkhqRtmCc-27" target="n9dQfp6F3I3MkhqRtmCc-26">
          <mxGeometry relative="1" as="geometry">
            <mxPoint x="353" y="329" as="sourcePoint" />
            <mxPoint x="407" y="329" as="targetPoint" />
          </mxGeometry>
        </mxCell>
        <mxCell id="n9dQfp6F3I3MkhqRtmCc-29" value="" style="rounded=1;whiteSpace=wrap;html=1;fillColor=none;strokeWidth=3;strokeColor=#28a7f7;" vertex="1" parent="1">
          <mxGeometry x="385.5" y="391" width="84.5" height="44" as="geometry" />
        </mxCell>
        <mxCell id="n9dQfp6F3I3MkhqRtmCc-30" value="Speed: &lt;b&gt;Fast&lt;/b&gt;" style="rounded=1;whiteSpace=wrap;html=1;fontSize=18;strokeWidth=3;strokeColor=#28a7f7;" vertex="1" parent="1">
          <mxGeometry x="183" y="397.5" width="172.5" height="31" as="geometry" />
        </mxCell>
        <mxCell id="n9dQfp6F3I3MkhqRtmCc-31" style="edgeStyle=orthogonalEdgeStyle;rounded=0;orthogonalLoop=1;jettySize=auto;html=1;entryX=0;entryY=0.5;entryDx=0;entryDy=0;endArrow=none;endFill=0;strokeWidth=3;strokeColor=#28a7f7;exitX=1;exitY=0.5;exitDx=0;exitDy=0;" edge="1" parent="1" source="n9dQfp6F3I3MkhqRtmCc-30">
          <mxGeometry relative="1" as="geometry">
            <mxPoint x="341.5" y="377.5" as="sourcePoint" />
            <mxPoint x="385.5" y="412.5" as="targetPoint" />
          </mxGeometry>
        </mxCell>
        <mxCell id="n9dQfp6F3I3MkhqRtmCc-32" value="" style="rounded=1;whiteSpace=wrap;html=1;fillColor=none;strokeWidth=3;strokeColor=#28a7f7;" vertex="1" parent="1">
          <mxGeometry x="381" y="441" width="59" height="35" as="geometry" />
        </mxCell>
        <mxCell id="n9dQfp6F3I3MkhqRtmCc-33" style="edgeStyle=orthogonalEdgeStyle;rounded=0;orthogonalLoop=1;jettySize=auto;html=1;entryX=0;entryY=0.5;entryDx=0;entryDy=0;endArrow=none;endFill=0;strokeWidth=3;strokeColor=#28a7f7;" edge="1" parent="1" source="n9dQfp6F3I3MkhqRtmCc-34" target="n9dQfp6F3I3MkhqRtmCc-32">
          <mxGeometry relative="1" as="geometry" />
        </mxCell>
        <mxCell id="n9dQfp6F3I3MkhqRtmCc-34" value="Type:&amp;nbsp;&lt;b&gt;Pixel x4 + Small Splash&lt;/b&gt;" style="rounded=1;whiteSpace=wrap;html=1;fontSize=18;strokeWidth=3;strokeColor=#28a7f7;" vertex="1" parent="1">
          <mxGeometry x="30" y="443" width="280" height="31" as="geometry" />
        </mxCell>
        <mxCell id="n9dQfp6F3I3MkhqRtmCc-35" value="" style="rounded=1;whiteSpace=wrap;html=1;fillColor=none;strokeWidth=3;strokeColor=#28a7f7;" vertex="1" parent="1">
          <mxGeometry x="393" y="496" width="51" height="36" as="geometry" />
        </mxCell>
        <mxCell id="n9dQfp6F3I3MkhqRtmCc-36" style="edgeStyle=orthogonalEdgeStyle;rounded=0;orthogonalLoop=1;jettySize=auto;html=1;entryX=0;entryY=0.5;entryDx=0;entryDy=0;endArrow=none;endFill=0;strokeWidth=3;strokeColor=#28a7f7;" edge="1" parent="1" source="n9dQfp6F3I3MkhqRtmCc-37" target="n9dQfp6F3I3MkhqRtmCc-35">
          <mxGeometry relative="1" as="geometry" />
        </mxCell>
        <mxCell id="n9dQfp6F3I3MkhqRtmCc-37" value="Power: &lt;b&gt;Very Low&lt;/b&gt;" style="rounded=1;whiteSpace=wrap;html=1;fontSize=18;strokeWidth=3;strokeColor=#28a7f7;" vertex="1" parent="1">
          <mxGeometry x="169" y="498" width="173" height="31" as="geometry" />
        </mxCell>
        <mxCell id="n9dQfp6F3I3MkhqRtmCc-38" value="" style="rounded=1;whiteSpace=wrap;html=1;fillColor=none;strokeWidth=3;strokeColor=#28a7f7;" vertex="1" parent="1">
          <mxGeometry x="393" y="540" width="51" height="42" as="geometry" />
        </mxCell>
        <mxCell id="n9dQfp6F3I3MkhqRtmCc-39" value="Range: &lt;b&gt;Mid&lt;/b&gt;" style="rounded=1;whiteSpace=wrap;html=1;fontSize=18;strokeWidth=3;strokeColor=#28a7f7;" vertex="1" parent="1">
          <mxGeometry x="70" y="545" width="140" height="31" as="geometry" />
        </mxCell>
        <mxCell id="n9dQfp6F3I3MkhqRtmCc-40" style="edgeStyle=orthogonalEdgeStyle;rounded=0;orthogonalLoop=1;jettySize=auto;html=1;entryX=0;entryY=0.5;entryDx=0;entryDy=0;endArrow=none;endFill=0;strokeWidth=3;strokeColor=#28a7f7;exitX=1;exitY=0.5;exitDx=0;exitDy=0;" edge="1" parent="1" source="n9dQfp6F3I3MkhqRtmCc-39" target="n9dQfp6F3I3MkhqRtmCc-38">
          <mxGeometry relative="1" as="geometry">
            <mxPoint x="353" y="525" as="sourcePoint" />
            <mxPoint x="407" y="525" as="targetPoint" />
          </mxGeometry>
        </mxCell>
        <mxCell id="n9dQfp6F3I3MkhqRtmCc-41" value="" style="shape=image;verticalLabelPosition=bottom;labelBackgroundColor=default;verticalAlign=top;aspect=fixed;imageAspect=0;image=data:image/png,iVBORw0KGgoAAAANSUhEUgAAAaYAAADECAYAAADUOoXmAAAAAXNSR0IArs4c6QAAAARnQU1BAACxjwv8YQUAAAAJcEhZcwAAEnQAABJ0Ad5mH3gAAB9YSURBVHhe7d13mFT1vQbw90yfne0FtrBLk6oC0kUR9VofzU0siAq2a7y51xh7wwKWJMY8ucaG3WiaJd6YaEyMooh0sCAiS0dZ2Aa77LJlZnfq/QM55n73nDPzzDA7v4X38zy/f97oOF9mdt9lc+Z8Nc3miIFIEZrNBjhcMv5OOIRYNCJTIiXFfz8HEYtGZXrE0wCwmIiISBk2GRAREWUSi4mIiJTCYiIiIqWwmIiISCksJiIiUgqLiYiIlMJiIiIipbCYiIhIKSwmIiJSCouJiIiUwmIiIiKlsJiIiEgpSd/E1ev1ompAuYx19Q170NbeLmOilNgdHmh2p4zTLhIKIBYNyzjt7A4vNLtDxmmXsXmdXmg2zptumZo3UUkX0wlTJ+Ofb74qY90Pr7sZr7/5loyJUlJYMQlZueY/EKVL8+5PEGivk3HaFQ2YDG9OmYzTrnn3GgTa62WcdkUDpsCbUyrjtGvatRpdHQ0yTruiyinwZmdi3lXo6miUsTKS/lWe3WZDts9nepzO3v8pgA5/ms0Gzebo9QNNk0+lV2jaETZvhl5fLVPzavaez6UXTqZe30QlXUxERETpwGIiIiKlsJiIiEgpLCYiIlIKi4mIiJSS9OXiFeVlmHXev8tYV1BQgKwsr4wBADu+/gYLnn9JxkRwuLKRXThExrqc6RfDXXWMjFM2KCuCiwYEZKz7/et/wfrqzTIGAIS729HR8rWME+Jw5yC7YLCMdTknXQp35WgZp2ywL4KZFebz/u61N/HVxi0yBgCEutvRmeS8TncOfBbz5s6YDdeAUTJO2RBfBBdazPvyK/+L6s3bZAwACHW3obPlGxknxOnOha9gkIx1uSdfBlfFCBmn7KjsMM4v75Kx7qU/voGNW7bLGAAQ6mpDZ2ty8x4qSRdTPL9/bgHmzLpAxgCAJStWYcbZP5AxETy+figZNF3GOs+sW+A4+ngZp2xaYRAvjG+Rse5Hdz2Pdxd/IWMAQFdHI/buXCbjhHiy+6Nk4Iky1nkuvg2O0VNknLLpRd149rhWGeuumfsc3vt4nYwBAF0dDdi7c7mME+LJLkXJwBNkrPNcegccIyfJOGUzirvx9Djzea++/RksXLZexgCAQHs9mmpWyDgh3pwyFFdNk7HOM/tOOEZMlHHKTinpxoKx5vNeeevTWLTiKxkDAALtdWiqWSnjXsVf5RERkVJYTEREpBQWExERKYXFRERESmExERGRUtJ2Vd4vH7gX3zv7TBkDAKo3bcbdDz4kY11dfSNXZhzG7A4vbCarHNx55SgaZfy+AQD32VfBPmycjAEAXnsMpZ6IjBMyPi+EB0e3yVg3/9dvYMmajTIGALQ212HDFx/KOCHuvAoUjTpDxjr3Of8B+9CxMgZSnHdifgj3jzKfd94jf8LSTzbJGADQ0lyH6mTnzR+AopGny1jnPveHsA85VsYAgCx7DP2TnHdSfgj3Wcx7969ex4rPjD8O0NJUi+p1i2ScEHdBJYpGnCZjnft718A+2PjjD6nMO6UgiHkjzb+Hzv3lq1i1dquMAQD79u7Cxi8Xy1gX7oWVGWkrJrfbBYfJN5+pkyfgrVd/K2Pd1T++iSszDmNFFZPgNVldYR9yLLxz7pGxTnM4AZvxX/SnFAbxlMUlslZsGuC2mX8pdAfDiESMv0ks+2QTrr79KRknxD50LLyz75KxzmreaYVBPJGBeZes2Yhr7nhaxgmxDzsO3kvulLHOat4Ti4J4bEy65g0hEonKGACweNUG/GjuszJOiGP4BHguvl3GOqt5Tyrqxq/H7JdxQuwa4Epy3g+Xr8e19zwvY11vrMww/hM5BLq7g+j0+w1PKBiCLyvL9DgcdvlwdDixWm1gd0JzuU2P2RcxANi//VtEMsfqmxYAuF0OZHndhsftdvWcI9GTwrw2LTPzejI0r13rOUeiJ/68zh5z6q+vKzPzpvL6WpUS4s0b5/U98PeZ9DL/UyEiIsoAFhMRESmFxUREREphMRERkVJYTEREpJSMFNP2b3bi5rnzTM+oEcPxyEP3G54fX/Mf8uGIiOgwkpFiqq2rx6+fes70DKqqxE3X/sjwzDzve/LhiIjoMJKRYiIiIjLDYiIiIqWwmIiISCksJiIiUgqLiYiIlJK2u4un4pcPzMO5ZxnfGn/Dps2Y97OHZayrrW9AW5v57d4p8/JLx8KT3V/GAADHwNHwzbxFxjottwia2ytjAMC4vBB+arG6worXHkOZxYqB+r2t6OzskjEAYM0XW3DLgy/IOCGOQUfDd+HNMtZZzTshzuoKK3Hn3dOKTr/xvKvWbsZtP31RxglxDjkWWeffKGOd1byTCoKYb7HKwUpWnBUh9Xta0OnvljEAYMVnG3HHz1+ScUKcQ8ci67zrZazT8oqhuTwyBgBMjrO6wkqWPYpSj/HdwwGgbk8L/CbzLvtkA+b+wnz7Q0vd5+j2N8n4kFKymFwuFxx24zuMT5syyXJlxlXX3oA//eVtGZNCNM0GaMZ3KPZk90fxkJNlrPNccD0co6fIGPj2bszx7qps5viCIBaMM1+p8JP5L+H9pV/KGADgb2tA7fYlMk6IJ6cUxYNnyFjnmXkjHCMnyRhIcd4T4qzMuG7eb7Bw2XoZAwA62+pRt32pjBPiySlD8eCTZKzzXHQzHCMmyBhIcd7pcVZm/Pc9L2DRig0yBgB07q9D3Y5lMk6IN7ccRYOmy1jnnXUL7MPHyxhIcd4ZcVZm/Ofc5/Hx6moZAwA69teifsdyGeti0Wjaa0PJX+UFg0H4AwHDEwqFkJXlNT0Oh/EOKFJHLBZFLBoxPpEwEOo2PzHznwKjMaAroiV1uqPGRXlQMBRGoCtoeLqDoZ5zJHrizRtNz7xB84cFAHRbzBtM57xpen3jzRsMms+bztc3lq55Y8m/n+O9vukuJahaTEREdORiMRERkVJYTEREpBQWExERKYXFRERESlHycnErFeVlmPn9c2Wse/eDj7B56zYZUx9hd2YhK7dcxrrcyefDXTFSxgAAW3E5nJPOlLHuvPIARmSHZQwACOypQ8PyD2Sse/vvf8fWbVtlDAAIh/wItNXJOCEOZxa8VvNOuQDu8hEyBgDYiivgnHSGjHXnlwcw3Gzexlo0rPhQxrq33nkH27Ybfx2Fg34E2tMzb97UmXCVDZMxAMBWUgnnxNNkrLugPIBhZvM21KJhpfm8f/3b29i+Y4eMgVTndfngzSmTsS5v6kVwlR0lYwCArV8lnBPM551ZEcBQn/G8/vpdaFz1kYx1b771Fr7+5msZAwDCwU4E2utl3Kv6XDHRka2ocgqycgfIGABgHzoG3ivmyVj36JhWnNHP+EOFS9ZsxJwbn5SxrmnXKgTaamWcdsWVU+HNrZAxAMA+bBy8l90jY93jY1pxmsm8i1dV4/KbF8hY17RrZdJlm4riquPhzTEuLvvw8fDOuUvGuifHtuLUEuN5F634Clfe+rSMdU01KzLyzbi4apppcTlGTIRn9p0y1j01rhUnFxvPu3DZelx9+zMy1u2tWY6u9gYZK4O/yiMiIqWwmIiISCksJiIiUgqLiYiIlMJiIiIipdgB3CdDIlW5s4phszsRjQR7HGTlwDnoGMT8bYZnnKsZ2d37sa+1o8fZtG0X3l20qsdjHjxd7fUIBzvl00k7t68Ims1kXl8unAOP7jHnwXOcqxk+k3mrt9bgnx9ZzNtWh3AoA/NmFZvOq2XnwTFwdI85/3XeLNN5d+K9j1b3eMyDJ9Beh0jIL59O2h2Y19Hj+ejzVo3qMefBM97VDK/JvBu27MT7i9f0eMzv5q3NyLyJ4uXi1KdYr8woRfEQ8xUSLlsMduN/Ne7qilgsCsR6/0vFct44KySs5o23ukLNectRPNh8hYTlvPvrUbejb80bb2WG9bzWqzp6Y3VFKlhMdNjwZPdDyUDzL2QrXR2N2LvT/AtZRZ7s/igZeKKME9LV0YC9O8137qjIk1OKkqoTZJyQQHsDmmr61rzenDIUV02TcUIC7fVoqlkh4z6D/x8TEREphcVERERKYTEREZFSWExERKQUFhMRESmFV+UdImeedTaGDzdeT6Cqf777D2zdukXGfVa8lRlWUlldkSnxVkhYSWWVQ6bEWyFh5cibN/OrK1LBYjpE5s9/AP922ukyVtp98+/FokXmO4iIiDKBv8ojIiKlsJiIiEgpLCYiIlIKi4mIiJTCYiIiIqUcdlflVZQ5kJdr3Led/hh27grJOCEejwelpeaXbl577XWYerzxDRcjkSi6/cn9d1Nhc9jg8TplrFvw5ONYvXqVjAEAga4AGhsaZJxxdqcXNpv5TOkSCfkRjYZlnHact3eEQ37EMjJvFmw2h4zTLlPzJuqwK6aXnizFrB/kyhgAsHSlH2fO3C3jhIwdOw6/+p9HZaxzOhyw2e0yBgDsb+7El6trZJx2+UVZOHbKQBnrQqEQotGojAEAa9d+jttvu1nGGVc0YBK8ORUyTrvm3Wsy8jmYogGT4c1J7rNKqWjevTojn4MpqpwCb7b5D4Dp0rx7FQLtvf+DWHHlVHiyS2Wcdk27VqKro1HGyjD+q0Uf5nJq8HqMj8tlsrwkAZrNBrfbbXrMSgk4sOYlGon2/ola/8zhdDp7zHHwOJ29/1NrQjQbNJu914/Zzpx00zhvr5wDP6NnQKbmzdDrm6jDrpiIiKhvYzEREZFSWExERKQUFhMRESmFxUREREo57C4X/+OzZbj0AuPLxRcv9+OU7++ScULGHTcejz++QMa6xl2taN/fJWMAQHdXCE31bTLWjYEDpZr5VX1WvoyF0ADjS77dXieKS43/LACgtDIf2XkeGQMAPvvsU9x0409knHYOVzayC4fKWJdz0iVwDzxGxikbnBXBxQP8Mtb99rW/4MsNm2UMAAgH29Gxb4eME+J058BXMETGutwZs+GqGi3jlA3xRTCrwnzel199E+urjVeihLvb0dGS7Ly58BUMlrEu9+Q5cFWOknHKhvoiuMhi3t/88c/YsGmrjAEA4e42dLR8LeOExJ33lMvgGjBSxikb5gvjwoqAjHUv/uENVG/eLmMAQKh7PzpbvpFxr2IxJSheMW38fDf21O6XcULO0zw4Gsl9yO4vsS5sQHIflBs9YQBKyvNkDGSwmDy+figZNF3GOs+sW+A4+ngZp2xaYRAvjG+Rse5Hdz2Pdxd/IWMAQFdHI/buXCbjhHiy+6Nk4Iky1nkuvg2O0VNknLLpRd149rhWGeuumfsc3vt4nYwBAF0dDdi7c7mME+LJLkXJwBNkrPNcegccIyfJOGUzirvx9Djzea++/RksXLZexgCAQHs9mmpWyDgh3pwyFFcZf/AeADyz74RjxEQZp+yUkm4sGGs+75W3Po1FK76SMQAg0F6HppqVMu5V/FUeEREphcVERERKYTEREZFSWExERKQUFhMRESnlsLsq7+H5JTjndJ+MAQCfrO3CVT9J7g7CqVyV54SGfIubRE7qimBAyPhlcHldyC8rkrHug7Y2bO/uljEAIIgY9lu8vJm6Ks9qtYE7vxxFo8+Ssc591hWwHzVOxgCALHsM5Z6IjBNyXH4I948yv6T//sf+F0vXbJIxAKCluQ7rP/9Axglx51egaPSZMta5z74K9qFjZAykOO+E/BDmW8w7/9dvYPmnxpfH72uuxVeffyjjhLgLBqBo1Bky1rnPuRr2wcYfB/DZYyhLct6JBUHMG9kuY929//MnrPzc+PL45qbd2LB2kYwT4imsROHI02Wsc5/zQ9gHHy1jIMV5JxcGcc8I83nv/tVrWL12m4wBAM17d2HDFx/JWNcbKzMOu2JyOjXYTf4eGI0BwWBy46ZSTFWw41LNK2PdW5+uQXWt8TqOQeOH4bInfixjXeTtjYht2itjAMBORPBqzPyzDJkqpqIBk+HNNV7lYB98LLIuv1fG37HbAc34BZ5aGLS8JNiKDTE4jR8WABAKR0xXhCxdswlX3Wb+3rDiGDoW3jl3y/g7FvNOKwxiQQbm/Xh1Na6+/WkZJ8Rx1HHwzp4r4+9YzDu9qBuPjzX+GosnlXk/WrEB18x9RsYJcQyfAO8ld8j4OxbznlTcjcfG9P68Hyxbj/+6+zkZ65pq0r8yw+Kp902hUAxd3cYn2VJKlQbAYXGi0SjCkYjhiSAKOGymx27TejzewZPcR3Z7gaZB0+zGx+4AHE7zY/JFjG/fzG5bLKlj9UUMAE6HHW6X0/A4nY6ecyR4YEthXi0z87qczh5zJHqQyuuboXlTeX21VF5fRd/PvbEiJM7TJyIi6l0sJiIiUgqLiYiIlMJiIiIipbCYiIhIKSwmxTXX7ME/fvWG6anflNzd0omIVMViUlxbYytWv7bY9DTX7JH/ChFRn8ZiIiIipbCYiIhIKSwmIiJSCouJiIiUwmIiIiKlqHl38TIXkJvkLUjrg0BbcreKt5LK3cXLYcf3NLeMdavWr0dNY3J365167DGo6l8qYwBALSJ4J2a8EgMZvLt4fukYeLL7yxgA4KgaBd/MW2Ss03KLoXmyZAwAGJdnvbrCSpY9hgqv+fumrrEF7Z3Gd2r/5IstuO1nL8o4IY6BR8N34U0y1ml5xdDcxvOOzw9h/sjk5vU5rFdm1DbuQ0dnl4wBAKvXbsYdP/+NjBPiGHwsfOffIGOdllcCzW18J/6J+UHca7G6wkrceRv2ocNvPO/KzzZi7i9elnFCHEPGwnee+deR1byTCqxXV1iJN+/uhn3oNJl3+SfVuPuXv5WxrqVuLbr9TTI+pNQspkeGAN8vlGlibtoBvL1PpilLpZi0OHf6PjfmwsiY1T9h7h0tiE2a8RswBsD4fzkgU8WkaTbTOxS7s/uhZMgMGes8F94Ix+gpMga+vfu0U0vu7RxvZcZ1836D95Z8KWMAgL+9AfXbl8o4IZ6c/igefJKMdZ6LboZj5CQZAynOe0JREE+ONZ/32ntfxMKl62UMAPC316N++zIZJ8STW4riQdNlrPPMuhWOERNkDKQ474lFQTxhMe9/3f0CPlz+lYwBAP62OtTvWC7jhHhyy1A86EQZ6zwX3wbH8PEyBlKcd0ZxNx61WJlxzZ3PYfGqahkDADr316Lh6xUy1sVi0bTXhpq/ynNqgNuW3LEZf8PLpBiAsMXRbDY47PakTkzTejzewWNVSpkUi0URi0UMD6IRIBwyPzHjHTL4dt9Wd1RL6oSi1u+bUDiC7mDI8IRC4R5zJHzizWuyMwcpzysf7f9L27yROPOm6fUNx/k+GgqFe8x58ARTmDdj7+dYCu/nsPW86S4lKFtMRER0xGIxERGRUlhMRESkFBYTEREphcVERERKyczl4gPdwNXGn70BgMtP9WLCUU4ZH+APATtbZKr73U/347MPja/PT0W8y8X37elAoNP4M0OBziBqvza/hH0o7ChM8meE7YhgH4yv7PH6XKgYbH7ZfWG/HHh9LhkDab5c3Ird6YU3p0LGurzJ58FdMVLGAABbcTmck8+Sse788gBG5oRlDADwN9ahdulCGev+9o+/Y+u2bTIGAERCfgTa62ScELszC96cchnr8qacD3f5CBkDAGwlFXBOOlPGugvKAxhhMm9nQy3qln0gY93bf38H27ZvlzEAIBLqRKC9XsYJcTiz4LGad+oFcJcNlzEAwNavEs6Jp8tYd2FFAMOzTeat34265R/KWPfWO3/D9h07ZAykOq/LB092mYx1+cdfCFfpMBkDCcx7UUUAR5nNW7cLdSsWyVj317+9hR1ffyNjIMV5D5XMFNOUHODPo2Sq+4PTj9n2kIwP2OcHVpvvIJr9FPDKSpmmLl4xWWlt6sS6lcZvgnTKL/Zh7PGDZJyQTBVTPEWVU5CVO0DGAAD70DHwXjFPxrpHx7TijH7GPzwsWbMRc258Usa6pl2rEGirlXHaFVdOhTfXuKjtw8bBe9k9MtY9PqYVp5nMu3hVNS6/2fz93LRrJQJtyZVtKoqrjjctavvw8fDOuUvGuifHtuLUEuN5F634Clfe+rSMdU01KzLyzbi4ahq8OcbF5RgxEZ7Zd8pY99S4VpxcbDzvwmXrcfXtz8hYt7dmObraG2SsjOR+TCciIkoTFhMRESmFxUREREphMRERkVJYTEREpJT0XZVnsbrCNyYLgx81v1rsF+EOnBM1vtoEe8PAh+Z3zZ39WhdeWWdyRV8KRo4chblzza+AKunXD9nZ2TIGALS3BrD5i96/oiunwIsRY42v6AKAPXsa0dnRKWMAQHX1Bjz88M9lnHGWKzMGjobvwptlrLtjWAemFRm/rz5dtxW3/vQFGetaG9ahq2OPjNMuv3QsPNn9ZAwAcAw6Br4LbpSxbu7wdkwtDMoYSGB1RWv9OnR19v68BWXj4PaVyBgA4Bg8Br7zr5ex7q4R7ZhSYDzvqs834c6HXpKxrqX+C3R37pVx2lnOG2dlxj0j2jHJZN4Vn1bjroczu7oiFekrpkeGAD8okikA4ER7GB/4/DLWOb9sgK3eZM/MpkLgoaky1c2OrsUr0UN/maumaXA4HDLW3X3PfJx66r/JGAAQiwGxWHr+mK1oADSLu60/+OB9WPyR8WcdYrEYwmHjz0hk0oGVGcbc2f0tV2Y4tJjprwgC7Y2o37FExroDr18GXkOLeT05pZYrM6zm9bc3oGGH+aoONectQ/Fg85UZ1vPWo2GH+aoOJefNLbdcmWE5b1sdGr42X9WRqXkTZTZX6hwa4DI+NqcGN2B6bLHYgXu+Gx4AYZv5ibO+IFmxWAyhUMj0xCzWE2gaYLNpvX6sSgkAIuFIjzkOHhVLCTi4MsP4IGa9YiAcCiNocg7c6r/nY+qPnaEvYvk8/t+Js1LBat5wX5w3ldc3FDF4PLXnjbcyw3LesJrzJip9xURERJQEFhMRESmFxUREREphMRERkVJYTEREpJT0XS7++FDgfOPLxU+yhfGxy/jzMwCAdfVAndnl4kXAz6bJVDcbn+MV9P5nhiZPnoLKyioZK2316lXYvdv8Tu19zYEVEsZ3ao4nEgokvboiU1Kb15+Ru2mn4sDKjCNoXpcPnmzz9UBW+uK8/4rFRERESuGv8oiISCksJiIiUgqLiYiIlMJiIiIipbCYiIhIKem7Ku/OAcBp+TIFAEzwAS8dZX7T08otjcjf2yHjA7blAo+NlqludvNGvOLv/dv1ExHRoZG+YrJrpn8f0ybnwPn6SBnrXnb4cYnNeM8I9gWAleaXg89+NoZXVqVnJCIiSj+T6jgEIjEgZHxi4RiCgOmJagBsmskB4IiaH42lRETUl6WvmIiIiJLAYiIiIqWwmIiISCksJiIiUgqLiYiIlJK+y8Wt9HcBZxfIVHf6rHyMGOeV8QHdYaChXaa69+c1Ycv7FncuJyIipWWmmOJ5YihwnvHKjLiu2w78tVmmRETUR/BXeUREpBQWExERKYXFRERESmExERGRUlhMRESkFDWvyptbCZyaJ9PEPLQbWNQqUyIi6iPULCaLlRlxRWKA+aonIiJSnJrFRERER6xk/15CRESUFiwmIiJSCouJiIiUwmIiIiKlsJiIiEgpLCYiIlIKi4mIiJTCYiIiIqWwmIiISCksJiIiUgqLiYiIlMJiIiIipWTkJq42jw/O/kNlrAs31SDSmdzqCmdxFWy+fBkDAGJdHQg27pBxQjL1nKNdHQgl+ZyJiPqijBRT1qjpqLr/Qxnr6h6/Am3LXpVxQsqv/x1yT7xYxgAA/4YlqLn/NBknJGv0DFTdt1DGurrHLkPb8tdlnJDyG/6A3BMukjEAwP/VYtQ8cIaMiYgOW5n5VZ6mQbM7zY+W/NPSbPaej6cfu/zHExfnOSNNzxm2FJ4zEVEflPx3UyIiojRgMRERkVJYTEREpBQWExERKYXFRERESknb5eJ5J18B77BJMgYARLv9CO3ZKWNd55cLEazbImMAgKtsGArPvUHGulBzLaL+NhkDAML7atG+5q8y1uWdciW8R02UMZDIc173PoL1W2UMAHCVD0fhOdfLWGf9nHejfc1bMiYiOmylrZjKb/g98k6aI2MAgL96CXbeO0PGCck6egYGPrBYxrraR2ejbekrMk5IxY1/RO70S2UMAPBvWIyd806RcUKyjjkFA+9fJGNd7SOXoG35azImIjoi8Vd5RESkFBYTEREphcVERERKYTEREZFSWExERKSUtF2VV3Lpz5A94RwZAwCCdZvR/Oefy1gX2luDSGeLjAEAnqETUHbtizLWtb73DAJbVsoY+HaFRLBhu4x1/eY8BN9xZ8sYABCs3YTmNx+SsS60d6fp2gvPUZNQ9t/Py1jX8s+n0LV1tYyBBJ4zEdHhJm3FBJsdmqbJFADgHXkiquZbrJB44nK0LTVZe6Fp0CzuuF123cvIPWGWjAEA/uqPUXOfxdoLi+ecNfokVN77nox1dY/NMV97Eec5l1//O+QcP1PGAAD/Vx9x7QURHVHS96u8aASxSNjwIBaFZneYH6unFYv1eLx/PZqm9Xy8g8eiHADr5xyLWj9ny7UXcZ4zYP6cufaCiI40Ft9NiYiIeh+LiYiIlMJiIiIipbCYiIhIKSwmIiJSSvouF7fgKChHzpQfyFjXue4DBOuN117E4xtzGlzlw2UM6Gsvklsh4SgsR85kq+e80HTtRTy+safDVTZMxgCAcPNutH/ytoyJiA5bGSkmIiIiM/xVHhERKYXFRERESmExERGRUlhMRESkFBYTEREphcVERERKYTEREZFS/g8antSqiihzSQAAAABJRU5ErkJggg==;" vertex="1" parent="1">
          <mxGeometry x="380.5" y="828" width="422" height="196" as="geometry" />
        </mxCell>
        <mxCell id="n9dQfp6F3I3MkhqRtmCc-42" value="" style="rounded=1;whiteSpace=wrap;html=1;fillColor=none;strokeWidth=3;strokeColor=#28a7f7;" vertex="1" parent="1">
          <mxGeometry x="385.5" y="587" width="84.5" height="44" as="geometry" />
        </mxCell>
        <mxCell id="n9dQfp6F3I3MkhqRtmCc-43" value="Speed: &lt;b&gt;Mid&lt;/b&gt;" style="rounded=1;whiteSpace=wrap;html=1;fontSize=18;strokeWidth=3;strokeColor=#28a7f7;" vertex="1" parent="1">
          <mxGeometry x="183" y="593.5" width="172.5" height="31" as="geometry" />
        </mxCell>
        <mxCell id="n9dQfp6F3I3MkhqRtmCc-44" style="edgeStyle=orthogonalEdgeStyle;rounded=0;orthogonalLoop=1;jettySize=auto;html=1;entryX=0;entryY=0.5;entryDx=0;entryDy=0;endArrow=none;endFill=0;strokeWidth=3;strokeColor=#28a7f7;exitX=1;exitY=0.5;exitDx=0;exitDy=0;" edge="1" parent="1" source="n9dQfp6F3I3MkhqRtmCc-43">
          <mxGeometry relative="1" as="geometry">
            <mxPoint x="341.5" y="573.5" as="sourcePoint" />
            <mxPoint x="385.5" y="608.5" as="targetPoint" />
          </mxGeometry>
        </mxCell>
        <mxCell id="n9dQfp6F3I3MkhqRtmCc-45" value="" style="rounded=1;whiteSpace=wrap;html=1;fillColor=none;strokeWidth=3;strokeColor=#28a7f7;" vertex="1" parent="1">
          <mxGeometry x="382" y="636" width="59" height="40" as="geometry" />
        </mxCell>
        <mxCell id="n9dQfp6F3I3MkhqRtmCc-46" style="edgeStyle=orthogonalEdgeStyle;rounded=0;orthogonalLoop=1;jettySize=auto;html=1;entryX=0;entryY=0.5;entryDx=0;entryDy=0;endArrow=none;endFill=0;strokeWidth=3;strokeColor=#28a7f7;" edge="1" parent="1" source="n9dQfp6F3I3MkhqRtmCc-47" target="n9dQfp6F3I3MkhqRtmCc-45">
          <mxGeometry relative="1" as="geometry" />
        </mxCell>
        <mxCell id="n9dQfp6F3I3MkhqRtmCc-47" value="Type: &lt;b&gt;Bomb + Small Splash&lt;/b&gt;" style="rounded=1;whiteSpace=wrap;html=1;fontSize=18;strokeWidth=3;strokeColor=#28a7f7;" vertex="1" parent="1">
          <mxGeometry x="27" y="640" width="253" height="31" as="geometry" />
        </mxCell>
        <mxCell id="n9dQfp6F3I3MkhqRtmCc-48" value="" style="rounded=1;whiteSpace=wrap;html=1;fillColor=none;strokeWidth=3;strokeColor=#28a7f7;" vertex="1" parent="1">
          <mxGeometry x="397" y="690" width="51" height="36" as="geometry" />
        </mxCell>
        <mxCell id="n9dQfp6F3I3MkhqRtmCc-49" style="edgeStyle=orthogonalEdgeStyle;rounded=0;orthogonalLoop=1;jettySize=auto;html=1;entryX=0;entryY=0.5;entryDx=0;entryDy=0;endArrow=none;endFill=0;strokeWidth=3;strokeColor=#28a7f7;" edge="1" parent="1" source="n9dQfp6F3I3MkhqRtmCc-50" target="n9dQfp6F3I3MkhqRtmCc-48">
          <mxGeometry relative="1" as="geometry" />
        </mxCell>
        <mxCell id="n9dQfp6F3I3MkhqRtmCc-50" value="Power: &lt;b&gt;Mid&lt;/b&gt;" style="rounded=1;whiteSpace=wrap;html=1;fontSize=18;strokeWidth=3;strokeColor=#28a7f7;" vertex="1" parent="1">
          <mxGeometry x="220" y="692" width="126" height="31" as="geometry" />
        </mxCell>
        <mxCell id="n9dQfp6F3I3MkhqRtmCc-51" value="" style="rounded=1;whiteSpace=wrap;html=1;fillColor=none;strokeWidth=3;strokeColor=#28a7f7;" vertex="1" parent="1">
          <mxGeometry x="392" y="736" width="51" height="42" as="geometry" />
        </mxCell>
        <mxCell id="n9dQfp6F3I3MkhqRtmCc-52" value="Range: &lt;b&gt;Mid&lt;/b&gt;" style="rounded=1;whiteSpace=wrap;html=1;fontSize=18;strokeWidth=3;strokeColor=#28a7f7;" vertex="1" parent="1">
          <mxGeometry x="69" y="741" width="140" height="31" as="geometry" />
        </mxCell>
        <mxCell id="n9dQfp6F3I3MkhqRtmCc-53" style="edgeStyle=orthogonalEdgeStyle;rounded=0;orthogonalLoop=1;jettySize=auto;html=1;entryX=0;entryY=0.5;entryDx=0;entryDy=0;endArrow=none;endFill=0;strokeWidth=3;strokeColor=#28a7f7;exitX=1;exitY=0.5;exitDx=0;exitDy=0;" edge="1" parent="1" source="n9dQfp6F3I3MkhqRtmCc-52" target="n9dQfp6F3I3MkhqRtmCc-51">
          <mxGeometry relative="1" as="geometry">
            <mxPoint x="352" y="721" as="sourcePoint" />
            <mxPoint x="406" y="721" as="targetPoint" />
          </mxGeometry>
        </mxCell>
        <mxCell id="n9dQfp6F3I3MkhqRtmCc-54" value="" style="rounded=1;whiteSpace=wrap;html=1;fillColor=none;strokeWidth=3;strokeColor=#28a7f7;" vertex="1" parent="1">
          <mxGeometry x="385.5" y="783" width="64.5" height="44" as="geometry" />
        </mxCell>
        <mxCell id="n9dQfp6F3I3MkhqRtmCc-55" value="Speed: &lt;b&gt;Slow&lt;/b&gt;" style="rounded=1;whiteSpace=wrap;html=1;fontSize=18;strokeWidth=3;strokeColor=#28a7f7;" vertex="1" parent="1">
          <mxGeometry x="220" y="789.5" width="135.5" height="31" as="geometry" />
        </mxCell>
        <mxCell id="n9dQfp6F3I3MkhqRtmCc-56" style="edgeStyle=orthogonalEdgeStyle;rounded=0;orthogonalLoop=1;jettySize=auto;html=1;entryX=0;entryY=0.5;entryDx=0;entryDy=0;endArrow=none;endFill=0;strokeWidth=3;strokeColor=#28a7f7;exitX=1;exitY=0.5;exitDx=0;exitDy=0;" edge="1" parent="1" source="n9dQfp6F3I3MkhqRtmCc-55">
          <mxGeometry relative="1" as="geometry">
            <mxPoint x="341.5" y="769.5" as="sourcePoint" />
            <mxPoint x="385.5" y="804.5" as="targetPoint" />
          </mxGeometry>
        </mxCell>
        <mxCell id="n9dQfp6F3I3MkhqRtmCc-58" value="" style="rounded=1;whiteSpace=wrap;html=1;fillColor=none;strokeWidth=3;strokeColor=#28a7f7;" vertex="1" parent="1">
          <mxGeometry x="383" y="833" width="60" height="55" as="geometry" />
        </mxCell>
        <mxCell id="n9dQfp6F3I3MkhqRtmCc-59" style="edgeStyle=orthogonalEdgeStyle;rounded=0;orthogonalLoop=1;jettySize=auto;html=1;entryX=0;entryY=0.5;entryDx=0;entryDy=0;endArrow=none;endFill=0;strokeWidth=3;strokeColor=#28a7f7;" edge="1" parent="1" source="n9dQfp6F3I3MkhqRtmCc-60" target="n9dQfp6F3I3MkhqRtmCc-58">
          <mxGeometry relative="1" as="geometry" />
        </mxCell>
        <mxCell id="n9dQfp6F3I3MkhqRtmCc-60" value="Type: &lt;b&gt;Laser&lt;/b&gt;" style="rounded=1;whiteSpace=wrap;html=1;fontSize=18;strokeWidth=3;strokeColor=#28a7f7;" vertex="1" parent="1">
          <mxGeometry x="28" y="845" width="124" height="31" as="geometry" />
        </mxCell>
        <mxCell id="n9dQfp6F3I3MkhqRtmCc-63" value="" style="rounded=1;whiteSpace=wrap;html=1;fillColor=none;strokeWidth=3;strokeColor=#28a7f7;" vertex="1" parent="1">
          <mxGeometry x="399" y="895" width="51" height="29" as="geometry" />
        </mxCell>
        <mxCell id="n9dQfp6F3I3MkhqRtmCc-64" style="edgeStyle=orthogonalEdgeStyle;rounded=0;orthogonalLoop=1;jettySize=auto;html=1;entryX=0;entryY=0.5;entryDx=0;entryDy=0;endArrow=none;endFill=0;strokeWidth=3;strokeColor=#28a7f7;" edge="1" parent="1" source="n9dQfp6F3I3MkhqRtmCc-65" target="n9dQfp6F3I3MkhqRtmCc-63">
          <mxGeometry relative="1" as="geometry" />
        </mxCell>
        <mxCell id="n9dQfp6F3I3MkhqRtmCc-65" value="Power: &lt;b&gt;Very&amp;nbsp;Low&lt;/b&gt;" style="rounded=1;whiteSpace=wrap;html=1;fontSize=18;strokeWidth=3;strokeColor=#28a7f7;" vertex="1" parent="1">
          <mxGeometry x="175" y="894" width="173" height="31" as="geometry" />
        </mxCell>
        <mxCell id="n9dQfp6F3I3MkhqRtmCc-66" value="" style="rounded=1;whiteSpace=wrap;html=1;fillColor=none;strokeWidth=3;strokeColor=#28a7f7;" vertex="1" parent="1">
          <mxGeometry x="391" y="928" width="52" height="54" as="geometry" />
        </mxCell>
        <mxCell id="n9dQfp6F3I3MkhqRtmCc-67" value="Range: &lt;b&gt;Long&lt;/b&gt;" style="rounded=1;whiteSpace=wrap;html=1;fontSize=18;strokeWidth=3;strokeColor=#28a7f7;" vertex="1" parent="1">
          <mxGeometry x="65" y="939" width="140" height="31" as="geometry" />
        </mxCell>
        <mxCell id="n9dQfp6F3I3MkhqRtmCc-68" style="edgeStyle=orthogonalEdgeStyle;rounded=0;orthogonalLoop=1;jettySize=auto;html=1;entryX=0;entryY=0.5;entryDx=0;entryDy=0;endArrow=none;endFill=0;strokeWidth=3;strokeColor=#28a7f7;exitX=1;exitY=0.5;exitDx=0;exitDy=0;" edge="1" parent="1" source="n9dQfp6F3I3MkhqRtmCc-67" target="n9dQfp6F3I3MkhqRtmCc-66">
          <mxGeometry relative="1" as="geometry">
            <mxPoint x="348" y="914" as="sourcePoint" />
            <mxPoint x="402" y="914" as="targetPoint" />
          </mxGeometry>
        </mxCell>
        <mxCell id="n9dQfp6F3I3MkhqRtmCc-69" value="" style="rounded=1;whiteSpace=wrap;html=1;fillColor=none;strokeWidth=3;strokeColor=#28a7f7;" vertex="1" parent="1">
          <mxGeometry x="385.5" y="987" width="114.5" height="34" as="geometry" />
        </mxCell>
        <mxCell id="n9dQfp6F3I3MkhqRtmCc-70" value="Speed: &lt;b&gt;Very Fast&lt;/b&gt;" style="rounded=1;whiteSpace=wrap;html=1;fontSize=18;strokeWidth=3;strokeColor=#28a7f7;" vertex="1" parent="1">
          <mxGeometry x="183" y="989.5" width="172.5" height="31" as="geometry" />
        </mxCell>
        <mxCell id="n9dQfp6F3I3MkhqRtmCc-71" style="edgeStyle=orthogonalEdgeStyle;rounded=0;orthogonalLoop=1;jettySize=auto;html=1;entryX=0;entryY=0.5;entryDx=0;entryDy=0;endArrow=none;endFill=0;strokeWidth=3;strokeColor=#28a7f7;exitX=1;exitY=0.5;exitDx=0;exitDy=0;" edge="1" parent="1" source="n9dQfp6F3I3MkhqRtmCc-70">
          <mxGeometry relative="1" as="geometry">
            <mxPoint x="341.5" y="973.5" as="sourcePoint" />
            <mxPoint x="385.5" y="1008.5" as="targetPoint" />
          </mxGeometry>
        </mxCell>
      </root>
    </mxGraphModel>
  </diagram>
</mxfile>
